G04 #@! TF.GenerationSoftware,KiCad,Pcbnew,6.0.10-86aedd382b~118~ubuntu20.04.1*
G04 #@! TF.CreationDate,2023-01-08T02:49:30+01:00*
G04 #@! TF.ProjectId,TempExt,54656d70-4578-4742-9e6b-696361645f70,rev?*
G04 #@! TF.SameCoordinates,Original*
G04 #@! TF.FileFunction,Copper,L1,Top*
G04 #@! TF.FilePolarity,Positive*
%FSLAX46Y46*%
G04 Gerber Fmt 4.6, Leading zero omitted, Abs format (unit mm)*
G04 Created by KiCad (PCBNEW 6.0.10-86aedd382b~118~ubuntu20.04.1) date 2023-01-08 02:49:30*
%MOMM*%
%LPD*%
G01*
G04 APERTURE LIST*
G04 Aperture macros list*
%AMRoundRect*
0 Rectangle with rounded corners*
0 $1 Rounding radius*
0 $2 $3 $4 $5 $6 $7 $8 $9 X,Y pos of 4 corners*
0 Add a 4 corners polygon primitive as box body*
4,1,4,$2,$3,$4,$5,$6,$7,$8,$9,$2,$3,0*
0 Add four circle primitives for the rounded corners*
1,1,$1+$1,$2,$3*
1,1,$1+$1,$4,$5*
1,1,$1+$1,$6,$7*
1,1,$1+$1,$8,$9*
0 Add four rect primitives between the rounded corners*
20,1,$1+$1,$2,$3,$4,$5,0*
20,1,$1+$1,$4,$5,$6,$7,0*
20,1,$1+$1,$6,$7,$8,$9,0*
20,1,$1+$1,$8,$9,$2,$3,0*%
%AMFreePoly0*
4,1,20,0.000000,0.744959,0.073905,0.744508,0.209726,0.703889,0.328688,0.626782,0.421226,0.519385,0.479903,0.390333,0.500000,0.250000,0.500000,-0.250000,0.499851,-0.262216,0.476331,-0.402017,0.414519,-0.529596,0.319384,-0.634700,0.198574,-0.708877,0.061801,-0.746166,0.000000,-0.745033,0.000000,-0.750000,-0.500000,-0.750000,-0.500000,0.750000,0.000000,0.750000,0.000000,0.744959,
0.000000,0.744959,$1*%
%AMFreePoly1*
4,1,22,0.500000,-0.750000,0.000000,-0.750000,0.000000,-0.745033,-0.079941,-0.743568,-0.215256,-0.701293,-0.333266,-0.622738,-0.424486,-0.514219,-0.481581,-0.384460,-0.499164,-0.250000,-0.500000,-0.250000,-0.500000,0.250000,-0.499164,0.250000,-0.499963,0.256109,-0.478152,0.396186,-0.417904,0.524511,-0.324060,0.630769,-0.204165,0.706417,-0.067858,0.745374,0.000000,0.744959,0.000000,0.750000,
0.500000,0.750000,0.500000,-0.750000,0.500000,-0.750000,$1*%
G04 Aperture macros list end*
G04 #@! TA.AperFunction,ComponentPad*
%ADD10C,1.000000*%
G04 #@! TD*
G04 #@! TA.AperFunction,ComponentPad*
%ADD11C,2.500000*%
G04 #@! TD*
G04 #@! TA.AperFunction,SMDPad,CuDef*
%ADD12RoundRect,0.250000X-0.262500X-0.450000X0.262500X-0.450000X0.262500X0.450000X-0.262500X0.450000X0*%
G04 #@! TD*
G04 #@! TA.AperFunction,ComponentPad*
%ADD13RoundRect,0.250000X-0.600000X0.600000X-0.600000X-0.600000X0.600000X-0.600000X0.600000X0.600000X0*%
G04 #@! TD*
G04 #@! TA.AperFunction,ComponentPad*
%ADD14C,1.700000*%
G04 #@! TD*
G04 #@! TA.AperFunction,SMDPad,CuDef*
%ADD15FreePoly0,180.000000*%
G04 #@! TD*
G04 #@! TA.AperFunction,SMDPad,CuDef*
%ADD16FreePoly1,180.000000*%
G04 #@! TD*
G04 #@! TA.AperFunction,SMDPad,CuDef*
%ADD17RoundRect,0.237500X0.237500X-0.300000X0.237500X0.300000X-0.237500X0.300000X-0.237500X-0.300000X0*%
G04 #@! TD*
G04 #@! TA.AperFunction,SMDPad,CuDef*
%ADD18RoundRect,0.237500X0.250000X0.237500X-0.250000X0.237500X-0.250000X-0.237500X0.250000X-0.237500X0*%
G04 #@! TD*
G04 #@! TA.AperFunction,SMDPad,CuDef*
%ADD19RoundRect,0.237500X-0.237500X0.300000X-0.237500X-0.300000X0.237500X-0.300000X0.237500X0.300000X0*%
G04 #@! TD*
G04 #@! TA.AperFunction,SMDPad,CuDef*
%ADD20R,3.250000X3.250000*%
G04 #@! TD*
G04 #@! TA.AperFunction,SMDPad,CuDef*
%ADD21RoundRect,0.075000X-0.337500X0.075000X-0.337500X-0.075000X0.337500X-0.075000X0.337500X0.075000X0*%
G04 #@! TD*
G04 #@! TA.AperFunction,SMDPad,CuDef*
%ADD22RoundRect,0.075000X-0.075000X0.337500X-0.075000X-0.337500X0.075000X-0.337500X0.075000X0.337500X0*%
G04 #@! TD*
G04 #@! TA.AperFunction,ViaPad*
%ADD23C,0.800000*%
G04 #@! TD*
G04 #@! TA.AperFunction,Conductor*
%ADD24C,0.300000*%
G04 #@! TD*
G04 #@! TA.AperFunction,Conductor*
%ADD25C,0.400000*%
G04 #@! TD*
G04 #@! TA.AperFunction,Conductor*
%ADD26C,0.200000*%
G04 #@! TD*
G04 APERTURE END LIST*
D10*
X134891106Y-106499999D03*
D11*
X121232233Y-113767767D03*
X124767767Y-113767767D03*
X124767767Y-110232233D03*
X121232233Y-110232233D03*
D12*
X128887500Y-117500000D03*
X130712500Y-117500000D03*
D13*
X125000000Y-98000000D03*
D14*
X125000000Y-100540000D03*
X122460000Y-98000000D03*
X122460000Y-100540000D03*
X119920000Y-98000000D03*
X119920000Y-100540000D03*
X117380000Y-98000000D03*
X117380000Y-100540000D03*
X114840000Y-98000000D03*
X114840000Y-100540000D03*
D15*
X132000000Y-128025000D03*
D16*
X133300000Y-128025000D03*
D15*
X132007233Y-125425000D03*
D16*
X133307233Y-125425000D03*
D15*
X132007233Y-122825000D03*
D16*
X133307233Y-122825000D03*
X133307233Y-120225000D03*
D15*
X132007233Y-120225000D03*
D17*
X134800000Y-108737500D03*
X134800000Y-110462500D03*
D18*
X130772500Y-108275000D03*
X132597500Y-108275000D03*
D19*
X127000000Y-112937500D03*
X127000000Y-111212500D03*
D20*
X130900000Y-112600000D03*
D21*
X133337500Y-111300000D03*
X133337500Y-111950000D03*
X133337500Y-112600000D03*
X133337500Y-113250000D03*
X133337500Y-113900000D03*
D22*
X132200000Y-115037500D03*
X131550000Y-115037500D03*
X130900000Y-115037500D03*
X130250000Y-115037500D03*
X129600000Y-115037500D03*
D21*
X128462500Y-113900000D03*
X128462500Y-113250000D03*
X128462500Y-112600000D03*
X128462500Y-111950000D03*
X128462500Y-111300000D03*
D22*
X129600000Y-110162500D03*
X130250000Y-110162500D03*
X130900000Y-110162500D03*
X131550000Y-110162500D03*
X132200000Y-110162500D03*
D19*
X134800000Y-113862500D03*
X134800000Y-112137500D03*
D14*
X114820000Y-125487500D03*
X114820000Y-122947500D03*
X117360000Y-125487500D03*
X117360000Y-122947500D03*
X119900000Y-125487500D03*
X119900000Y-122947500D03*
X122440000Y-125487500D03*
X122440000Y-122947500D03*
X124980000Y-125487500D03*
D13*
X124980000Y-122947500D03*
D23*
X114000000Y-103000000D03*
X110000000Y-103000000D03*
X110000000Y-105000000D03*
X112000000Y-103000000D03*
X112000000Y-105000000D03*
X112000000Y-107000000D03*
X110000000Y-107000000D03*
X110000000Y-109000000D03*
X110000000Y-111000000D03*
X110000000Y-113000000D03*
X110000000Y-115000000D03*
X110000000Y-117000000D03*
X133000000Y-104000000D03*
X129000000Y-100000000D03*
X120000000Y-112000000D03*
X134000000Y-118000000D03*
X136000000Y-118000000D03*
X136000000Y-120000000D03*
X136000000Y-122000000D03*
X136000000Y-124000000D03*
X136000000Y-126000000D03*
X136000000Y-128000000D03*
X136000000Y-130000000D03*
X134000000Y-130000000D03*
X132000000Y-130000000D03*
X130000000Y-130000000D03*
X128000000Y-130000000D03*
X126000000Y-130000000D03*
X124000000Y-130000000D03*
X122000000Y-130000000D03*
X120000000Y-130000000D03*
X118000000Y-130000000D03*
X116000000Y-130000000D03*
X114000000Y-130000000D03*
X114000000Y-128000000D03*
X116000000Y-128000000D03*
X118000000Y-128000000D03*
X110000000Y-125000000D03*
X112000000Y-125000000D03*
X110000000Y-121000000D03*
X110000000Y-123000000D03*
X112000000Y-123000000D03*
X112000000Y-117000000D03*
X112000000Y-115000000D03*
X112000000Y-113000000D03*
X112000000Y-111000000D03*
X112000000Y-109000000D03*
X119750000Y-121250000D03*
X118500000Y-120000000D03*
X117250000Y-118750000D03*
X116000000Y-117500000D03*
X124750000Y-102500000D03*
X122500000Y-104750000D03*
X120500000Y-106750000D03*
X118500000Y-108750000D03*
X118000000Y-114750000D03*
X123750000Y-120500000D03*
X120250000Y-117000000D03*
X130000000Y-127000000D03*
X131000000Y-124000000D03*
X130000000Y-122000000D03*
X123000000Y-117000000D03*
X125000000Y-119000000D03*
X127000000Y-119000000D03*
X127000000Y-117000000D03*
X125000000Y-117000000D03*
X125000000Y-106000000D03*
X129000000Y-108000000D03*
X127000000Y-108000000D03*
X111000000Y-100000000D03*
X113000000Y-98000000D03*
X111000000Y-96000000D03*
X113000000Y-94000000D03*
X113000000Y-96000000D03*
X115000000Y-96000000D03*
X117000000Y-94000000D03*
X117000000Y-96000000D03*
X119000000Y-96000000D03*
X121000000Y-96000000D03*
X121000000Y-94000000D03*
X125000000Y-94000000D03*
X129000000Y-94000000D03*
X129000000Y-96000000D03*
X131000000Y-96000000D03*
X133000000Y-100000000D03*
X133000000Y-98000000D03*
X135000000Y-100000000D03*
X129000000Y-104000000D03*
X127000000Y-104000000D03*
X129000000Y-106000000D03*
X127000000Y-106000000D03*
X131000000Y-106000000D03*
X127000000Y-98000000D03*
X131000000Y-102000000D03*
X135000000Y-102000000D03*
X135000000Y-98000000D03*
X131000000Y-98000000D03*
X111000000Y-98000000D03*
X111000000Y-94000000D03*
X115000000Y-94000000D03*
X119000000Y-94000000D03*
X123000000Y-94000000D03*
X127000000Y-94000000D03*
X131000000Y-94000000D03*
X127900000Y-115890000D03*
X134110000Y-115870000D03*
D24*
X132007233Y-120225000D02*
X130515000Y-120225000D01*
X130515000Y-120225000D02*
X128980000Y-121760000D01*
X128980000Y-121760000D02*
X128980000Y-124397106D01*
X128980000Y-124397106D02*
X126127106Y-127250000D01*
X126127106Y-127250000D02*
X121750000Y-127250000D01*
X121750000Y-127250000D02*
X121190000Y-126690000D01*
X121190000Y-126690000D02*
X121190000Y-124970000D01*
X121190000Y-124970000D02*
X119900000Y-123680000D01*
X119900000Y-123680000D02*
X119900000Y-122947500D01*
X132007233Y-122825000D02*
X130365000Y-122825000D01*
X121250000Y-127750000D02*
X119900000Y-126400000D01*
X130365000Y-122825000D02*
X129480000Y-123710000D01*
X129480000Y-123710000D02*
X129480000Y-124604212D01*
X129480000Y-124604212D02*
X126334212Y-127750000D01*
X126334212Y-127750000D02*
X121250000Y-127750000D01*
X119900000Y-126400000D02*
X119900000Y-125487500D01*
X132000000Y-128025000D02*
X131275000Y-128750000D01*
X131275000Y-128750000D02*
X120622500Y-128750000D01*
X120622500Y-128750000D02*
X117360000Y-125487500D01*
X132007233Y-125425000D02*
X129575000Y-125425000D01*
X129575000Y-125425000D02*
X126750000Y-128250000D01*
X126750000Y-128250000D02*
X120965443Y-128250000D01*
X120965443Y-128250000D02*
X118560000Y-125844557D01*
X118560000Y-125844557D02*
X118560000Y-124300000D01*
X118560000Y-124300000D02*
X117360000Y-123100000D01*
X117360000Y-123100000D02*
X117360000Y-122947500D01*
X130712500Y-117500000D02*
X130712500Y-119157500D01*
X130712500Y-119157500D02*
X128310000Y-121560000D01*
X128310000Y-121560000D02*
X128310000Y-124360000D01*
X128310000Y-124360000D02*
X125920000Y-126750000D01*
X125920000Y-126750000D02*
X124147722Y-126750000D01*
X124147722Y-126750000D02*
X123640000Y-126242278D01*
X123640000Y-126242278D02*
X123640000Y-124730000D01*
X123640000Y-124730000D02*
X122440000Y-123530000D01*
X122440000Y-123530000D02*
X122440000Y-122947500D01*
X124980000Y-122947500D02*
X124980000Y-120480000D01*
X124980000Y-120480000D02*
X118400000Y-113900000D01*
X118400000Y-113900000D02*
X118400000Y-110000000D01*
X118400000Y-110000000D02*
X125400000Y-103000000D01*
D25*
X125000000Y-100540000D02*
X125000000Y-101000000D01*
X117000000Y-115115000D02*
X123730000Y-121845000D01*
X125000000Y-101000000D02*
X117000000Y-109000000D01*
X117000000Y-109000000D02*
X117000000Y-115115000D01*
X124980000Y-125180000D02*
X124980000Y-125487500D01*
X123730000Y-121845000D02*
X123730000Y-123930000D01*
X123730000Y-123930000D02*
X124980000Y-125180000D01*
X122440000Y-122947500D02*
X122440000Y-121440000D01*
X122440000Y-121440000D02*
X116200000Y-115200000D01*
X116200000Y-115200000D02*
X116200000Y-108800000D01*
X123750000Y-99290000D02*
X122460000Y-98000000D01*
X116200000Y-108800000D02*
X123750000Y-101250000D01*
X123750000Y-101250000D02*
X123750000Y-99290000D01*
X122460000Y-100540000D02*
X122460000Y-101540000D01*
X122460000Y-101540000D02*
X115600000Y-108400000D01*
X115600000Y-115600000D02*
X121190000Y-121190000D01*
X121190000Y-123490000D02*
X122440000Y-124740000D01*
X115600000Y-108400000D02*
X115600000Y-115600000D01*
X121190000Y-121190000D02*
X121190000Y-123490000D01*
X122440000Y-124740000D02*
X122440000Y-125487500D01*
X119920000Y-98000000D02*
X119920000Y-98620000D01*
X119920000Y-98620000D02*
X121200000Y-99900000D01*
X121200000Y-99900000D02*
X121200000Y-101800000D01*
X121200000Y-101800000D02*
X115000000Y-108000000D01*
X115000000Y-108000000D02*
X115000000Y-117944416D01*
X115000000Y-117944416D02*
X119900000Y-122844416D01*
X119900000Y-122844416D02*
X119900000Y-122947500D01*
X119900000Y-125487500D02*
X119900000Y-124730000D01*
X119900000Y-124730000D02*
X118650000Y-123480000D01*
X118650000Y-123480000D02*
X118650000Y-122442944D01*
X118650000Y-122442944D02*
X114200000Y-117992944D01*
X114200000Y-117992944D02*
X114200000Y-107800000D01*
X114200000Y-107800000D02*
X119920000Y-102080000D01*
X119920000Y-102080000D02*
X119920000Y-100540000D01*
X117380000Y-98000000D02*
X118670000Y-99290000D01*
X118670000Y-99290000D02*
X118670000Y-102330000D01*
X118670000Y-102330000D02*
X113600000Y-107400000D01*
X113600000Y-107400000D02*
X113600000Y-118241472D01*
X113600000Y-118241472D02*
X117360000Y-122001472D01*
X117360000Y-122001472D02*
X117360000Y-122947500D01*
X117360000Y-125487500D02*
X116110000Y-124237500D01*
X116110000Y-124237500D02*
X116110000Y-121600000D01*
X116110000Y-121600000D02*
X113000000Y-118490000D01*
X113000000Y-118490000D02*
X113000000Y-107000000D01*
X113000000Y-107000000D02*
X117380000Y-102620000D01*
X117380000Y-102620000D02*
X117380000Y-100540000D01*
D24*
X114820000Y-122947500D02*
X111000000Y-119127500D01*
X111000000Y-119127500D02*
X111000000Y-101840000D01*
X111000000Y-101840000D02*
X114840000Y-98000000D01*
X125400000Y-103000000D02*
X126380000Y-102020000D01*
X126380000Y-99380000D02*
X125000000Y-98000000D01*
X126380000Y-102020000D02*
X126380000Y-99380000D01*
X125400000Y-103000000D02*
X126400000Y-102000000D01*
X126400000Y-102000000D02*
X128500000Y-102000000D01*
X128500000Y-102000000D02*
X133810000Y-107310000D01*
X133810000Y-107310000D02*
X133810000Y-110827500D01*
X133810000Y-110827500D02*
X133337500Y-111300000D01*
D25*
X122460000Y-100540000D02*
X122460000Y-99767767D01*
X122460000Y-99767767D02*
X121210000Y-98517767D01*
X121210000Y-98517767D02*
X121210000Y-97380000D01*
X121210000Y-97380000D02*
X121840000Y-96750000D01*
X121840000Y-96750000D02*
X127750000Y-96750000D01*
X127750000Y-96750000D02*
X136100000Y-105100000D01*
X136100000Y-115980000D02*
X135190000Y-116890000D01*
X131550000Y-115650000D02*
X131550000Y-115037500D01*
X136100000Y-105100000D02*
X136100000Y-115980000D01*
X135190000Y-116890000D02*
X132790000Y-116890000D01*
X132790000Y-116890000D02*
X131550000Y-115650000D01*
D26*
X133337500Y-112600000D02*
X133830330Y-112600000D01*
X134205330Y-112975000D02*
X135425000Y-112975000D01*
X133830330Y-112600000D02*
X134205330Y-112975000D01*
X135600000Y-107208893D02*
X134891106Y-106499999D01*
X135425000Y-112975000D02*
X135600000Y-112800000D01*
X135600000Y-112800000D02*
X135600000Y-107208893D01*
D24*
X134800000Y-112137500D02*
X134800000Y-110462500D01*
X133337500Y-111300000D02*
X133962500Y-111300000D01*
X133962500Y-111300000D02*
X134800000Y-110462500D01*
X134612500Y-111950000D02*
X134800000Y-112137500D01*
X133337500Y-111950000D02*
X134612500Y-111950000D01*
X129750000Y-118550000D02*
X127440000Y-120860000D01*
X130900000Y-115037500D02*
X130900000Y-116126472D01*
X127440000Y-120860000D02*
X127440000Y-124350000D01*
X128462500Y-111300000D02*
X129600000Y-111300000D01*
X129750000Y-116901472D02*
X129750000Y-118550000D01*
X129600000Y-116130000D02*
X129600000Y-115037500D01*
X130250000Y-116401472D02*
X129750000Y-116901472D01*
X133337500Y-113900000D02*
X132200000Y-113900000D01*
X128462500Y-113900000D02*
X129600000Y-113900000D01*
X131550000Y-110162500D02*
X132200000Y-110162500D01*
X130900000Y-110162500D02*
X130250000Y-110162500D01*
X132200000Y-113900000D02*
X130900000Y-112600000D01*
X129600000Y-111300000D02*
X130900000Y-112600000D01*
X129600000Y-113900000D02*
X130900000Y-112600000D01*
X130900000Y-116126472D02*
X133307233Y-118533705D01*
X133307233Y-118533705D02*
X133307233Y-120225000D01*
X130250000Y-115037500D02*
X130250000Y-116401472D01*
X127440000Y-124350000D02*
X126302500Y-125487500D01*
X126302500Y-125487500D02*
X124980000Y-125487500D01*
X128887500Y-117500000D02*
X128887500Y-116842500D01*
X128887500Y-116842500D02*
X129600000Y-116130000D01*
X128462500Y-113250000D02*
X128055850Y-113250000D01*
X128055850Y-113250000D02*
X125905850Y-115400000D01*
X125905850Y-115400000D02*
X122864466Y-115400000D01*
X122864466Y-115400000D02*
X121232233Y-113767767D01*
X128462500Y-112600000D02*
X127337500Y-112600000D01*
X127337500Y-112600000D02*
X127000000Y-112937500D01*
X128462500Y-111950000D02*
X127737500Y-111950000D01*
X127737500Y-111950000D02*
X127000000Y-111212500D01*
X129600000Y-110162500D02*
X127862500Y-110162500D01*
X127862500Y-110162500D02*
X126300000Y-108600000D01*
X126300000Y-108600000D02*
X122864466Y-108600000D01*
X122864466Y-108600000D02*
X121232233Y-110232233D01*
X130250000Y-110162500D02*
X130250000Y-108797500D01*
X130250000Y-108797500D02*
X130772500Y-108275000D01*
X132200000Y-110162500D02*
X132597500Y-109765000D01*
X132597500Y-109765000D02*
X132597500Y-108275000D01*
X133307233Y-120225000D02*
X133307233Y-128017767D01*
X133307233Y-128017767D02*
X133300000Y-128025000D01*
X127000000Y-111212500D02*
X125748034Y-111212500D01*
X125748034Y-111212500D02*
X124767767Y-110232233D01*
X127000000Y-112937500D02*
X125598034Y-112937500D01*
X125598034Y-112937500D02*
X124767767Y-113767767D01*
G04 #@! TA.AperFunction,Conductor*
G36*
X135973139Y-93202466D02*
G01*
X135978704Y-93202476D01*
X135992535Y-93205656D01*
X136006376Y-93202524D01*
X136007618Y-93202526D01*
X136019685Y-93203127D01*
X136090258Y-93210045D01*
X136137264Y-93214654D01*
X136161384Y-93219430D01*
X136266414Y-93251138D01*
X136288428Y-93257784D01*
X136311158Y-93267151D01*
X136355928Y-93290954D01*
X136428336Y-93329452D01*
X136448818Y-93343059D01*
X136452719Y-93346240D01*
X136551667Y-93426935D01*
X136569114Y-93444261D01*
X136653704Y-93546504D01*
X136667456Y-93566889D01*
X136730581Y-93683623D01*
X136740111Y-93706290D01*
X136779362Y-93833061D01*
X136784308Y-93857149D01*
X136796744Y-93975392D01*
X136797403Y-93987360D01*
X136794347Y-94001091D01*
X136797576Y-94014909D01*
X136797610Y-94021271D01*
X136799500Y-94037668D01*
X136799500Y-129955814D01*
X136797534Y-129973139D01*
X136797524Y-129978704D01*
X136794344Y-129992535D01*
X136797476Y-130006376D01*
X136797474Y-130007618D01*
X136796873Y-130019694D01*
X136785346Y-130137264D01*
X136780570Y-130161384D01*
X136742217Y-130288427D01*
X136732849Y-130311158D01*
X136703908Y-130365592D01*
X136670548Y-130428336D01*
X136656941Y-130448818D01*
X136573065Y-130551667D01*
X136555738Y-130569115D01*
X136453496Y-130653704D01*
X136433111Y-130667456D01*
X136316377Y-130730581D01*
X136293710Y-130740111D01*
X136166939Y-130779362D01*
X136142851Y-130784308D01*
X136094850Y-130789356D01*
X136024602Y-130796744D01*
X136012640Y-130797403D01*
X135998909Y-130794347D01*
X135985091Y-130797576D01*
X135978729Y-130797610D01*
X135962332Y-130799500D01*
X110034144Y-130799500D01*
X110012774Y-130797268D01*
X110010579Y-130797303D01*
X109996696Y-130794370D01*
X109982916Y-130797747D01*
X109982410Y-130797755D01*
X109969993Y-130797342D01*
X109895254Y-130791156D01*
X109852815Y-130787643D01*
X109827979Y-130783046D01*
X109827876Y-130783016D01*
X109701816Y-130746303D01*
X109678396Y-130736846D01*
X109562087Y-130675672D01*
X109541030Y-130661737D01*
X109439261Y-130578596D01*
X109421402Y-130560737D01*
X109338263Y-130458970D01*
X109324326Y-130437910D01*
X109319291Y-130428336D01*
X109263154Y-130321603D01*
X109253696Y-130298182D01*
X109216953Y-130172016D01*
X109212357Y-130147180D01*
X109202618Y-130029537D01*
X109202241Y-130017591D01*
X109205617Y-130004021D01*
X109202731Y-129990124D01*
X109202763Y-129988505D01*
X109200492Y-129966425D01*
X109200458Y-129790068D01*
X109200203Y-128500000D01*
X110190517Y-128500000D01*
X110210411Y-128727389D01*
X110211835Y-128732703D01*
X110211835Y-128732704D01*
X110267774Y-128941472D01*
X110269488Y-128947870D01*
X110271810Y-128952850D01*
X110271811Y-128952852D01*
X110363628Y-129149754D01*
X110363629Y-129149755D01*
X110365954Y-129154741D01*
X110496878Y-129341719D01*
X110658281Y-129503122D01*
X110845259Y-129634046D01*
X110850241Y-129636369D01*
X110850246Y-129636372D01*
X111047148Y-129728189D01*
X111052130Y-129730512D01*
X111057438Y-129731934D01*
X111057440Y-129731935D01*
X111267296Y-129788165D01*
X111272611Y-129789589D01*
X111371972Y-129798282D01*
X111440320Y-129804262D01*
X111440327Y-129804262D01*
X111443044Y-129804500D01*
X111556956Y-129804500D01*
X111559673Y-129804262D01*
X111559680Y-129804262D01*
X111628028Y-129798282D01*
X111727389Y-129789589D01*
X111732704Y-129788165D01*
X111942560Y-129731935D01*
X111942562Y-129731934D01*
X111947870Y-129730512D01*
X111952852Y-129728189D01*
X112149754Y-129636372D01*
X112149759Y-129636369D01*
X112154741Y-129634046D01*
X112341719Y-129503122D01*
X112503122Y-129341719D01*
X112634046Y-129154742D01*
X112636369Y-129149760D01*
X112636372Y-129149755D01*
X112728189Y-128952852D01*
X112728190Y-128952851D01*
X112730512Y-128947870D01*
X112732227Y-128941472D01*
X112788165Y-128732704D01*
X112788165Y-128732703D01*
X112789589Y-128727389D01*
X112809483Y-128500000D01*
X112789589Y-128272611D01*
X112785980Y-128259142D01*
X112731935Y-128057440D01*
X112731934Y-128057438D01*
X112730512Y-128052130D01*
X112728189Y-128047148D01*
X112636372Y-127850246D01*
X112636369Y-127850241D01*
X112634046Y-127845259D01*
X112503122Y-127658281D01*
X112341719Y-127496878D01*
X112154741Y-127365954D01*
X112149759Y-127363631D01*
X112149754Y-127363628D01*
X111952852Y-127271811D01*
X111952850Y-127271810D01*
X111947870Y-127269488D01*
X111942562Y-127268066D01*
X111942560Y-127268065D01*
X111732704Y-127211835D01*
X111732703Y-127211835D01*
X111727389Y-127210411D01*
X111628028Y-127201718D01*
X111559680Y-127195738D01*
X111559673Y-127195738D01*
X111556956Y-127195500D01*
X111443044Y-127195500D01*
X111440327Y-127195738D01*
X111440320Y-127195738D01*
X111371972Y-127201718D01*
X111272611Y-127210411D01*
X111267297Y-127211835D01*
X111267296Y-127211835D01*
X111057440Y-127268065D01*
X111057438Y-127268066D01*
X111052130Y-127269488D01*
X111047150Y-127271810D01*
X111047148Y-127271811D01*
X110850246Y-127363628D01*
X110850241Y-127363631D01*
X110845259Y-127365954D01*
X110658281Y-127496878D01*
X110496878Y-127658281D01*
X110365954Y-127845258D01*
X110363631Y-127850240D01*
X110363628Y-127850245D01*
X110363628Y-127850246D01*
X110269488Y-128052130D01*
X110268066Y-128057438D01*
X110268065Y-128057440D01*
X110214020Y-128259142D01*
X110210411Y-128272611D01*
X110190517Y-128500000D01*
X109200203Y-128500000D01*
X109199831Y-126612353D01*
X114059977Y-126612353D01*
X114065258Y-126619407D01*
X114226756Y-126713779D01*
X114236042Y-126718229D01*
X114435001Y-126794203D01*
X114444899Y-126797079D01*
X114653595Y-126839538D01*
X114663823Y-126840757D01*
X114876650Y-126848562D01*
X114886936Y-126848095D01*
X115098185Y-126821034D01*
X115108262Y-126818892D01*
X115312255Y-126757691D01*
X115321842Y-126753933D01*
X115513098Y-126660238D01*
X115521944Y-126654965D01*
X115569247Y-126621223D01*
X115577648Y-126610523D01*
X115570660Y-126597370D01*
X114832812Y-125859522D01*
X114818868Y-125851908D01*
X114817035Y-125852039D01*
X114810420Y-125856290D01*
X114066737Y-126599973D01*
X114059977Y-126612353D01*
X109199831Y-126612353D01*
X109199603Y-125459363D01*
X113458050Y-125459363D01*
X113470309Y-125671977D01*
X113471745Y-125682197D01*
X113518565Y-125889946D01*
X113521645Y-125899775D01*
X113601770Y-126097103D01*
X113606413Y-126106294D01*
X113686460Y-126236920D01*
X113696916Y-126246380D01*
X113705694Y-126242596D01*
X114447978Y-125500312D01*
X114455592Y-125486368D01*
X114455461Y-125484535D01*
X114451210Y-125477920D01*
X113709849Y-124736559D01*
X113698313Y-124730259D01*
X113686031Y-124739882D01*
X113638089Y-124810162D01*
X113633004Y-124819113D01*
X113543338Y-125012283D01*
X113539775Y-125021970D01*
X113482864Y-125227181D01*
X113480933Y-125237300D01*
X113458302Y-125449074D01*
X113458050Y-125459363D01*
X109199603Y-125459363D01*
X109198349Y-119110761D01*
X110645049Y-119110761D01*
X110646273Y-119121100D01*
X110648627Y-119140991D01*
X110648937Y-119146246D01*
X110649072Y-119146235D01*
X110649500Y-119151414D01*
X110649500Y-119156615D01*
X110650354Y-119161743D01*
X110650354Y-119161749D01*
X110652389Y-119173973D01*
X110653226Y-119179849D01*
X110656560Y-119208014D01*
X110658764Y-119226638D01*
X110662423Y-119234258D01*
X110663812Y-119242603D01*
X110679555Y-119271779D01*
X110686192Y-119284080D01*
X110688884Y-119289365D01*
X110709274Y-119331826D01*
X110712592Y-119335774D01*
X110714525Y-119337707D01*
X110715990Y-119339304D01*
X110716254Y-119339794D01*
X110716234Y-119339813D01*
X110716313Y-119339902D01*
X110719222Y-119345294D01*
X110726870Y-119352364D01*
X110726871Y-119352365D01*
X110755636Y-119378955D01*
X110759202Y-119382384D01*
X113809743Y-122432924D01*
X113843769Y-122495236D01*
X113840750Y-122560115D01*
X113787484Y-122728032D01*
X113764520Y-122932762D01*
X113765036Y-122938906D01*
X113779995Y-123117042D01*
X113781759Y-123138053D01*
X113783458Y-123143978D01*
X113830941Y-123309570D01*
X113838544Y-123336086D01*
X113841359Y-123341563D01*
X113841360Y-123341566D01*
X113918169Y-123491020D01*
X113932712Y-123519318D01*
X114060677Y-123680770D01*
X114065370Y-123684764D01*
X114065371Y-123684765D01*
X114210867Y-123808591D01*
X114217564Y-123814291D01*
X114222942Y-123817297D01*
X114222944Y-123817298D01*
X114266308Y-123841533D01*
X114397398Y-123914797D01*
X114462437Y-123935929D01*
X114521042Y-123976002D01*
X114548680Y-124041398D01*
X114536574Y-124111355D01*
X114488568Y-124163662D01*
X114462646Y-124175527D01*
X114296868Y-124229712D01*
X114287359Y-124233709D01*
X114098466Y-124332040D01*
X114089734Y-124337539D01*
X114069677Y-124352599D01*
X114061223Y-124363927D01*
X114067968Y-124376258D01*
X115930474Y-126238764D01*
X115942484Y-126245323D01*
X115954223Y-126236355D01*
X115985004Y-126193519D01*
X115990315Y-126184680D01*
X116084670Y-125993767D01*
X116088469Y-125984172D01*
X116129593Y-125848819D01*
X116168534Y-125789455D01*
X116233388Y-125760568D01*
X116303564Y-125771330D01*
X116356782Y-125818323D01*
X116371270Y-125850717D01*
X116378544Y-125876086D01*
X116381359Y-125881563D01*
X116381360Y-125881566D01*
X116464308Y-126042965D01*
X116472712Y-126059318D01*
X116600677Y-126220770D01*
X116605370Y-126224764D01*
X116746449Y-126344831D01*
X116757564Y-126354291D01*
X116762942Y-126357297D01*
X116762944Y-126357298D01*
X116806308Y-126381533D01*
X116937398Y-126454797D01*
X117032238Y-126485613D01*
X117127471Y-126516556D01*
X117127475Y-126516557D01*
X117133329Y-126518459D01*
X117337894Y-126542851D01*
X117344029Y-126542379D01*
X117344031Y-126542379D01*
X117400039Y-126538069D01*
X117543300Y-126527046D01*
X117549230Y-126525390D01*
X117549232Y-126525390D01*
X117735792Y-126473302D01*
X117735796Y-126473300D01*
X117741725Y-126471645D01*
X117743160Y-126470920D01*
X117812333Y-126465067D01*
X117876249Y-126499431D01*
X120338717Y-128961899D01*
X120350795Y-128976853D01*
X120354027Y-128980405D01*
X120359675Y-128989152D01*
X120367852Y-128995598D01*
X120383586Y-129008002D01*
X120387521Y-129011499D01*
X120387609Y-129011395D01*
X120391566Y-129014748D01*
X120395247Y-129018429D01*
X120409572Y-129028666D01*
X120414318Y-129032229D01*
X120451311Y-129061392D01*
X120459287Y-129064193D01*
X120466169Y-129069111D01*
X120511336Y-129082619D01*
X120516942Y-129084441D01*
X120553923Y-129097428D01*
X120553929Y-129097429D01*
X120561406Y-129100055D01*
X120566544Y-129100500D01*
X120569263Y-129100500D01*
X120571445Y-129100595D01*
X120571980Y-129100755D01*
X120571979Y-129100782D01*
X120572097Y-129100789D01*
X120577964Y-129102544D01*
X120627519Y-129100597D01*
X120632466Y-129100500D01*
X131224176Y-129100500D01*
X131243275Y-129102533D01*
X131248083Y-129102760D01*
X131258261Y-129104951D01*
X131288491Y-129101373D01*
X131293746Y-129101063D01*
X131293735Y-129100928D01*
X131298914Y-129100500D01*
X131304115Y-129100500D01*
X131309243Y-129099646D01*
X131309249Y-129099646D01*
X131321473Y-129097611D01*
X131327349Y-129096774D01*
X131363799Y-129092460D01*
X131363801Y-129092460D01*
X131374138Y-129091236D01*
X131381758Y-129087577D01*
X131390103Y-129086188D01*
X131431584Y-129063806D01*
X131436870Y-129061113D01*
X131479326Y-129040726D01*
X131483274Y-129037408D01*
X131485207Y-129035475D01*
X131486804Y-129034010D01*
X131487294Y-129033746D01*
X131487313Y-129033766D01*
X131487402Y-129033687D01*
X131492794Y-129030778D01*
X131504210Y-129018429D01*
X131526456Y-128994363D01*
X131529885Y-128990797D01*
X131572814Y-128947868D01*
X131635126Y-128913842D01*
X131705941Y-128918907D01*
X131714756Y-128922581D01*
X131729545Y-128929414D01*
X131733843Y-128930699D01*
X131733850Y-128930702D01*
X131838170Y-128961899D01*
X131866763Y-128970450D01*
X131924086Y-128979017D01*
X131994530Y-128979447D01*
X132062829Y-128979865D01*
X132062834Y-128979865D01*
X132067307Y-128979892D01*
X132069780Y-128979553D01*
X132073635Y-128979428D01*
X132500000Y-128979428D01*
X132508021Y-128977833D01*
X132566061Y-128966288D01*
X132566062Y-128966288D01*
X132578231Y-128963867D01*
X132588547Y-128956974D01*
X132600017Y-128952223D01*
X132601555Y-128955937D01*
X132647751Y-128941472D01*
X132698289Y-128956312D01*
X132699983Y-128952223D01*
X132711453Y-128956974D01*
X132721769Y-128963867D01*
X132733938Y-128966288D01*
X132733939Y-128966288D01*
X132791979Y-128977833D01*
X132800000Y-128979428D01*
X133290916Y-128979428D01*
X133291686Y-128979430D01*
X133362821Y-128979865D01*
X133362827Y-128979865D01*
X133367307Y-128979892D01*
X133371750Y-128979283D01*
X133371756Y-128979283D01*
X133394885Y-128976114D01*
X133424732Y-128972026D01*
X133429039Y-128970795D01*
X133429044Y-128970794D01*
X133509260Y-128947868D01*
X133562441Y-128932669D01*
X133615351Y-128909001D01*
X133619133Y-128906615D01*
X133619140Y-128906611D01*
X133732689Y-128834966D01*
X133736479Y-128832575D01*
X133780620Y-128795008D01*
X133875428Y-128687657D01*
X133907248Y-128639215D01*
X133968117Y-128509570D01*
X133985064Y-128454139D01*
X133993572Y-128399500D01*
X134006410Y-128317042D01*
X134006410Y-128317037D01*
X134007098Y-128312621D01*
X134007806Y-128254665D01*
X134005492Y-128236969D01*
X134004428Y-128220632D01*
X134004428Y-127839520D01*
X134005928Y-127820137D01*
X134006409Y-127817045D01*
X134007098Y-127812621D01*
X134007806Y-127754665D01*
X133989236Y-127612651D01*
X133973649Y-127556823D01*
X133915966Y-127425730D01*
X133885338Y-127376524D01*
X133882453Y-127373092D01*
X133882448Y-127373085D01*
X133796066Y-127270321D01*
X133796065Y-127270320D01*
X133793181Y-127266889D01*
X133770148Y-127246295D01*
X133753318Y-127231247D01*
X133753313Y-127231243D01*
X133749971Y-127228255D01*
X133713912Y-127204252D01*
X133668291Y-127149855D01*
X133657733Y-127099366D01*
X133657733Y-126356308D01*
X133677735Y-126288187D01*
X133716499Y-126249746D01*
X133739916Y-126234971D01*
X133739925Y-126234965D01*
X133743712Y-126232575D01*
X133787853Y-126195008D01*
X133882661Y-126087657D01*
X133914481Y-126039215D01*
X133975350Y-125909570D01*
X133992297Y-125854139D01*
X133993126Y-125848819D01*
X134013643Y-125717042D01*
X134013643Y-125717037D01*
X134014331Y-125712621D01*
X134015039Y-125654665D01*
X134012725Y-125636969D01*
X134011661Y-125620632D01*
X134011661Y-125239520D01*
X134013161Y-125220137D01*
X134013642Y-125217045D01*
X134014331Y-125212621D01*
X134015039Y-125154665D01*
X133996469Y-125012651D01*
X133980882Y-124956823D01*
X133969330Y-124930568D01*
X133925004Y-124829832D01*
X133925004Y-124829831D01*
X133923199Y-124825730D01*
X133892571Y-124776524D01*
X133889686Y-124773092D01*
X133889681Y-124773085D01*
X133803299Y-124670321D01*
X133803298Y-124670320D01*
X133800414Y-124666889D01*
X133780582Y-124649157D01*
X133760551Y-124631247D01*
X133760546Y-124631243D01*
X133757204Y-124628255D01*
X133713913Y-124599438D01*
X133668292Y-124545042D01*
X133657733Y-124494552D01*
X133657733Y-123756308D01*
X133677735Y-123688187D01*
X133716499Y-123649746D01*
X133739916Y-123634971D01*
X133739925Y-123634965D01*
X133743712Y-123632575D01*
X133783902Y-123598371D01*
X133784435Y-123597917D01*
X133787853Y-123595008D01*
X133882661Y-123487657D01*
X133914481Y-123439215D01*
X133975350Y-123309570D01*
X133992297Y-123254139D01*
X134003413Y-123182749D01*
X134013643Y-123117042D01*
X134013643Y-123117037D01*
X134014331Y-123112621D01*
X134015039Y-123054665D01*
X134012725Y-123036969D01*
X134011661Y-123020632D01*
X134011661Y-122639520D01*
X134013161Y-122620137D01*
X134013642Y-122617045D01*
X134014331Y-122612621D01*
X134015039Y-122554665D01*
X134013674Y-122544222D01*
X134004556Y-122474500D01*
X133996469Y-122412651D01*
X133980882Y-122356823D01*
X133923199Y-122225730D01*
X133892571Y-122176524D01*
X133889686Y-122173092D01*
X133889681Y-122173085D01*
X133803299Y-122070321D01*
X133803298Y-122070320D01*
X133800414Y-122066889D01*
X133762423Y-122032921D01*
X133760551Y-122031247D01*
X133760546Y-122031243D01*
X133757204Y-122028255D01*
X133713913Y-121999438D01*
X133668292Y-121945042D01*
X133657733Y-121894552D01*
X133657733Y-121156308D01*
X133677735Y-121088187D01*
X133716499Y-121049746D01*
X133739916Y-121034971D01*
X133739925Y-121034965D01*
X133743712Y-121032575D01*
X133787853Y-120995008D01*
X133882661Y-120887657D01*
X133914481Y-120839215D01*
X133975350Y-120709570D01*
X133977700Y-120701886D01*
X133990986Y-120658427D01*
X133992297Y-120654139D01*
X133993022Y-120649487D01*
X134013643Y-120517042D01*
X134013643Y-120517037D01*
X134014331Y-120512621D01*
X134015039Y-120454665D01*
X134012725Y-120436969D01*
X134011661Y-120420632D01*
X134011661Y-120039520D01*
X134013161Y-120020137D01*
X134013642Y-120017045D01*
X134014331Y-120012621D01*
X134015039Y-119954665D01*
X133996469Y-119812651D01*
X133980882Y-119756823D01*
X133969330Y-119730568D01*
X133925004Y-119629832D01*
X133925004Y-119629831D01*
X133923199Y-119625730D01*
X133892571Y-119576524D01*
X133889686Y-119573092D01*
X133889681Y-119573085D01*
X133803299Y-119470321D01*
X133803298Y-119470320D01*
X133800414Y-119466889D01*
X133761166Y-119431797D01*
X133760551Y-119431247D01*
X133760546Y-119431243D01*
X133757204Y-119428255D01*
X133713913Y-119399438D01*
X133668292Y-119345042D01*
X133657733Y-119294552D01*
X133657733Y-118584531D01*
X133659766Y-118565432D01*
X133659993Y-118560628D01*
X133662185Y-118550445D01*
X133658606Y-118520206D01*
X133658297Y-118514958D01*
X133658161Y-118514969D01*
X133657733Y-118509790D01*
X133657733Y-118504590D01*
X133656880Y-118499464D01*
X133656879Y-118499455D01*
X133654846Y-118487242D01*
X133654009Y-118481366D01*
X133649694Y-118444908D01*
X133649694Y-118444907D01*
X133648470Y-118434567D01*
X133644809Y-118426944D01*
X133643421Y-118418602D01*
X133621039Y-118377121D01*
X133618366Y-118371874D01*
X133597960Y-118329379D01*
X133594641Y-118325431D01*
X133592712Y-118323502D01*
X133591243Y-118321901D01*
X133590986Y-118321424D01*
X133591009Y-118321403D01*
X133590920Y-118321302D01*
X133588011Y-118315911D01*
X133551597Y-118282250D01*
X133548031Y-118278821D01*
X132774805Y-117505595D01*
X132740779Y-117443283D01*
X132745844Y-117372468D01*
X132788391Y-117315632D01*
X132854911Y-117290821D01*
X132863900Y-117290500D01*
X135253433Y-117290500D01*
X135262864Y-117287436D01*
X135262868Y-117287435D01*
X135274353Y-117283703D01*
X135293578Y-117279087D01*
X135305512Y-117277197D01*
X135305513Y-117277197D01*
X135315304Y-117275646D01*
X135324137Y-117271145D01*
X135324141Y-117271144D01*
X135334906Y-117265659D01*
X135353166Y-117258095D01*
X135374090Y-117251296D01*
X135391893Y-117238361D01*
X135408745Y-117228035D01*
X135419502Y-117222554D01*
X135428342Y-117218050D01*
X135450895Y-117195497D01*
X135450910Y-117195483D01*
X136405483Y-116240909D01*
X136428050Y-116218342D01*
X136435887Y-116202962D01*
X136438038Y-116198741D01*
X136448368Y-116181884D01*
X136455465Y-116172115D01*
X136461296Y-116164090D01*
X136468094Y-116143168D01*
X136475658Y-116124907D01*
X136481145Y-116114139D01*
X136481146Y-116114135D01*
X136485646Y-116105304D01*
X136487197Y-116095515D01*
X136487199Y-116095507D01*
X136489089Y-116083573D01*
X136493703Y-116064353D01*
X136497435Y-116052867D01*
X136497436Y-116052860D01*
X136500499Y-116043433D01*
X136500499Y-116011525D01*
X136500500Y-116011519D01*
X136500500Y-105068481D01*
X136500499Y-105068475D01*
X136500499Y-105036567D01*
X136497436Y-105027140D01*
X136497435Y-105027133D01*
X136493703Y-105015647D01*
X136489089Y-104996427D01*
X136487199Y-104984493D01*
X136487197Y-104984485D01*
X136485646Y-104974696D01*
X136481146Y-104965865D01*
X136481145Y-104965861D01*
X136475658Y-104955093D01*
X136468094Y-104936832D01*
X136461296Y-104915910D01*
X136448368Y-104898116D01*
X136438038Y-104881259D01*
X136432552Y-104870493D01*
X136432551Y-104870492D01*
X136428050Y-104861658D01*
X136338342Y-104771950D01*
X128010909Y-96444516D01*
X128010905Y-96444513D01*
X127988342Y-96421950D01*
X127968746Y-96411965D01*
X127951893Y-96401639D01*
X127934090Y-96388704D01*
X127913166Y-96381905D01*
X127894906Y-96374341D01*
X127884141Y-96368856D01*
X127884137Y-96368855D01*
X127875304Y-96364354D01*
X127865513Y-96362803D01*
X127865512Y-96362803D01*
X127853578Y-96360913D01*
X127834353Y-96356297D01*
X127822868Y-96352565D01*
X127822864Y-96352564D01*
X127813433Y-96349500D01*
X121776567Y-96349500D01*
X121767135Y-96352565D01*
X121767133Y-96352565D01*
X121755648Y-96356297D01*
X121736422Y-96360913D01*
X121714696Y-96364354D01*
X121705861Y-96368856D01*
X121705860Y-96368856D01*
X121695097Y-96374340D01*
X121676836Y-96381904D01*
X121655911Y-96388703D01*
X121647887Y-96394533D01*
X121638113Y-96401634D01*
X121621257Y-96411963D01*
X121610493Y-96417448D01*
X121610492Y-96417449D01*
X121601658Y-96421950D01*
X121579095Y-96444513D01*
X121579091Y-96444516D01*
X120904516Y-97119091D01*
X120904513Y-97119095D01*
X120881950Y-97141658D01*
X120877446Y-97150498D01*
X120871965Y-97161255D01*
X120861639Y-97178107D01*
X120848704Y-97195910D01*
X120845996Y-97204245D01*
X120797686Y-97255395D01*
X120728771Y-97272460D01*
X120661570Y-97249558D01*
X120653854Y-97243661D01*
X120515025Y-97128811D01*
X120515021Y-97128809D01*
X120510275Y-97124882D01*
X120329055Y-97026897D01*
X120132254Y-96965977D01*
X120126129Y-96965333D01*
X120126128Y-96965333D01*
X119933498Y-96945087D01*
X119933496Y-96945087D01*
X119927369Y-96944443D01*
X119840529Y-96952346D01*
X119728342Y-96962555D01*
X119728339Y-96962556D01*
X119722203Y-96963114D01*
X119524572Y-97021280D01*
X119342002Y-97116726D01*
X119337201Y-97120586D01*
X119337198Y-97120588D01*
X119208383Y-97224158D01*
X119181447Y-97245815D01*
X119049024Y-97403630D01*
X119046056Y-97409028D01*
X119046053Y-97409033D01*
X119039315Y-97421290D01*
X118949776Y-97584162D01*
X118887484Y-97780532D01*
X118886798Y-97786649D01*
X118886797Y-97786653D01*
X118865207Y-97979137D01*
X118864520Y-97985262D01*
X118881759Y-98190553D01*
X118938544Y-98388586D01*
X118941359Y-98394063D01*
X118941360Y-98394066D01*
X118962247Y-98434707D01*
X119032712Y-98571818D01*
X119160677Y-98733270D01*
X119317564Y-98866791D01*
X119497398Y-98967297D01*
X119559152Y-98987362D01*
X119687471Y-99029056D01*
X119687475Y-99029057D01*
X119693329Y-99030959D01*
X119730887Y-99035437D01*
X119796159Y-99063364D01*
X119805063Y-99071456D01*
X120003605Y-99269998D01*
X120037631Y-99332310D01*
X120032566Y-99403125D01*
X119990019Y-99459961D01*
X119925929Y-99484574D01*
X119728342Y-99502555D01*
X119728339Y-99502556D01*
X119722203Y-99503114D01*
X119524572Y-99561280D01*
X119342002Y-99656726D01*
X119317770Y-99676209D01*
X119275452Y-99710233D01*
X119209829Y-99737329D01*
X119139975Y-99724645D01*
X119088067Y-99676209D01*
X119070500Y-99612036D01*
X119070500Y-99258481D01*
X119070499Y-99258475D01*
X119070499Y-99226567D01*
X119067436Y-99217140D01*
X119067435Y-99217133D01*
X119063703Y-99205647D01*
X119059089Y-99186427D01*
X119057199Y-99174493D01*
X119057197Y-99174485D01*
X119055646Y-99164696D01*
X119051146Y-99155865D01*
X119051145Y-99155861D01*
X119045658Y-99145093D01*
X119038094Y-99126832D01*
X119031296Y-99105910D01*
X119018368Y-99088116D01*
X119008038Y-99071259D01*
X119002552Y-99060493D01*
X119002551Y-99060492D01*
X118998050Y-99051658D01*
X118407191Y-98460799D01*
X118373165Y-98398487D01*
X118376728Y-98331932D01*
X118407404Y-98239715D01*
X118409351Y-98233863D01*
X118435171Y-98029474D01*
X118435583Y-98000000D01*
X118415480Y-97794970D01*
X118355935Y-97597749D01*
X118259218Y-97415849D01*
X118167589Y-97303501D01*
X118132906Y-97260975D01*
X118132903Y-97260972D01*
X118129011Y-97256200D01*
X118122173Y-97250543D01*
X117975025Y-97128811D01*
X117975021Y-97128809D01*
X117970275Y-97124882D01*
X117789055Y-97026897D01*
X117592254Y-96965977D01*
X117586129Y-96965333D01*
X117586128Y-96965333D01*
X117393498Y-96945087D01*
X117393496Y-96945087D01*
X117387369Y-96944443D01*
X117300529Y-96952346D01*
X117188342Y-96962555D01*
X117188339Y-96962556D01*
X117182203Y-96963114D01*
X116984572Y-97021280D01*
X116802002Y-97116726D01*
X116797201Y-97120586D01*
X116797198Y-97120588D01*
X116668383Y-97224158D01*
X116641447Y-97245815D01*
X116509024Y-97403630D01*
X116506056Y-97409028D01*
X116506053Y-97409033D01*
X116499315Y-97421290D01*
X116409776Y-97584162D01*
X116347484Y-97780532D01*
X116346798Y-97786649D01*
X116346797Y-97786653D01*
X116325207Y-97979137D01*
X116324520Y-97985262D01*
X116341759Y-98190553D01*
X116398544Y-98388586D01*
X116401359Y-98394063D01*
X116401360Y-98394066D01*
X116422247Y-98434707D01*
X116492712Y-98571818D01*
X116620677Y-98733270D01*
X116777564Y-98866791D01*
X116957398Y-98967297D01*
X117019152Y-98987362D01*
X117147471Y-99029056D01*
X117147475Y-99029057D01*
X117153329Y-99030959D01*
X117357894Y-99055351D01*
X117364029Y-99054879D01*
X117364031Y-99054879D01*
X117424565Y-99050221D01*
X117563300Y-99039546D01*
X117603418Y-99028345D01*
X117718974Y-98996082D01*
X117789964Y-98997029D01*
X117841952Y-99028345D01*
X118232595Y-99418987D01*
X118266620Y-99481300D01*
X118269500Y-99508083D01*
X118269500Y-99644659D01*
X118249498Y-99712780D01*
X118195842Y-99759273D01*
X118125568Y-99769377D01*
X118063186Y-99741745D01*
X117970275Y-99664882D01*
X117789055Y-99566897D01*
X117592254Y-99505977D01*
X117586129Y-99505333D01*
X117586128Y-99505333D01*
X117393498Y-99485087D01*
X117393496Y-99485087D01*
X117387369Y-99484443D01*
X117300529Y-99492346D01*
X117188342Y-99502555D01*
X117188339Y-99502556D01*
X117182203Y-99503114D01*
X116984572Y-99561280D01*
X116802002Y-99656726D01*
X116797201Y-99660586D01*
X116797198Y-99660588D01*
X116674459Y-99759273D01*
X116641447Y-99785815D01*
X116509024Y-99943630D01*
X116506056Y-99949028D01*
X116506053Y-99949033D01*
X116491675Y-99975187D01*
X116409776Y-100124162D01*
X116407914Y-100130032D01*
X116391068Y-100183138D01*
X116351405Y-100242022D01*
X116286202Y-100270114D01*
X116216163Y-100258497D01*
X116163523Y-100210857D01*
X116148762Y-100175735D01*
X116131214Y-100105875D01*
X116127894Y-100096124D01*
X116042972Y-99900814D01*
X116038105Y-99891739D01*
X115973063Y-99791197D01*
X115962377Y-99781995D01*
X115952812Y-99786398D01*
X115212022Y-100527188D01*
X115204408Y-100541132D01*
X115204539Y-100542965D01*
X115208790Y-100549580D01*
X115950474Y-101291264D01*
X115962484Y-101297823D01*
X115974223Y-101288855D01*
X116005004Y-101246019D01*
X116010315Y-101237180D01*
X116104670Y-101046267D01*
X116108469Y-101036672D01*
X116149593Y-100901319D01*
X116188534Y-100841955D01*
X116253388Y-100813068D01*
X116323564Y-100823830D01*
X116376782Y-100870823D01*
X116391270Y-100903217D01*
X116398544Y-100928586D01*
X116401359Y-100934063D01*
X116401360Y-100934066D01*
X116487181Y-101101056D01*
X116492712Y-101111818D01*
X116620677Y-101273270D01*
X116625370Y-101277264D01*
X116770867Y-101401091D01*
X116777564Y-101406791D01*
X116914972Y-101483586D01*
X116964676Y-101534279D01*
X116979500Y-101593573D01*
X116979500Y-102401918D01*
X116959498Y-102470039D01*
X116942595Y-102491013D01*
X112694516Y-106739091D01*
X112694513Y-106739095D01*
X112671950Y-106761658D01*
X112667446Y-106770498D01*
X112661965Y-106781255D01*
X112651639Y-106798107D01*
X112638704Y-106815910D01*
X112631907Y-106836830D01*
X112624341Y-106855094D01*
X112618856Y-106865859D01*
X112618855Y-106865863D01*
X112614354Y-106874696D01*
X112612803Y-106884487D01*
X112612803Y-106884488D01*
X112610913Y-106896422D01*
X112606297Y-106915647D01*
X112602565Y-106927132D01*
X112602564Y-106927136D01*
X112599500Y-106936567D01*
X112599500Y-118553433D01*
X112602564Y-118562864D01*
X112602565Y-118562868D01*
X112606297Y-118574353D01*
X112610913Y-118593578D01*
X112612012Y-118600514D01*
X112614354Y-118615304D01*
X112618855Y-118624137D01*
X112618856Y-118624141D01*
X112624341Y-118634906D01*
X112631905Y-118653166D01*
X112638704Y-118674090D01*
X112651639Y-118691893D01*
X112661965Y-118708745D01*
X112671950Y-118728342D01*
X112694513Y-118750905D01*
X112694516Y-118750909D01*
X114198743Y-120255135D01*
X115672595Y-121728987D01*
X115706621Y-121791299D01*
X115709500Y-121818082D01*
X115709500Y-122052159D01*
X115689498Y-122120280D01*
X115635842Y-122166773D01*
X115565568Y-122176877D01*
X115503186Y-122149245D01*
X115410275Y-122072382D01*
X115229055Y-121974397D01*
X115032254Y-121913477D01*
X115026129Y-121912833D01*
X115026128Y-121912833D01*
X114833498Y-121892587D01*
X114833496Y-121892587D01*
X114827369Y-121891943D01*
X114746988Y-121899258D01*
X114628342Y-121910055D01*
X114628339Y-121910056D01*
X114622203Y-121910614D01*
X114562930Y-121928059D01*
X114428652Y-121967579D01*
X114357655Y-121967624D01*
X114303982Y-121935800D01*
X111387405Y-119019223D01*
X111353379Y-118956911D01*
X111350500Y-118930128D01*
X111350500Y-102037372D01*
X111370502Y-101969251D01*
X111387405Y-101948277D01*
X111670829Y-101664853D01*
X114079977Y-101664853D01*
X114085258Y-101671907D01*
X114246756Y-101766279D01*
X114256042Y-101770729D01*
X114455001Y-101846703D01*
X114464899Y-101849579D01*
X114673595Y-101892038D01*
X114683823Y-101893257D01*
X114896650Y-101901062D01*
X114906936Y-101900595D01*
X115118185Y-101873534D01*
X115128262Y-101871392D01*
X115332255Y-101810191D01*
X115341842Y-101806433D01*
X115533098Y-101712738D01*
X115541944Y-101707465D01*
X115589247Y-101673723D01*
X115597648Y-101663023D01*
X115590660Y-101649870D01*
X114852812Y-100912022D01*
X114838868Y-100904408D01*
X114837035Y-100904539D01*
X114830420Y-100908790D01*
X114086737Y-101652473D01*
X114079977Y-101664853D01*
X111670829Y-101664853D01*
X113335940Y-99999742D01*
X113398252Y-99965716D01*
X113469067Y-99970781D01*
X113525903Y-100013328D01*
X113550714Y-100079848D01*
X113546452Y-100122509D01*
X113502864Y-100279681D01*
X113500933Y-100289800D01*
X113478302Y-100501574D01*
X113478050Y-100511863D01*
X113490309Y-100724477D01*
X113491745Y-100734697D01*
X113538565Y-100942446D01*
X113541645Y-100952275D01*
X113621770Y-101149603D01*
X113626413Y-101158794D01*
X113706460Y-101289420D01*
X113716916Y-101298880D01*
X113725694Y-101295096D01*
X115593389Y-99427401D01*
X115600410Y-99414544D01*
X115593611Y-99405213D01*
X115589554Y-99402518D01*
X115403117Y-99299599D01*
X115393705Y-99295369D01*
X115202031Y-99227493D01*
X115144495Y-99185899D01*
X115118579Y-99119801D01*
X115132513Y-99050185D01*
X115181872Y-98999154D01*
X115210206Y-98987362D01*
X115215790Y-98985803D01*
X115215799Y-98985800D01*
X115221725Y-98984145D01*
X115227214Y-98981372D01*
X115227220Y-98981370D01*
X115400116Y-98894033D01*
X115405610Y-98891258D01*
X115567951Y-98764424D01*
X115575129Y-98756109D01*
X115698540Y-98613134D01*
X115698540Y-98613133D01*
X115702564Y-98608472D01*
X115723387Y-98571818D01*
X115801276Y-98434707D01*
X115804323Y-98429344D01*
X115869351Y-98233863D01*
X115895171Y-98029474D01*
X115895583Y-98000000D01*
X115875480Y-97794970D01*
X115815935Y-97597749D01*
X115719218Y-97415849D01*
X115627589Y-97303501D01*
X115592906Y-97260975D01*
X115592903Y-97260972D01*
X115589011Y-97256200D01*
X115582173Y-97250543D01*
X115435025Y-97128811D01*
X115435021Y-97128809D01*
X115430275Y-97124882D01*
X115249055Y-97026897D01*
X115052254Y-96965977D01*
X115046129Y-96965333D01*
X115046128Y-96965333D01*
X114853498Y-96945087D01*
X114853496Y-96945087D01*
X114847369Y-96944443D01*
X114760529Y-96952346D01*
X114648342Y-96962555D01*
X114648339Y-96962556D01*
X114642203Y-96963114D01*
X114444572Y-97021280D01*
X114262002Y-97116726D01*
X114257201Y-97120586D01*
X114257198Y-97120588D01*
X114128383Y-97224158D01*
X114101447Y-97245815D01*
X113969024Y-97403630D01*
X113966056Y-97409028D01*
X113966053Y-97409033D01*
X113959315Y-97421290D01*
X113869776Y-97584162D01*
X113807484Y-97780532D01*
X113806798Y-97786649D01*
X113806797Y-97786653D01*
X113785207Y-97979137D01*
X113784520Y-97985262D01*
X113801759Y-98190553D01*
X113803458Y-98196478D01*
X113858544Y-98388586D01*
X113856863Y-98389068D01*
X113862585Y-98451488D01*
X113828048Y-98516270D01*
X110788101Y-101556217D01*
X110773147Y-101568295D01*
X110769595Y-101571527D01*
X110760848Y-101577175D01*
X110754402Y-101585352D01*
X110741998Y-101601086D01*
X110738501Y-101605021D01*
X110738605Y-101605109D01*
X110735250Y-101609068D01*
X110731572Y-101612746D01*
X110728553Y-101616971D01*
X110728546Y-101616979D01*
X110721328Y-101627080D01*
X110717764Y-101631827D01*
X110688608Y-101668811D01*
X110685807Y-101676787D01*
X110680889Y-101683669D01*
X110667381Y-101728836D01*
X110665559Y-101734442D01*
X110652572Y-101771423D01*
X110652571Y-101771429D01*
X110649945Y-101778906D01*
X110649500Y-101784044D01*
X110649500Y-101786763D01*
X110649405Y-101788945D01*
X110649245Y-101789480D01*
X110649218Y-101789479D01*
X110649211Y-101789597D01*
X110647456Y-101795464D01*
X110647865Y-101805872D01*
X110649403Y-101845019D01*
X110649500Y-101849966D01*
X110649500Y-119076676D01*
X110647467Y-119095775D01*
X110647240Y-119100583D01*
X110645049Y-119110761D01*
X109198349Y-119110761D01*
X109194391Y-99060493D01*
X109193688Y-95500000D01*
X133190517Y-95500000D01*
X133210411Y-95727389D01*
X133269488Y-95947870D01*
X133271810Y-95952850D01*
X133271811Y-95952852D01*
X133363628Y-96149754D01*
X133363629Y-96149755D01*
X133365954Y-96154741D01*
X133496878Y-96341719D01*
X133658281Y-96503122D01*
X133845259Y-96634046D01*
X133850241Y-96636369D01*
X133850246Y-96636372D01*
X134047148Y-96728189D01*
X134052130Y-96730512D01*
X134057438Y-96731934D01*
X134057440Y-96731935D01*
X134267296Y-96788165D01*
X134272611Y-96789589D01*
X134371972Y-96798282D01*
X134440320Y-96804262D01*
X134440327Y-96804262D01*
X134443044Y-96804500D01*
X134556956Y-96804500D01*
X134559673Y-96804262D01*
X134559680Y-96804262D01*
X134628028Y-96798282D01*
X134727389Y-96789589D01*
X134732704Y-96788165D01*
X134942560Y-96731935D01*
X134942562Y-96731934D01*
X134947870Y-96730512D01*
X134952852Y-96728189D01*
X135149754Y-96636372D01*
X135149759Y-96636369D01*
X135154741Y-96634046D01*
X135341719Y-96503122D01*
X135503122Y-96341719D01*
X135634046Y-96154742D01*
X135636369Y-96149760D01*
X135636372Y-96149755D01*
X135728189Y-95952852D01*
X135728190Y-95952851D01*
X135730512Y-95947870D01*
X135789589Y-95727389D01*
X135809483Y-95500000D01*
X135789589Y-95272611D01*
X135730512Y-95052130D01*
X135728189Y-95047148D01*
X135636372Y-94850246D01*
X135636369Y-94850241D01*
X135634046Y-94845259D01*
X135503122Y-94658281D01*
X135341719Y-94496878D01*
X135154741Y-94365954D01*
X135149759Y-94363631D01*
X135149754Y-94363628D01*
X134952852Y-94271811D01*
X134952850Y-94271810D01*
X134947870Y-94269488D01*
X134942562Y-94268066D01*
X134942560Y-94268065D01*
X134732704Y-94211835D01*
X134732703Y-94211835D01*
X134727389Y-94210411D01*
X134628028Y-94201718D01*
X134559680Y-94195738D01*
X134559673Y-94195738D01*
X134556956Y-94195500D01*
X134443044Y-94195500D01*
X134440327Y-94195738D01*
X134440320Y-94195738D01*
X134371972Y-94201718D01*
X134272611Y-94210411D01*
X134267297Y-94211835D01*
X134267296Y-94211835D01*
X134057440Y-94268065D01*
X134057438Y-94268066D01*
X134052130Y-94269488D01*
X134047150Y-94271810D01*
X134047148Y-94271811D01*
X133850246Y-94363628D01*
X133850241Y-94363631D01*
X133845259Y-94365954D01*
X133658281Y-94496878D01*
X133496878Y-94658281D01*
X133365954Y-94845258D01*
X133363631Y-94850240D01*
X133363628Y-94850245D01*
X133363628Y-94850246D01*
X133269488Y-95052130D01*
X133210411Y-95272611D01*
X133190517Y-95500000D01*
X109193688Y-95500000D01*
X109193401Y-94045351D01*
X109195199Y-94029979D01*
X109195263Y-94022730D01*
X109198541Y-94008924D01*
X109195508Y-93995065D01*
X109195520Y-93993693D01*
X109196201Y-93981677D01*
X109208580Y-93863517D01*
X109213483Y-93839536D01*
X109252804Y-93711950D01*
X109262251Y-93689369D01*
X109325498Y-93571794D01*
X109339133Y-93551465D01*
X109423925Y-93448332D01*
X109441230Y-93431027D01*
X109544361Y-93346235D01*
X109564684Y-93332604D01*
X109682265Y-93269353D01*
X109704844Y-93259906D01*
X109711732Y-93257783D01*
X109832437Y-93220582D01*
X109856410Y-93215681D01*
X109952130Y-93205653D01*
X109975021Y-93203255D01*
X109987293Y-93202581D01*
X110001101Y-93205653D01*
X110014914Y-93202424D01*
X110021292Y-93202390D01*
X110037677Y-93200500D01*
X135955814Y-93200500D01*
X135973139Y-93202466D01*
G37*
G04 #@! TD.AperFunction*
G04 #@! TA.AperFunction,Conductor*
G36*
X131273177Y-125795502D02*
G01*
X131319670Y-125849158D01*
X131325991Y-125866136D01*
X131332954Y-125889946D01*
X131336300Y-125901390D01*
X131395580Y-126031769D01*
X131426807Y-126080598D01*
X131429730Y-126083990D01*
X131429732Y-126083993D01*
X131441029Y-126097103D01*
X131520297Y-126189099D01*
X131523666Y-126192038D01*
X131523670Y-126192042D01*
X131530405Y-126197917D01*
X131563975Y-126227202D01*
X131567743Y-126229645D01*
X131567744Y-126229645D01*
X131575961Y-126234971D01*
X131684160Y-126305102D01*
X131736778Y-126329414D01*
X131741076Y-126330699D01*
X131741083Y-126330702D01*
X131830295Y-126357381D01*
X131873996Y-126370450D01*
X131931319Y-126379017D01*
X132001763Y-126379447D01*
X132070062Y-126379865D01*
X132070067Y-126379865D01*
X132074540Y-126379892D01*
X132077013Y-126379553D01*
X132080868Y-126379428D01*
X132507233Y-126379428D01*
X132515254Y-126377833D01*
X132573294Y-126366288D01*
X132573295Y-126366288D01*
X132585464Y-126363867D01*
X132595780Y-126356974D01*
X132607250Y-126352223D01*
X132608788Y-126355937D01*
X132654984Y-126341472D01*
X132705522Y-126356312D01*
X132707216Y-126352223D01*
X132718686Y-126356974D01*
X132729002Y-126363867D01*
X132741171Y-126366288D01*
X132741172Y-126366288D01*
X132799212Y-126377833D01*
X132807233Y-126379428D01*
X132830733Y-126379428D01*
X132898854Y-126399430D01*
X132945347Y-126453086D01*
X132956733Y-126505428D01*
X132956733Y-126944572D01*
X132936731Y-127012693D01*
X132883075Y-127059186D01*
X132830733Y-127070572D01*
X132800000Y-127070572D01*
X132793932Y-127071779D01*
X132733939Y-127083712D01*
X132733938Y-127083712D01*
X132721769Y-127086133D01*
X132711453Y-127093026D01*
X132699983Y-127097777D01*
X132698445Y-127094063D01*
X132652249Y-127108528D01*
X132601711Y-127093688D01*
X132600017Y-127097777D01*
X132588547Y-127093026D01*
X132578231Y-127086133D01*
X132566062Y-127083712D01*
X132566061Y-127083712D01*
X132506068Y-127071779D01*
X132500000Y-127070572D01*
X132009845Y-127070572D01*
X132007536Y-127070551D01*
X131945784Y-127069419D01*
X131941311Y-127069337D01*
X131921707Y-127071779D01*
X131888229Y-127075949D01*
X131888225Y-127075950D01*
X131883792Y-127076502D01*
X131745612Y-127114175D01*
X131741512Y-127115949D01*
X131741507Y-127115951D01*
X131696534Y-127135413D01*
X131696531Y-127135415D01*
X131692419Y-127137194D01*
X131644110Y-127166856D01*
X131597071Y-127195738D01*
X131570367Y-127212134D01*
X131566919Y-127214997D01*
X131566917Y-127214998D01*
X131553940Y-127225772D01*
X131525772Y-127249157D01*
X131429658Y-127355341D01*
X131397245Y-127403395D01*
X131334798Y-127532287D01*
X131317176Y-127587504D01*
X131293414Y-127728742D01*
X131290596Y-127760157D01*
X131290445Y-127772499D01*
X131292495Y-127803981D01*
X131292841Y-127806397D01*
X131294299Y-127816578D01*
X131295572Y-127834440D01*
X131295572Y-128181556D01*
X131275570Y-128249677D01*
X131258667Y-128270651D01*
X131166723Y-128362595D01*
X131104411Y-128396621D01*
X131077628Y-128399500D01*
X127400372Y-128399500D01*
X127332251Y-128379498D01*
X127285758Y-128325842D01*
X127275654Y-128255568D01*
X127305148Y-128190988D01*
X127311277Y-128184405D01*
X129683277Y-125812405D01*
X129745589Y-125778379D01*
X129772372Y-125775500D01*
X131205056Y-125775500D01*
X131273177Y-125795502D01*
G37*
G04 #@! TD.AperFunction*
G04 #@! TA.AperFunction,Conductor*
G36*
X128370749Y-102370502D02*
G01*
X128391723Y-102387405D01*
X133422595Y-107418277D01*
X133456621Y-107480589D01*
X133459500Y-107507372D01*
X133459500Y-107746149D01*
X133439498Y-107814270D01*
X133385842Y-107860763D01*
X133315568Y-107870867D01*
X133250988Y-107841373D01*
X133232148Y-107821008D01*
X133166303Y-107731860D01*
X133160711Y-107724289D01*
X133141521Y-107710115D01*
X133062345Y-107651635D01*
X133062343Y-107651634D01*
X133054768Y-107646039D01*
X133045881Y-107642918D01*
X133045879Y-107642917D01*
X132937748Y-107604944D01*
X132937746Y-107604943D01*
X132930500Y-107602399D01*
X132922856Y-107601676D01*
X132922854Y-107601676D01*
X132914879Y-107600922D01*
X132899833Y-107599500D01*
X132597653Y-107599500D01*
X132295168Y-107599501D01*
X132292218Y-107599780D01*
X132292213Y-107599780D01*
X132272150Y-107601676D01*
X132272149Y-107601676D01*
X132264500Y-107602399D01*
X132257252Y-107604944D01*
X132257249Y-107604945D01*
X132149121Y-107642917D01*
X132149119Y-107642918D01*
X132140232Y-107646039D01*
X132132657Y-107651634D01*
X132132655Y-107651635D01*
X132053479Y-107710115D01*
X132034289Y-107724289D01*
X132028697Y-107731860D01*
X131962852Y-107821008D01*
X131956039Y-107830232D01*
X131952918Y-107839119D01*
X131952917Y-107839121D01*
X131945317Y-107860763D01*
X131912399Y-107954500D01*
X131909500Y-107985167D01*
X131909501Y-108564832D01*
X131909780Y-108567781D01*
X131909780Y-108567787D01*
X131911676Y-108587850D01*
X131912399Y-108595500D01*
X131914944Y-108602748D01*
X131914945Y-108602751D01*
X131945289Y-108689156D01*
X131956039Y-108719768D01*
X131961634Y-108727343D01*
X131961635Y-108727345D01*
X132028588Y-108817993D01*
X132034289Y-108825711D01*
X132041860Y-108831303D01*
X132132656Y-108898365D01*
X132140232Y-108903961D01*
X132149356Y-108907165D01*
X132162748Y-108911868D01*
X132220394Y-108953311D01*
X132246482Y-109019341D01*
X132247000Y-109030751D01*
X132247000Y-109423501D01*
X132226998Y-109491622D01*
X132173342Y-109538115D01*
X132121001Y-109549501D01*
X132097868Y-109549501D01*
X132091801Y-109550708D01*
X132091798Y-109550708D01*
X132029676Y-109563064D01*
X132029675Y-109563064D01*
X132017505Y-109565485D01*
X132007188Y-109572378D01*
X132007187Y-109572379D01*
X131945002Y-109613930D01*
X131877249Y-109635145D01*
X131804998Y-109613930D01*
X131742814Y-109572380D01*
X131732495Y-109565485D01*
X131652133Y-109549500D01*
X131550009Y-109549500D01*
X131447868Y-109549501D01*
X131441801Y-109550708D01*
X131441798Y-109550708D01*
X131379676Y-109563064D01*
X131379675Y-109563064D01*
X131367505Y-109565485D01*
X131357188Y-109572378D01*
X131357187Y-109572379D01*
X131295002Y-109613930D01*
X131227249Y-109635145D01*
X131154998Y-109613930D01*
X131092814Y-109572380D01*
X131082495Y-109565485D01*
X131002133Y-109549500D01*
X130900009Y-109549500D01*
X130797868Y-109549501D01*
X130791801Y-109550708D01*
X130791798Y-109550708D01*
X130751080Y-109558807D01*
X130680366Y-109552478D01*
X130624299Y-109508923D01*
X130600500Y-109435228D01*
X130600500Y-109076500D01*
X130620502Y-109008379D01*
X130674158Y-108961886D01*
X130726500Y-108950500D01*
X131063923Y-108950499D01*
X131074832Y-108950499D01*
X131077782Y-108950220D01*
X131077787Y-108950220D01*
X131097850Y-108948324D01*
X131097851Y-108948324D01*
X131105500Y-108947601D01*
X131112748Y-108945056D01*
X131112751Y-108945055D01*
X131220879Y-108907083D01*
X131220881Y-108907082D01*
X131229768Y-108903961D01*
X131237343Y-108898366D01*
X131237345Y-108898365D01*
X131328140Y-108831303D01*
X131335711Y-108825711D01*
X131341412Y-108817993D01*
X131408365Y-108727345D01*
X131408366Y-108727343D01*
X131413961Y-108719768D01*
X131424712Y-108689156D01*
X131455056Y-108602748D01*
X131455057Y-108602746D01*
X131457601Y-108595500D01*
X131460500Y-108564833D01*
X131460499Y-107985168D01*
X131457601Y-107954500D01*
X131424683Y-107860763D01*
X131417083Y-107839121D01*
X131417082Y-107839119D01*
X131413961Y-107830232D01*
X131407149Y-107821008D01*
X131341303Y-107731860D01*
X131335711Y-107724289D01*
X131316521Y-107710115D01*
X131237345Y-107651635D01*
X131237343Y-107651634D01*
X131229768Y-107646039D01*
X131220881Y-107642918D01*
X131220879Y-107642917D01*
X131112748Y-107604944D01*
X131112746Y-107604943D01*
X131105500Y-107602399D01*
X131097856Y-107601676D01*
X131097854Y-107601676D01*
X131089879Y-107600922D01*
X131074833Y-107599500D01*
X130772653Y-107599500D01*
X130470168Y-107599501D01*
X130467218Y-107599780D01*
X130467213Y-107599780D01*
X130447150Y-107601676D01*
X130447149Y-107601676D01*
X130439500Y-107602399D01*
X130432252Y-107604944D01*
X130432249Y-107604945D01*
X130324121Y-107642917D01*
X130324119Y-107642918D01*
X130315232Y-107646039D01*
X130307657Y-107651634D01*
X130307655Y-107651635D01*
X130228479Y-107710115D01*
X130209289Y-107724289D01*
X130203697Y-107731860D01*
X130137852Y-107821008D01*
X130131039Y-107830232D01*
X130127918Y-107839119D01*
X130127917Y-107839121D01*
X130120317Y-107860763D01*
X130087399Y-107954500D01*
X130084500Y-107985167D01*
X130084500Y-107988130D01*
X130084501Y-108415127D01*
X130064499Y-108483247D01*
X130047596Y-108504222D01*
X130038101Y-108513717D01*
X130023147Y-108525795D01*
X130019595Y-108529027D01*
X130010848Y-108534675D01*
X130004402Y-108542852D01*
X129991998Y-108558586D01*
X129988501Y-108562521D01*
X129988605Y-108562609D01*
X129985250Y-108566568D01*
X129981572Y-108570246D01*
X129978553Y-108574471D01*
X129978546Y-108574479D01*
X129971328Y-108584580D01*
X129967764Y-108589327D01*
X129938608Y-108626311D01*
X129935807Y-108634287D01*
X129930889Y-108641169D01*
X129917381Y-108686336D01*
X129915559Y-108691942D01*
X129902572Y-108728923D01*
X129902571Y-108728929D01*
X129899945Y-108736406D01*
X129899500Y-108741544D01*
X129899500Y-108744263D01*
X129899405Y-108746445D01*
X129899245Y-108746980D01*
X129899218Y-108746979D01*
X129899211Y-108747097D01*
X129897456Y-108752964D01*
X129897865Y-108763372D01*
X129899403Y-108802519D01*
X129899500Y-108807466D01*
X129899500Y-109435227D01*
X129879498Y-109503348D01*
X129825842Y-109549841D01*
X129748919Y-109558806D01*
X129708202Y-109550707D01*
X129708200Y-109550707D01*
X129702133Y-109549500D01*
X129600009Y-109549500D01*
X129497868Y-109549501D01*
X129491801Y-109550708D01*
X129491798Y-109550708D01*
X129429676Y-109563064D01*
X129429675Y-109563064D01*
X129417505Y-109565485D01*
X129407188Y-109572378D01*
X129407187Y-109572379D01*
X129374081Y-109594500D01*
X129326376Y-109626376D01*
X129265485Y-109717505D01*
X129263064Y-109729677D01*
X129261183Y-109734218D01*
X129216635Y-109789499D01*
X129144774Y-109812000D01*
X128059872Y-109812000D01*
X127991751Y-109791998D01*
X127970777Y-109775095D01*
X126583783Y-108388101D01*
X126571705Y-108373147D01*
X126568473Y-108369595D01*
X126562825Y-108360848D01*
X126538914Y-108341998D01*
X126534979Y-108338501D01*
X126534891Y-108338605D01*
X126530932Y-108335250D01*
X126527254Y-108331572D01*
X126523029Y-108328553D01*
X126523021Y-108328546D01*
X126512920Y-108321328D01*
X126508173Y-108317764D01*
X126493056Y-108305847D01*
X126471189Y-108288608D01*
X126463213Y-108285807D01*
X126456331Y-108280889D01*
X126411164Y-108267381D01*
X126405558Y-108265559D01*
X126368577Y-108252572D01*
X126368571Y-108252571D01*
X126361094Y-108249945D01*
X126355956Y-108249500D01*
X126353237Y-108249500D01*
X126351055Y-108249405D01*
X126350520Y-108249245D01*
X126350521Y-108249218D01*
X126350403Y-108249211D01*
X126344536Y-108247456D01*
X126294981Y-108249403D01*
X126290034Y-108249500D01*
X122915290Y-108249500D01*
X122896191Y-108247467D01*
X122891383Y-108247240D01*
X122881205Y-108245049D01*
X122851989Y-108248507D01*
X122850975Y-108248627D01*
X122845720Y-108248937D01*
X122845731Y-108249072D01*
X122840553Y-108249500D01*
X122835351Y-108249500D01*
X122817981Y-108252391D01*
X122812111Y-108253227D01*
X122765327Y-108258764D01*
X122757707Y-108262423D01*
X122749363Y-108263812D01*
X122740198Y-108268757D01*
X122740196Y-108268758D01*
X122707907Y-108286181D01*
X122702628Y-108288872D01*
X122660140Y-108309274D01*
X122656192Y-108312592D01*
X122654253Y-108314531D01*
X122652662Y-108315990D01*
X122652172Y-108316254D01*
X122652153Y-108316234D01*
X122652064Y-108316313D01*
X122646672Y-108319222D01*
X122639602Y-108326870D01*
X122639601Y-108326871D01*
X122613011Y-108355636D01*
X122609582Y-108359202D01*
X122047457Y-108921327D01*
X121985145Y-108955353D01*
X121914330Y-108950288D01*
X121897479Y-108942546D01*
X121828864Y-108904669D01*
X121823995Y-108902945D01*
X121823991Y-108902943D01*
X121608896Y-108826774D01*
X121608894Y-108826773D01*
X121604027Y-108825050D01*
X121477541Y-108802519D01*
X121374293Y-108784127D01*
X121374289Y-108784127D01*
X121369205Y-108783221D01*
X121285373Y-108782197D01*
X121135873Y-108780370D01*
X121135871Y-108780370D01*
X121130704Y-108780307D01*
X120894931Y-108816386D01*
X120668215Y-108890488D01*
X120663627Y-108892876D01*
X120663623Y-108892878D01*
X120474172Y-108991500D01*
X120456647Y-109000623D01*
X120452514Y-109003726D01*
X120452511Y-109003728D01*
X120285682Y-109128988D01*
X120265908Y-109143835D01*
X120101120Y-109316275D01*
X120098206Y-109320547D01*
X120098205Y-109320548D01*
X120004437Y-109458006D01*
X119966708Y-109513315D01*
X119920004Y-109613930D01*
X119871927Y-109717505D01*
X119866284Y-109729661D01*
X119802542Y-109959505D01*
X119801993Y-109964642D01*
X119782699Y-110145182D01*
X119777196Y-110196673D01*
X119777493Y-110201825D01*
X119777493Y-110201829D01*
X119790629Y-110429636D01*
X119790630Y-110429642D01*
X119790927Y-110434795D01*
X119813438Y-110534684D01*
X119839113Y-110648613D01*
X119843364Y-110667478D01*
X119845308Y-110672265D01*
X119845309Y-110672269D01*
X119887227Y-110775500D01*
X119933100Y-110888472D01*
X120057726Y-111091842D01*
X120213893Y-111272127D01*
X120397409Y-111424485D01*
X120603345Y-111544824D01*
X120608170Y-111546666D01*
X120608171Y-111546667D01*
X120656296Y-111565044D01*
X120826170Y-111629913D01*
X120831238Y-111630944D01*
X120831241Y-111630945D01*
X120911393Y-111647252D01*
X121059899Y-111677466D01*
X121065072Y-111677656D01*
X121065075Y-111677656D01*
X121293094Y-111686017D01*
X121293098Y-111686017D01*
X121298258Y-111686206D01*
X121303379Y-111685550D01*
X121529722Y-111656554D01*
X121529723Y-111656554D01*
X121534842Y-111655898D01*
X121763301Y-111587358D01*
X121977497Y-111482424D01*
X122058725Y-111424485D01*
X122167475Y-111346914D01*
X122171678Y-111343916D01*
X122340630Y-111175553D01*
X122479815Y-110981856D01*
X122528339Y-110883677D01*
X122583202Y-110772670D01*
X122583203Y-110772668D01*
X122585496Y-110768028D01*
X122654833Y-110539810D01*
X122662495Y-110481611D01*
X122685529Y-110306654D01*
X122685530Y-110306647D01*
X122685966Y-110303332D01*
X122687704Y-110232233D01*
X122677513Y-110108277D01*
X122668584Y-109999668D01*
X122668583Y-109999662D01*
X122668160Y-109994517D01*
X122624484Y-109820635D01*
X122611313Y-109768196D01*
X122611312Y-109768192D01*
X122610054Y-109763185D01*
X122519077Y-109553951D01*
X122510257Y-109483507D01*
X122545532Y-109414616D01*
X122972743Y-108987405D01*
X123035055Y-108953379D01*
X123061838Y-108950500D01*
X123691507Y-108950500D01*
X123759628Y-108970502D01*
X123806121Y-109024158D01*
X123816225Y-109094432D01*
X123782601Y-109163551D01*
X123636654Y-109316275D01*
X123633740Y-109320547D01*
X123633739Y-109320548D01*
X123539971Y-109458006D01*
X123502242Y-109513315D01*
X123455538Y-109613930D01*
X123407461Y-109717505D01*
X123401818Y-109729661D01*
X123338076Y-109959505D01*
X123337527Y-109964642D01*
X123318233Y-110145182D01*
X123312730Y-110196673D01*
X123313027Y-110201825D01*
X123313027Y-110201829D01*
X123326163Y-110429636D01*
X123326164Y-110429642D01*
X123326461Y-110434795D01*
X123348972Y-110534684D01*
X123374647Y-110648613D01*
X123378898Y-110667478D01*
X123380842Y-110672265D01*
X123380843Y-110672269D01*
X123422761Y-110775500D01*
X123468634Y-110888472D01*
X123593260Y-111091842D01*
X123749427Y-111272127D01*
X123932943Y-111424485D01*
X124138879Y-111544824D01*
X124143704Y-111546666D01*
X124143705Y-111546667D01*
X124191830Y-111565044D01*
X124361704Y-111629913D01*
X124366772Y-111630944D01*
X124366775Y-111630945D01*
X124446927Y-111647252D01*
X124595433Y-111677466D01*
X124600606Y-111677656D01*
X124600609Y-111677656D01*
X124828628Y-111686017D01*
X124828632Y-111686017D01*
X124833792Y-111686206D01*
X124838913Y-111685550D01*
X125065256Y-111656554D01*
X125065257Y-111656554D01*
X125070376Y-111655898D01*
X125298835Y-111587358D01*
X125449987Y-111513309D01*
X125519961Y-111501302D01*
X125566121Y-111516045D01*
X125568666Y-111517444D01*
X125576845Y-111523892D01*
X125584821Y-111526693D01*
X125591703Y-111531611D01*
X125636870Y-111545119D01*
X125642476Y-111546941D01*
X125679457Y-111559928D01*
X125679463Y-111559929D01*
X125686940Y-111562555D01*
X125692078Y-111563000D01*
X125694797Y-111563000D01*
X125696979Y-111563095D01*
X125697514Y-111563255D01*
X125697513Y-111563282D01*
X125697631Y-111563289D01*
X125703498Y-111565044D01*
X125753053Y-111563097D01*
X125758000Y-111563000D01*
X126226691Y-111563000D01*
X126294812Y-111583002D01*
X126341305Y-111636658D01*
X126345567Y-111647234D01*
X126371039Y-111719768D01*
X126449289Y-111825711D01*
X126456860Y-111831303D01*
X126547655Y-111898365D01*
X126547657Y-111898366D01*
X126555232Y-111903961D01*
X126564119Y-111907082D01*
X126564121Y-111907083D01*
X126672252Y-111945056D01*
X126672254Y-111945057D01*
X126679500Y-111947601D01*
X126687143Y-111948323D01*
X126687145Y-111948324D01*
X126700222Y-111949560D01*
X126766157Y-111975886D01*
X126807393Y-112033680D01*
X126810837Y-112104593D01*
X126775396Y-112166111D01*
X126712322Y-112198702D01*
X126700216Y-112200441D01*
X126679500Y-112202399D01*
X126672252Y-112204944D01*
X126672249Y-112204945D01*
X126564121Y-112242917D01*
X126564119Y-112242918D01*
X126555232Y-112246039D01*
X126547657Y-112251634D01*
X126547655Y-112251635D01*
X126460727Y-112315841D01*
X126449289Y-112324289D01*
X126443697Y-112331860D01*
X126389169Y-112405686D01*
X126371039Y-112430232D01*
X126345572Y-112502750D01*
X126304131Y-112560394D01*
X126238101Y-112586482D01*
X126226691Y-112587000D01*
X125656886Y-112587000D01*
X125588765Y-112566998D01*
X125578790Y-112559878D01*
X125577279Y-112558685D01*
X125577271Y-112558680D01*
X125573212Y-112555474D01*
X125568688Y-112552976D01*
X125568684Y-112552974D01*
X125468857Y-112497867D01*
X125364398Y-112440203D01*
X125359529Y-112438479D01*
X125359525Y-112438477D01*
X125144430Y-112362308D01*
X125144428Y-112362307D01*
X125139561Y-112360584D01*
X124978309Y-112331860D01*
X124909827Y-112319661D01*
X124909823Y-112319661D01*
X124904739Y-112318755D01*
X124820907Y-112317731D01*
X124671407Y-112315904D01*
X124671405Y-112315904D01*
X124666238Y-112315841D01*
X124430465Y-112351920D01*
X124203749Y-112426022D01*
X124199161Y-112428410D01*
X124199157Y-112428412D01*
X124056359Y-112502748D01*
X123992181Y-112536157D01*
X123988048Y-112539260D01*
X123988045Y-112539262D01*
X123805577Y-112676264D01*
X123801442Y-112679369D01*
X123636654Y-112851809D01*
X123502242Y-113048849D01*
X123462406Y-113134668D01*
X123420466Y-113225022D01*
X123401818Y-113265195D01*
X123338076Y-113495039D01*
X123337527Y-113500176D01*
X123313691Y-113723217D01*
X123312730Y-113732207D01*
X123313027Y-113737359D01*
X123313027Y-113737363D01*
X123326163Y-113965170D01*
X123326164Y-113965176D01*
X123326461Y-113970329D01*
X123378898Y-114203012D01*
X123380842Y-114207799D01*
X123380843Y-114207803D01*
X123450719Y-114379886D01*
X123468634Y-114424006D01*
X123471339Y-114428421D01*
X123471340Y-114428422D01*
X123484374Y-114449691D01*
X123593260Y-114627376D01*
X123749427Y-114807661D01*
X123753402Y-114810961D01*
X123753405Y-114810964D01*
X123772186Y-114826556D01*
X123811821Y-114885459D01*
X123813319Y-114956440D01*
X123776204Y-115016962D01*
X123712260Y-115047811D01*
X123691701Y-115049500D01*
X123061838Y-115049500D01*
X122993717Y-115029498D01*
X122972743Y-115012595D01*
X122542966Y-114582818D01*
X122508940Y-114520506D01*
X122514005Y-114449691D01*
X122519104Y-114437896D01*
X122583202Y-114308204D01*
X122583203Y-114308202D01*
X122585496Y-114303562D01*
X122654833Y-114075344D01*
X122657303Y-114056580D01*
X122685529Y-113842188D01*
X122685530Y-113842181D01*
X122685966Y-113838866D01*
X122686441Y-113819432D01*
X122687622Y-113771131D01*
X122687622Y-113771127D01*
X122687704Y-113767767D01*
X122672638Y-113584515D01*
X122668584Y-113535202D01*
X122668583Y-113535196D01*
X122668160Y-113530051D01*
X122610054Y-113298719D01*
X122606190Y-113289832D01*
X122517005Y-113084720D01*
X122517003Y-113084717D01*
X122514945Y-113079983D01*
X122385388Y-112879718D01*
X122356593Y-112848072D01*
X122228340Y-112707125D01*
X122228338Y-112707124D01*
X122224862Y-112703303D01*
X122220811Y-112700104D01*
X122220807Y-112700100D01*
X122041733Y-112558676D01*
X122041729Y-112558674D01*
X122037678Y-112555474D01*
X122033150Y-112552974D01*
X121981915Y-112524691D01*
X121828864Y-112440203D01*
X121823995Y-112438479D01*
X121823991Y-112438477D01*
X121608896Y-112362308D01*
X121608894Y-112362307D01*
X121604027Y-112360584D01*
X121442775Y-112331860D01*
X121374293Y-112319661D01*
X121374289Y-112319661D01*
X121369205Y-112318755D01*
X121285373Y-112317731D01*
X121135873Y-112315904D01*
X121135871Y-112315904D01*
X121130704Y-112315841D01*
X120894931Y-112351920D01*
X120668215Y-112426022D01*
X120663627Y-112428410D01*
X120663623Y-112428412D01*
X120520825Y-112502748D01*
X120456647Y-112536157D01*
X120452514Y-112539260D01*
X120452511Y-112539262D01*
X120270043Y-112676264D01*
X120265908Y-112679369D01*
X120101120Y-112851809D01*
X119966708Y-113048849D01*
X119926872Y-113134668D01*
X119884932Y-113225022D01*
X119866284Y-113265195D01*
X119802542Y-113495039D01*
X119801993Y-113500176D01*
X119778157Y-113723217D01*
X119777196Y-113732207D01*
X119777493Y-113737359D01*
X119777493Y-113737363D01*
X119790629Y-113965170D01*
X119790630Y-113965176D01*
X119790927Y-113970329D01*
X119843364Y-114203012D01*
X119845308Y-114207799D01*
X119845309Y-114207803D01*
X119915185Y-114379886D01*
X119933100Y-114424006D01*
X119935805Y-114428421D01*
X119935806Y-114428422D01*
X119948840Y-114449691D01*
X120057726Y-114627376D01*
X120213893Y-114807661D01*
X120397409Y-114960019D01*
X120603345Y-115080358D01*
X120826170Y-115165447D01*
X120831238Y-115166478D01*
X120831241Y-115166479D01*
X120934563Y-115187500D01*
X121059899Y-115213000D01*
X121065072Y-115213190D01*
X121065075Y-115213190D01*
X121293094Y-115221551D01*
X121293098Y-115221551D01*
X121298258Y-115221740D01*
X121303379Y-115221084D01*
X121529722Y-115192088D01*
X121529723Y-115192088D01*
X121534842Y-115191432D01*
X121763301Y-115122892D01*
X121767945Y-115120617D01*
X121767950Y-115120615D01*
X121902844Y-115054531D01*
X121972818Y-115042524D01*
X122038175Y-115070254D01*
X122047371Y-115078587D01*
X122580683Y-115611899D01*
X122592761Y-115626853D01*
X122595993Y-115630405D01*
X122601641Y-115639152D01*
X122609818Y-115645598D01*
X122625552Y-115658002D01*
X122629487Y-115661499D01*
X122629575Y-115661395D01*
X122633534Y-115664750D01*
X122637212Y-115668428D01*
X122641437Y-115671447D01*
X122641445Y-115671454D01*
X122651546Y-115678672D01*
X122656293Y-115682236D01*
X122658234Y-115683766D01*
X122693277Y-115711392D01*
X122701253Y-115714193D01*
X122708135Y-115719111D01*
X122753302Y-115732619D01*
X122758908Y-115734441D01*
X122795889Y-115747428D01*
X122795895Y-115747429D01*
X122803372Y-115750055D01*
X122808510Y-115750500D01*
X122811229Y-115750500D01*
X122813411Y-115750595D01*
X122813946Y-115750755D01*
X122813945Y-115750782D01*
X122814063Y-115750789D01*
X122819930Y-115752544D01*
X122869485Y-115750597D01*
X122874432Y-115750500D01*
X125855026Y-115750500D01*
X125874125Y-115752533D01*
X125878933Y-115752760D01*
X125889111Y-115754951D01*
X125919341Y-115751373D01*
X125924596Y-115751063D01*
X125924585Y-115750928D01*
X125929764Y-115750500D01*
X125934965Y-115750500D01*
X125940093Y-115749646D01*
X125940099Y-115749646D01*
X125952323Y-115747611D01*
X125958199Y-115746774D01*
X125994649Y-115742460D01*
X125994651Y-115742460D01*
X126004988Y-115741236D01*
X126012608Y-115737577D01*
X126020953Y-115736188D01*
X126062434Y-115713806D01*
X126067720Y-115711113D01*
X126072079Y-115709020D01*
X126110176Y-115690726D01*
X126114124Y-115687408D01*
X126116057Y-115685475D01*
X126117654Y-115684010D01*
X126118144Y-115683746D01*
X126118163Y-115683766D01*
X126118252Y-115683687D01*
X126123644Y-115680778D01*
X126135061Y-115668428D01*
X126157305Y-115644364D01*
X126160734Y-115640798D01*
X127478018Y-114323514D01*
X127540330Y-114289488D01*
X127611145Y-114294553D01*
X127667075Y-114335904D01*
X127704173Y-114384251D01*
X127715750Y-114395828D01*
X127824434Y-114479223D01*
X127838615Y-114487410D01*
X127965175Y-114539833D01*
X127980995Y-114544072D01*
X128082700Y-114557462D01*
X128090908Y-114558000D01*
X128294385Y-114558000D01*
X128309624Y-114553525D01*
X128310829Y-114552135D01*
X128312500Y-114544452D01*
X128312500Y-113876000D01*
X128332502Y-113807879D01*
X128386158Y-113761386D01*
X128438500Y-113750000D01*
X128486500Y-113750000D01*
X128554621Y-113770002D01*
X128601114Y-113823658D01*
X128612500Y-113876000D01*
X128612500Y-114539885D01*
X128616975Y-114555124D01*
X128618365Y-114556329D01*
X128626048Y-114558000D01*
X128831801Y-114558000D01*
X128899922Y-114578002D01*
X128913707Y-114589111D01*
X129021351Y-114669786D01*
X129036946Y-114678324D01*
X129164793Y-114726252D01*
X129163855Y-114728755D01*
X129214283Y-114757557D01*
X129247110Y-114820509D01*
X129249500Y-114844932D01*
X129249500Y-115932628D01*
X129229498Y-116000749D01*
X129212595Y-116021723D01*
X128675601Y-116558717D01*
X128654853Y-116575474D01*
X128648847Y-116579352D01*
X128580500Y-116599500D01*
X128571166Y-116599500D01*
X128553248Y-116601194D01*
X128547278Y-116601758D01*
X128547277Y-116601758D01*
X128539631Y-116602481D01*
X128411816Y-116647366D01*
X128404246Y-116652958D01*
X128404243Y-116652959D01*
X128319794Y-116715335D01*
X128302850Y-116727850D01*
X128297258Y-116735421D01*
X128227959Y-116829243D01*
X128227958Y-116829246D01*
X128222366Y-116836816D01*
X128177481Y-116964631D01*
X128174500Y-116996166D01*
X128174500Y-118003834D01*
X128177481Y-118035369D01*
X128222366Y-118163184D01*
X128227958Y-118170754D01*
X128227959Y-118170757D01*
X128275500Y-118235121D01*
X128302850Y-118272150D01*
X128316524Y-118282250D01*
X128404243Y-118347041D01*
X128404246Y-118347042D01*
X128411816Y-118352634D01*
X128539631Y-118397519D01*
X128547277Y-118398242D01*
X128547278Y-118398242D01*
X128553248Y-118398806D01*
X128571166Y-118400500D01*
X129099628Y-118400500D01*
X129167749Y-118420502D01*
X129214242Y-118474158D01*
X129224346Y-118544432D01*
X129194852Y-118609012D01*
X129188723Y-118615595D01*
X127228101Y-120576217D01*
X127213147Y-120588295D01*
X127209595Y-120591527D01*
X127200848Y-120597175D01*
X127194402Y-120605352D01*
X127181998Y-120621086D01*
X127178501Y-120625021D01*
X127178605Y-120625109D01*
X127175250Y-120629068D01*
X127171572Y-120632746D01*
X127168553Y-120636971D01*
X127168546Y-120636979D01*
X127161328Y-120647080D01*
X127157764Y-120651827D01*
X127152561Y-120658427D01*
X127128608Y-120688811D01*
X127125807Y-120696787D01*
X127120889Y-120703669D01*
X127107381Y-120748836D01*
X127105559Y-120754442D01*
X127092572Y-120791423D01*
X127092571Y-120791429D01*
X127089945Y-120798906D01*
X127089500Y-120804044D01*
X127089500Y-120806763D01*
X127089405Y-120808945D01*
X127089245Y-120809480D01*
X127089218Y-120809479D01*
X127089211Y-120809597D01*
X127087456Y-120815464D01*
X127087865Y-120825872D01*
X127089403Y-120865019D01*
X127089500Y-120869966D01*
X127089500Y-124152628D01*
X127069498Y-124220749D01*
X127052595Y-124241723D01*
X126194223Y-125100095D01*
X126131911Y-125134121D01*
X126105128Y-125137000D01*
X126059160Y-125137000D01*
X125991039Y-125116998D01*
X125947908Y-125070153D01*
X125939585Y-125054498D01*
X125859218Y-124903349D01*
X125752977Y-124773085D01*
X125732906Y-124748475D01*
X125732903Y-124748472D01*
X125729011Y-124743700D01*
X125716458Y-124733315D01*
X125575025Y-124616311D01*
X125575021Y-124616309D01*
X125570275Y-124612382D01*
X125389055Y-124514397D01*
X125192254Y-124453477D01*
X125186129Y-124452833D01*
X125186128Y-124452833D01*
X124993498Y-124432587D01*
X124993496Y-124432587D01*
X124987369Y-124431943D01*
X124872883Y-124442362D01*
X124803230Y-124428617D01*
X124772369Y-124405976D01*
X124579488Y-124213095D01*
X124545462Y-124150783D01*
X124550527Y-124079968D01*
X124593074Y-124023132D01*
X124659594Y-123998321D01*
X124668583Y-123998000D01*
X125633834Y-123998000D01*
X125651752Y-123996306D01*
X125657722Y-123995742D01*
X125657723Y-123995742D01*
X125665369Y-123995019D01*
X125793184Y-123950134D01*
X125800754Y-123944542D01*
X125800757Y-123944541D01*
X125894579Y-123875242D01*
X125902150Y-123869650D01*
X125943039Y-123814291D01*
X125977041Y-123768257D01*
X125977042Y-123768254D01*
X125982634Y-123760684D01*
X126027519Y-123632869D01*
X126028334Y-123624253D01*
X126030221Y-123604282D01*
X126030500Y-123601334D01*
X126030500Y-122293666D01*
X126027519Y-122262131D01*
X125982634Y-122134316D01*
X125977042Y-122126746D01*
X125977041Y-122126743D01*
X125907742Y-122032921D01*
X125902150Y-122025350D01*
X125881078Y-122009786D01*
X125800757Y-121950459D01*
X125800754Y-121950458D01*
X125793184Y-121944866D01*
X125665369Y-121899981D01*
X125657723Y-121899258D01*
X125657722Y-121899258D01*
X125651752Y-121898694D01*
X125633834Y-121897000D01*
X125456500Y-121897000D01*
X125388379Y-121876998D01*
X125341886Y-121823342D01*
X125330500Y-121771000D01*
X125330500Y-120530824D01*
X125332533Y-120511725D01*
X125332760Y-120506917D01*
X125334951Y-120496739D01*
X125331373Y-120466509D01*
X125331063Y-120461254D01*
X125330928Y-120461265D01*
X125330500Y-120456087D01*
X125330500Y-120450885D01*
X125327609Y-120433515D01*
X125326773Y-120427644D01*
X125322460Y-120391205D01*
X125321236Y-120380861D01*
X125317577Y-120373241D01*
X125316188Y-120364897D01*
X125293819Y-120323441D01*
X125291122Y-120318150D01*
X125274153Y-120282811D01*
X125270726Y-120275674D01*
X125267408Y-120271726D01*
X125265469Y-120269787D01*
X125264010Y-120268196D01*
X125263746Y-120267706D01*
X125263766Y-120267687D01*
X125263687Y-120267598D01*
X125260778Y-120262206D01*
X125224364Y-120228545D01*
X125220798Y-120225116D01*
X118787405Y-113791723D01*
X118753379Y-113729411D01*
X118750500Y-113702628D01*
X118750500Y-110197372D01*
X118770502Y-110129251D01*
X118787405Y-110108277D01*
X125608262Y-103287419D01*
X125608270Y-103287411D01*
X125608274Y-103287408D01*
X126508277Y-102387405D01*
X126570589Y-102353379D01*
X126597372Y-102350500D01*
X128302628Y-102350500D01*
X128370749Y-102370502D01*
G37*
G04 #@! TD.AperFunction*
G04 #@! TA.AperFunction,Conductor*
G36*
X131273177Y-123195502D02*
G01*
X131319670Y-123249158D01*
X131325991Y-123266136D01*
X131336300Y-123301390D01*
X131395580Y-123431769D01*
X131426807Y-123480598D01*
X131520297Y-123589099D01*
X131523666Y-123592038D01*
X131523670Y-123592042D01*
X131534322Y-123601334D01*
X131563975Y-123627202D01*
X131567743Y-123629645D01*
X131567744Y-123629645D01*
X131572718Y-123632869D01*
X131684160Y-123705102D01*
X131736778Y-123729414D01*
X131741076Y-123730699D01*
X131741083Y-123730702D01*
X131841340Y-123760684D01*
X131873996Y-123770450D01*
X131931319Y-123779017D01*
X132001763Y-123779447D01*
X132070062Y-123779865D01*
X132070067Y-123779865D01*
X132074540Y-123779892D01*
X132077013Y-123779553D01*
X132080868Y-123779428D01*
X132507233Y-123779428D01*
X132549036Y-123771113D01*
X132573294Y-123766288D01*
X132573295Y-123766288D01*
X132585464Y-123763867D01*
X132595780Y-123756974D01*
X132607250Y-123752223D01*
X132608788Y-123755937D01*
X132654984Y-123741472D01*
X132705522Y-123756312D01*
X132707216Y-123752223D01*
X132718686Y-123756974D01*
X132729002Y-123763867D01*
X132741171Y-123766288D01*
X132741172Y-123766288D01*
X132765430Y-123771113D01*
X132807233Y-123779428D01*
X132830733Y-123779428D01*
X132898854Y-123799430D01*
X132945347Y-123853086D01*
X132956733Y-123905428D01*
X132956733Y-124344572D01*
X132936731Y-124412693D01*
X132883075Y-124459186D01*
X132830733Y-124470572D01*
X132807233Y-124470572D01*
X132801165Y-124471779D01*
X132741172Y-124483712D01*
X132741171Y-124483712D01*
X132729002Y-124486133D01*
X132718686Y-124493026D01*
X132707216Y-124497777D01*
X132705678Y-124494063D01*
X132659482Y-124508528D01*
X132608944Y-124493688D01*
X132607250Y-124497777D01*
X132595780Y-124493026D01*
X132585464Y-124486133D01*
X132573295Y-124483712D01*
X132573294Y-124483712D01*
X132513301Y-124471779D01*
X132507233Y-124470572D01*
X132017078Y-124470572D01*
X132014769Y-124470551D01*
X131953017Y-124469419D01*
X131948544Y-124469337D01*
X131928940Y-124471779D01*
X131895462Y-124475949D01*
X131895458Y-124475950D01*
X131891025Y-124476502D01*
X131752845Y-124514175D01*
X131748745Y-124515949D01*
X131748740Y-124515951D01*
X131703767Y-124535413D01*
X131703764Y-124535415D01*
X131699652Y-124537194D01*
X131659185Y-124562041D01*
X131598677Y-124599193D01*
X131577600Y-124612134D01*
X131574152Y-124614997D01*
X131574150Y-124614998D01*
X131539912Y-124643423D01*
X131533005Y-124649157D01*
X131436891Y-124755341D01*
X131404478Y-124803395D01*
X131342031Y-124932287D01*
X131334201Y-124956823D01*
X131324631Y-124986808D01*
X131284865Y-125045623D01*
X131219614Y-125073602D01*
X131204596Y-125074500D01*
X129814303Y-125074500D01*
X129746182Y-125054498D01*
X129699689Y-125000842D01*
X129689585Y-124930568D01*
X129718369Y-124867543D01*
X129719152Y-124867037D01*
X129728723Y-124854897D01*
X129738002Y-124843126D01*
X129741499Y-124839191D01*
X129741395Y-124839103D01*
X129744750Y-124835144D01*
X129748428Y-124831466D01*
X129751447Y-124827241D01*
X129751454Y-124827233D01*
X129758672Y-124817132D01*
X129762236Y-124812385D01*
X129784946Y-124783577D01*
X129791392Y-124775401D01*
X129794193Y-124767425D01*
X129799111Y-124760543D01*
X129812619Y-124715376D01*
X129814441Y-124709770D01*
X129827428Y-124672789D01*
X129827429Y-124672783D01*
X129830055Y-124665306D01*
X129830500Y-124660168D01*
X129830500Y-124657449D01*
X129830595Y-124655267D01*
X129830755Y-124654732D01*
X129830782Y-124654733D01*
X129830789Y-124654615D01*
X129832544Y-124648748D01*
X129830597Y-124599193D01*
X129830500Y-124594246D01*
X129830500Y-123907372D01*
X129850502Y-123839251D01*
X129867405Y-123818277D01*
X130473277Y-123212405D01*
X130535589Y-123178379D01*
X130562372Y-123175500D01*
X131205056Y-123175500D01*
X131273177Y-123195502D01*
G37*
G04 #@! TD.AperFunction*
G04 #@! TA.AperFunction,Conductor*
G36*
X131273177Y-120595502D02*
G01*
X131319670Y-120649158D01*
X131325991Y-120666136D01*
X131334223Y-120694286D01*
X131336300Y-120701390D01*
X131340019Y-120709570D01*
X131392899Y-120825872D01*
X131395580Y-120831769D01*
X131397997Y-120835548D01*
X131420008Y-120869966D01*
X131426807Y-120880598D01*
X131429730Y-120883990D01*
X131429732Y-120883993D01*
X131502356Y-120968277D01*
X131520297Y-120989099D01*
X131523666Y-120992038D01*
X131523670Y-120992042D01*
X131530405Y-120997917D01*
X131563975Y-121027202D01*
X131567743Y-121029645D01*
X131567744Y-121029645D01*
X131575961Y-121034971D01*
X131684160Y-121105102D01*
X131736778Y-121129414D01*
X131741076Y-121130699D01*
X131741083Y-121130702D01*
X131851983Y-121163867D01*
X131873996Y-121170450D01*
X131931319Y-121179017D01*
X132001763Y-121179447D01*
X132070062Y-121179865D01*
X132070067Y-121179865D01*
X132074540Y-121179892D01*
X132077013Y-121179553D01*
X132080868Y-121179428D01*
X132507233Y-121179428D01*
X132549036Y-121171113D01*
X132573294Y-121166288D01*
X132573295Y-121166288D01*
X132585464Y-121163867D01*
X132595780Y-121156974D01*
X132607250Y-121152223D01*
X132608788Y-121155937D01*
X132654984Y-121141472D01*
X132705522Y-121156312D01*
X132707216Y-121152223D01*
X132718686Y-121156974D01*
X132729002Y-121163867D01*
X132741171Y-121166288D01*
X132741172Y-121166288D01*
X132765430Y-121171113D01*
X132807233Y-121179428D01*
X132830733Y-121179428D01*
X132898854Y-121199430D01*
X132945347Y-121253086D01*
X132956733Y-121305428D01*
X132956733Y-121744572D01*
X132936731Y-121812693D01*
X132883075Y-121859186D01*
X132830733Y-121870572D01*
X132807233Y-121870572D01*
X132801165Y-121871779D01*
X132741172Y-121883712D01*
X132741171Y-121883712D01*
X132729002Y-121886133D01*
X132718686Y-121893026D01*
X132707216Y-121897777D01*
X132705678Y-121894063D01*
X132659482Y-121908528D01*
X132608944Y-121893688D01*
X132607250Y-121897777D01*
X132595780Y-121893026D01*
X132585464Y-121886133D01*
X132573295Y-121883712D01*
X132573294Y-121883712D01*
X132513301Y-121871779D01*
X132507233Y-121870572D01*
X132017078Y-121870572D01*
X132014769Y-121870551D01*
X131953017Y-121869419D01*
X131948544Y-121869337D01*
X131928940Y-121871779D01*
X131895462Y-121875949D01*
X131895458Y-121875950D01*
X131891025Y-121876502D01*
X131752845Y-121914175D01*
X131748745Y-121915949D01*
X131748740Y-121915951D01*
X131703767Y-121935413D01*
X131703764Y-121935415D01*
X131699652Y-121937194D01*
X131577600Y-122012134D01*
X131574152Y-122014997D01*
X131574150Y-122014998D01*
X131552562Y-122032921D01*
X131533005Y-122049157D01*
X131436891Y-122155341D01*
X131404478Y-122203395D01*
X131342031Y-122332287D01*
X131334201Y-122356823D01*
X131324631Y-122386808D01*
X131284865Y-122445623D01*
X131219614Y-122473602D01*
X131204596Y-122474500D01*
X130415824Y-122474500D01*
X130396725Y-122472467D01*
X130391917Y-122472240D01*
X130381739Y-122470049D01*
X130351720Y-122473602D01*
X130351509Y-122473627D01*
X130346254Y-122473937D01*
X130346265Y-122474072D01*
X130341086Y-122474500D01*
X130335885Y-122474500D01*
X130330757Y-122475354D01*
X130330751Y-122475354D01*
X130318527Y-122477389D01*
X130312651Y-122478226D01*
X130276201Y-122482540D01*
X130276199Y-122482540D01*
X130265862Y-122483764D01*
X130258242Y-122487423D01*
X130249897Y-122488812D01*
X130208420Y-122511192D01*
X130203135Y-122513884D01*
X130160674Y-122534274D01*
X130156726Y-122537592D01*
X130154793Y-122539525D01*
X130153196Y-122540990D01*
X130152706Y-122541254D01*
X130152687Y-122541234D01*
X130152598Y-122541313D01*
X130147206Y-122544222D01*
X130140136Y-122551870D01*
X130140135Y-122551871D01*
X130113545Y-122580636D01*
X130110116Y-122584202D01*
X129545595Y-123148723D01*
X129483283Y-123182749D01*
X129412468Y-123177684D01*
X129355632Y-123135137D01*
X129330821Y-123068617D01*
X129330500Y-123059628D01*
X129330500Y-121957372D01*
X129350502Y-121889251D01*
X129367405Y-121868277D01*
X130623276Y-120612405D01*
X130685588Y-120578380D01*
X130712371Y-120575500D01*
X131205056Y-120575500D01*
X131273177Y-120595502D01*
G37*
G04 #@! TD.AperFunction*
G04 #@! TA.AperFunction,Conductor*
G36*
X115609012Y-116175859D02*
G01*
X115615595Y-116181988D01*
X120752595Y-121318988D01*
X120786621Y-121381300D01*
X120789500Y-121408083D01*
X120789500Y-122052159D01*
X120769498Y-122120280D01*
X120715842Y-122166773D01*
X120645568Y-122176877D01*
X120583186Y-122149245D01*
X120490275Y-122072382D01*
X120309055Y-121974397D01*
X120112254Y-121913477D01*
X120106129Y-121912833D01*
X120106128Y-121912833D01*
X119913498Y-121892587D01*
X119913496Y-121892587D01*
X119907369Y-121891943D01*
X119826988Y-121899258D01*
X119708342Y-121910055D01*
X119708339Y-121910056D01*
X119702203Y-121910614D01*
X119696296Y-121912352D01*
X119696288Y-121912354D01*
X119642929Y-121928059D01*
X119571932Y-121928105D01*
X119518258Y-121896281D01*
X115437405Y-117815428D01*
X115403379Y-117753116D01*
X115400500Y-117726333D01*
X115400500Y-116271083D01*
X115420502Y-116202962D01*
X115474158Y-116156469D01*
X115544432Y-116146365D01*
X115609012Y-116175859D01*
G37*
G04 #@! TD.AperFunction*
G04 #@! TA.AperFunction,Conductor*
G36*
X125998567Y-101211186D02*
G01*
X126028183Y-101275710D01*
X126029500Y-101293880D01*
X126029500Y-101822628D01*
X126009498Y-101890749D01*
X125992595Y-101911723D01*
X118188101Y-109716217D01*
X118173147Y-109728295D01*
X118169595Y-109731527D01*
X118160848Y-109737175D01*
X118154402Y-109745352D01*
X118141998Y-109761086D01*
X118138501Y-109765021D01*
X118138605Y-109765109D01*
X118135250Y-109769068D01*
X118131572Y-109772746D01*
X118128553Y-109776971D01*
X118128546Y-109776979D01*
X118121328Y-109787080D01*
X118117764Y-109791827D01*
X118088608Y-109828811D01*
X118085807Y-109836787D01*
X118080889Y-109843669D01*
X118067381Y-109888836D01*
X118065559Y-109894442D01*
X118052572Y-109931423D01*
X118052571Y-109931429D01*
X118049945Y-109938906D01*
X118049500Y-109944044D01*
X118049500Y-109946763D01*
X118049405Y-109948945D01*
X118049245Y-109949480D01*
X118049218Y-109949479D01*
X118049211Y-109949597D01*
X118047456Y-109955464D01*
X118048990Y-109994517D01*
X118049403Y-110005019D01*
X118049500Y-110009966D01*
X118049500Y-113849176D01*
X118047467Y-113868275D01*
X118047240Y-113873083D01*
X118045049Y-113883261D01*
X118046273Y-113893600D01*
X118048627Y-113913491D01*
X118048937Y-113918746D01*
X118049072Y-113918735D01*
X118049500Y-113923914D01*
X118049500Y-113929115D01*
X118050354Y-113934243D01*
X118050354Y-113934249D01*
X118052389Y-113946473D01*
X118053226Y-113952349D01*
X118054744Y-113965170D01*
X118058764Y-113999138D01*
X118062423Y-114006758D01*
X118063812Y-114015103D01*
X118083543Y-114051671D01*
X118086192Y-114056580D01*
X118088884Y-114061865D01*
X118109274Y-114104326D01*
X118112592Y-114108274D01*
X118114525Y-114110207D01*
X118115990Y-114111804D01*
X118116254Y-114112294D01*
X118116234Y-114112313D01*
X118116313Y-114112402D01*
X118119222Y-114117794D01*
X118126870Y-114124864D01*
X118126871Y-114124865D01*
X118155636Y-114151455D01*
X118159202Y-114154884D01*
X124592595Y-120588277D01*
X124626621Y-120650589D01*
X124629500Y-120677372D01*
X124629500Y-121771000D01*
X124609498Y-121839121D01*
X124555842Y-121885614D01*
X124503500Y-121897000D01*
X124326166Y-121897000D01*
X124308248Y-121898694D01*
X124302278Y-121899258D01*
X124302277Y-121899258D01*
X124294631Y-121899981D01*
X124287384Y-121902526D01*
X124283309Y-121903420D01*
X124212484Y-121898481D01*
X124155573Y-121856036D01*
X124131857Y-121800056D01*
X124130499Y-121791481D01*
X124130499Y-121781567D01*
X124127436Y-121772139D01*
X124127435Y-121772134D01*
X124123703Y-121760647D01*
X124119089Y-121741427D01*
X124117199Y-121729493D01*
X124117197Y-121729485D01*
X124115646Y-121719696D01*
X124111146Y-121710865D01*
X124111145Y-121710861D01*
X124105658Y-121700093D01*
X124098094Y-121681832D01*
X124091296Y-121660910D01*
X124078368Y-121643116D01*
X124068038Y-121626259D01*
X124062552Y-121615493D01*
X124062551Y-121615492D01*
X124058050Y-121606658D01*
X120715971Y-118264579D01*
X117437405Y-114986012D01*
X117403379Y-114923700D01*
X117400500Y-114896917D01*
X117400500Y-109218083D01*
X117420502Y-109149962D01*
X117437405Y-109128988D01*
X124937511Y-101628881D01*
X124999823Y-101594855D01*
X125016939Y-101592347D01*
X125177159Y-101580019D01*
X125177164Y-101580018D01*
X125183300Y-101579546D01*
X125189230Y-101577890D01*
X125189232Y-101577890D01*
X125375797Y-101525800D01*
X125375796Y-101525800D01*
X125381725Y-101524145D01*
X125387214Y-101521372D01*
X125387220Y-101521370D01*
X125539674Y-101444359D01*
X125565610Y-101431258D01*
X125727951Y-101304424D01*
X125732737Y-101298880D01*
X125808118Y-101211549D01*
X125867771Y-101173052D01*
X125938768Y-101172916D01*
X125998567Y-101211186D01*
G37*
G04 #@! TD.AperFunction*
G04 #@! TA.AperFunction,Conductor*
G36*
X134996121Y-113628502D02*
G01*
X135042614Y-113682158D01*
X135054000Y-113734500D01*
X135054000Y-114889885D01*
X135058475Y-114905124D01*
X135059865Y-114906329D01*
X135067548Y-114908000D01*
X135083766Y-114908000D01*
X135090282Y-114907663D01*
X135184132Y-114897925D01*
X135197528Y-114895032D01*
X135348953Y-114844512D01*
X135362115Y-114838347D01*
X135503718Y-114750721D01*
X135504810Y-114752486D01*
X135561050Y-114729725D01*
X135630814Y-114742898D01*
X135682381Y-114791697D01*
X135699500Y-114855108D01*
X135699500Y-115761917D01*
X135679498Y-115830038D01*
X135662595Y-115851013D01*
X135061011Y-116452596D01*
X134998699Y-116486621D01*
X134971916Y-116489500D01*
X133008083Y-116489500D01*
X132939962Y-116469498D01*
X132918988Y-116452595D01*
X132545895Y-116079502D01*
X132511869Y-116017190D01*
X132516934Y-115946375D01*
X132559481Y-115889539D01*
X132571990Y-115881288D01*
X132575569Y-115879222D01*
X132684248Y-115795829D01*
X132695828Y-115784250D01*
X132779223Y-115675566D01*
X132787410Y-115661385D01*
X132839833Y-115534825D01*
X132844072Y-115519005D01*
X132857462Y-115417300D01*
X132858000Y-115409092D01*
X132858000Y-115205615D01*
X132853525Y-115190376D01*
X132852135Y-115189171D01*
X132844452Y-115187500D01*
X132176000Y-115187500D01*
X132107879Y-115167498D01*
X132061386Y-115113842D01*
X132050000Y-115061500D01*
X132050000Y-115013500D01*
X132070002Y-114945379D01*
X132123658Y-114898886D01*
X132176000Y-114887500D01*
X132839885Y-114887500D01*
X132855124Y-114883025D01*
X132856329Y-114881635D01*
X132858000Y-114873952D01*
X132858000Y-114684000D01*
X132878002Y-114615879D01*
X132931658Y-114569386D01*
X132984000Y-114558000D01*
X133169385Y-114558000D01*
X133184624Y-114553525D01*
X133185829Y-114552135D01*
X133187500Y-114544452D01*
X133187500Y-114539885D01*
X133487500Y-114539885D01*
X133491975Y-114555124D01*
X133493365Y-114556329D01*
X133501048Y-114558000D01*
X133709092Y-114558000D01*
X133717300Y-114557462D01*
X133827194Y-114542994D01*
X133827448Y-114544920D01*
X133887760Y-114546351D01*
X133946559Y-114586140D01*
X133956550Y-114600068D01*
X133970430Y-114622498D01*
X133979457Y-114633887D01*
X134092129Y-114746363D01*
X134103540Y-114755375D01*
X134239063Y-114838912D01*
X134252241Y-114845056D01*
X134403766Y-114895315D01*
X134417132Y-114898181D01*
X134509770Y-114907672D01*
X134516185Y-114908000D01*
X134527885Y-114908000D01*
X134543124Y-114903525D01*
X134544329Y-114902135D01*
X134546000Y-114894452D01*
X134546000Y-114134615D01*
X134541525Y-114119376D01*
X134540135Y-114118171D01*
X134532452Y-114116500D01*
X133885529Y-114116500D01*
X133817408Y-114096498D01*
X133800545Y-114077036D01*
X133800486Y-114077104D01*
X133771135Y-114051671D01*
X133763452Y-114050000D01*
X133505615Y-114050000D01*
X133490376Y-114054475D01*
X133489171Y-114055865D01*
X133487500Y-114063548D01*
X133487500Y-114539885D01*
X133187500Y-114539885D01*
X133187500Y-113876000D01*
X133207502Y-113807879D01*
X133261158Y-113761386D01*
X133313500Y-113750000D01*
X133758885Y-113750000D01*
X133774124Y-113745525D01*
X133775329Y-113744135D01*
X133777000Y-113736452D01*
X133777000Y-113734500D01*
X133778638Y-113728920D01*
X133779879Y-113723217D01*
X133780287Y-113723306D01*
X133797002Y-113666379D01*
X133850658Y-113619886D01*
X133903000Y-113608500D01*
X134928000Y-113608500D01*
X134996121Y-113628502D01*
G37*
G04 #@! TD.AperFunction*
G04 #@! TA.AperFunction,Conductor*
G36*
X127600038Y-97170502D02*
G01*
X127621012Y-97187405D01*
X135662595Y-105228987D01*
X135696621Y-105291299D01*
X135699500Y-105318082D01*
X135699500Y-106033628D01*
X135679498Y-106101749D01*
X135625842Y-106148242D01*
X135555568Y-106158346D01*
X135490988Y-106128852D01*
X135469663Y-106104999D01*
X135420418Y-106033348D01*
X135408620Y-106022836D01*
X135299498Y-105925611D01*
X135299494Y-105925609D01*
X135293827Y-105920559D01*
X135143987Y-105841223D01*
X134979547Y-105799918D01*
X134971949Y-105799878D01*
X134971947Y-105799878D01*
X134894774Y-105799474D01*
X134810001Y-105799030D01*
X134802614Y-105800804D01*
X134802610Y-105800804D01*
X134659268Y-105835219D01*
X134645138Y-105838611D01*
X134638394Y-105842092D01*
X134638391Y-105842093D01*
X134633195Y-105844775D01*
X134494475Y-105916374D01*
X134366710Y-106027830D01*
X134269219Y-106166546D01*
X134207630Y-106324512D01*
X134185500Y-106492610D01*
X134204105Y-106661134D01*
X134262372Y-106820355D01*
X134356936Y-106961082D01*
X134362548Y-106966189D01*
X134362551Y-106966192D01*
X134476718Y-107070076D01*
X134476722Y-107070079D01*
X134482339Y-107075190D01*
X134489012Y-107078813D01*
X134489016Y-107078816D01*
X134624664Y-107152466D01*
X134624666Y-107152467D01*
X134631341Y-107156091D01*
X134638690Y-107158019D01*
X134787989Y-107197187D01*
X134787991Y-107197187D01*
X134795339Y-107199115D01*
X134881408Y-107200467D01*
X134957267Y-107201659D01*
X134957270Y-107201659D01*
X134964866Y-107201778D01*
X134972270Y-107200082D01*
X134972272Y-107200082D01*
X135062137Y-107179500D01*
X135133003Y-107183789D01*
X135179361Y-107213225D01*
X135262595Y-107296459D01*
X135296621Y-107358771D01*
X135299500Y-107385554D01*
X135299500Y-107574200D01*
X135279498Y-107642321D01*
X135225842Y-107688814D01*
X135160657Y-107699544D01*
X135090230Y-107692328D01*
X135083815Y-107692000D01*
X135072115Y-107692000D01*
X135056876Y-107696475D01*
X135055671Y-107697865D01*
X135054000Y-107705548D01*
X135054000Y-108865500D01*
X135033998Y-108933621D01*
X134980342Y-108980114D01*
X134928000Y-108991500D01*
X134672000Y-108991500D01*
X134603879Y-108971498D01*
X134557386Y-108917842D01*
X134546000Y-108865500D01*
X134546000Y-107710115D01*
X134541525Y-107694876D01*
X134540135Y-107693671D01*
X134532452Y-107692000D01*
X134516234Y-107692000D01*
X134509718Y-107692337D01*
X134415868Y-107702075D01*
X134402472Y-107704968D01*
X134326376Y-107730356D01*
X134255427Y-107732940D01*
X134194343Y-107696757D01*
X134162518Y-107633293D01*
X134160500Y-107610832D01*
X134160500Y-107360824D01*
X134162533Y-107341725D01*
X134162760Y-107336917D01*
X134164951Y-107326739D01*
X134161373Y-107296509D01*
X134161063Y-107291254D01*
X134160928Y-107291265D01*
X134160500Y-107286087D01*
X134160500Y-107280885D01*
X134157609Y-107263515D01*
X134156773Y-107257644D01*
X134152460Y-107221205D01*
X134151236Y-107210861D01*
X134147577Y-107203241D01*
X134146188Y-107194897D01*
X134140195Y-107183789D01*
X134123819Y-107153441D01*
X134121122Y-107148150D01*
X134104153Y-107112811D01*
X134100726Y-107105674D01*
X134097408Y-107101726D01*
X134095469Y-107099787D01*
X134094010Y-107098196D01*
X134093746Y-107097706D01*
X134093766Y-107097687D01*
X134093687Y-107097598D01*
X134090778Y-107092206D01*
X134072371Y-107075190D01*
X134054364Y-107058545D01*
X134050798Y-107055116D01*
X128783783Y-101788101D01*
X128771705Y-101773147D01*
X128768473Y-101769595D01*
X128762825Y-101760848D01*
X128738914Y-101741998D01*
X128734979Y-101738501D01*
X128734891Y-101738605D01*
X128730932Y-101735250D01*
X128727254Y-101731572D01*
X128723029Y-101728553D01*
X128723021Y-101728546D01*
X128712920Y-101721328D01*
X128708173Y-101717764D01*
X128695109Y-101707465D01*
X128671189Y-101688608D01*
X128663213Y-101685807D01*
X128656331Y-101680889D01*
X128611164Y-101667381D01*
X128605558Y-101665559D01*
X128568577Y-101652572D01*
X128568571Y-101652571D01*
X128561094Y-101649945D01*
X128555956Y-101649500D01*
X128553237Y-101649500D01*
X128551055Y-101649405D01*
X128550520Y-101649245D01*
X128550521Y-101649218D01*
X128550403Y-101649211D01*
X128544536Y-101647456D01*
X128494981Y-101649403D01*
X128490034Y-101649500D01*
X126856500Y-101649500D01*
X126788379Y-101629498D01*
X126741886Y-101575842D01*
X126730500Y-101523500D01*
X126730500Y-99430826D01*
X126732533Y-99411727D01*
X126732760Y-99406923D01*
X126734952Y-99396740D01*
X126733728Y-99386398D01*
X126733728Y-99386395D01*
X126731374Y-99366512D01*
X126731064Y-99361253D01*
X126730928Y-99361264D01*
X126730500Y-99356087D01*
X126730500Y-99350885D01*
X126727610Y-99333521D01*
X126726774Y-99327651D01*
X126722460Y-99291201D01*
X126722460Y-99291199D01*
X126721236Y-99280862D01*
X126717577Y-99273242D01*
X126716188Y-99264897D01*
X126693806Y-99223416D01*
X126691113Y-99218130D01*
X126675891Y-99186431D01*
X126670726Y-99175674D01*
X126667408Y-99171726D01*
X126665475Y-99169793D01*
X126664010Y-99168196D01*
X126663746Y-99167706D01*
X126663766Y-99167687D01*
X126663687Y-99167598D01*
X126660778Y-99162206D01*
X126642266Y-99145093D01*
X126624364Y-99128545D01*
X126620798Y-99125116D01*
X126087405Y-98591723D01*
X126053379Y-98529411D01*
X126050500Y-98502628D01*
X126050500Y-97346166D01*
X126047519Y-97314631D01*
X126044976Y-97307390D01*
X126044123Y-97303501D01*
X126049063Y-97232676D01*
X126091509Y-97175765D01*
X126157985Y-97150837D01*
X126167196Y-97150500D01*
X127531917Y-97150500D01*
X127600038Y-97170502D01*
G37*
G04 #@! TD.AperFunction*
G04 #@! TA.AperFunction,Conductor*
G36*
X135241621Y-109820002D02*
G01*
X135288114Y-109873658D01*
X135299500Y-109926000D01*
X135299500Y-112548500D01*
X135279498Y-112616621D01*
X135225842Y-112663114D01*
X135173500Y-112674500D01*
X134381991Y-112674500D01*
X134313870Y-112654498D01*
X134292896Y-112637595D01*
X134079849Y-112424548D01*
X134078093Y-112422514D01*
X134075755Y-112417731D01*
X134039853Y-112384427D01*
X134036448Y-112381147D01*
X134023053Y-112367752D01*
X134019083Y-112365028D01*
X134016435Y-112362703D01*
X134002211Y-112349508D01*
X134002208Y-112349506D01*
X133993684Y-112341599D01*
X133982880Y-112337289D01*
X133978891Y-112334767D01*
X133968103Y-112329006D01*
X133963778Y-112327089D01*
X133954184Y-112320508D01*
X133942865Y-112317822D01*
X133942863Y-112317821D01*
X133930203Y-112314817D01*
X133912606Y-112309252D01*
X133897968Y-112303412D01*
X133897965Y-112303411D01*
X133889708Y-112300117D01*
X133883415Y-112299500D01*
X133880336Y-112299500D01*
X133877263Y-112299350D01*
X133877274Y-112299134D01*
X133865889Y-112297801D01*
X133862925Y-112297656D01*
X133861979Y-112297344D01*
X133851311Y-112296095D01*
X133845264Y-112294660D01*
X133845888Y-112292029D01*
X133799089Y-112276572D01*
X133792817Y-112272381D01*
X133792813Y-112272379D01*
X133782495Y-112265485D01*
X133702133Y-112249500D01*
X133337530Y-112249500D01*
X132972868Y-112249501D01*
X132966794Y-112250709D01*
X132966795Y-112250709D01*
X132950579Y-112253934D01*
X132879866Y-112247605D01*
X132823799Y-112204050D01*
X132800000Y-112130355D01*
X132800000Y-110114568D01*
X132820002Y-110046447D01*
X132834658Y-110029112D01*
X132836652Y-110027825D01*
X132855505Y-110003910D01*
X132858998Y-109999980D01*
X132858894Y-109999892D01*
X132862253Y-109995928D01*
X132865928Y-109992253D01*
X132876156Y-109977941D01*
X132879719Y-109973195D01*
X132902447Y-109944364D01*
X132908892Y-109936189D01*
X132911693Y-109928213D01*
X132916611Y-109921331D01*
X132923681Y-109897691D01*
X132955303Y-109844697D01*
X132963095Y-109836905D01*
X133025407Y-109802879D01*
X133052190Y-109800000D01*
X135173500Y-109800000D01*
X135241621Y-109820002D01*
G37*
G04 #@! TD.AperFunction*
M02*
