G04 #@! TF.GenerationSoftware,KiCad,Pcbnew,6.0.10-86aedd382b~118~ubuntu20.04.1*
G04 #@! TF.CreationDate,2023-01-08T02:49:30+01:00*
G04 #@! TF.ProjectId,TempExt,54656d70-4578-4742-9e6b-696361645f70,rev?*
G04 #@! TF.SameCoordinates,Original*
G04 #@! TF.FileFunction,Legend,Bot*
G04 #@! TF.FilePolarity,Positive*
%FSLAX46Y46*%
G04 Gerber Fmt 4.6, Leading zero omitted, Abs format (unit mm)*
G04 Created by KiCad (PCBNEW 6.0.10-86aedd382b~118~ubuntu20.04.1) date 2023-01-08 02:49:30*
%MOMM*%
%LPD*%
G01*
G04 APERTURE LIST*
G04 Aperture macros list*
%AMRoundRect*
0 Rectangle with rounded corners*
0 $1 Rounding radius*
0 $2 $3 $4 $5 $6 $7 $8 $9 X,Y pos of 4 corners*
0 Add a 4 corners polygon primitive as box body*
4,1,4,$2,$3,$4,$5,$6,$7,$8,$9,$2,$3,0*
0 Add four circle primitives for the rounded corners*
1,1,$1+$1,$2,$3*
1,1,$1+$1,$4,$5*
1,1,$1+$1,$6,$7*
1,1,$1+$1,$8,$9*
0 Add four rect primitives between the rounded corners*
20,1,$1+$1,$2,$3,$4,$5,0*
20,1,$1+$1,$4,$5,$6,$7,0*
20,1,$1+$1,$6,$7,$8,$9,0*
20,1,$1+$1,$8,$9,$2,$3,0*%
G04 Aperture macros list end*
%ADD10C,0.200000*%
%ADD11C,0.150000*%
%ADD12C,0.010000*%
%ADD13C,0.120000*%
%ADD14C,1.000000*%
%ADD15C,2.500000*%
%ADD16RoundRect,0.250000X-0.600000X0.600000X-0.600000X-0.600000X0.600000X-0.600000X0.600000X0.600000X0*%
%ADD17C,1.700000*%
%ADD18C,2.100000*%
G04 APERTURE END LIST*
D10*
X110178571Y-105607142D02*
X110178571Y-106464285D01*
X111678571Y-106035714D02*
X110178571Y-106035714D01*
X111607142Y-107535714D02*
X111678571Y-107392857D01*
X111678571Y-107107142D01*
X111607142Y-106964285D01*
X111464285Y-106892857D01*
X110892857Y-106892857D01*
X110750000Y-106964285D01*
X110678571Y-107107142D01*
X110678571Y-107392857D01*
X110750000Y-107535714D01*
X110892857Y-107607142D01*
X111035714Y-107607142D01*
X111178571Y-106892857D01*
X111678571Y-108250000D02*
X110678571Y-108250000D01*
X110821428Y-108250000D02*
X110750000Y-108321428D01*
X110678571Y-108464285D01*
X110678571Y-108678571D01*
X110750000Y-108821428D01*
X110892857Y-108892857D01*
X111678571Y-108892857D01*
X110892857Y-108892857D02*
X110750000Y-108964285D01*
X110678571Y-109107142D01*
X110678571Y-109321428D01*
X110750000Y-109464285D01*
X110892857Y-109535714D01*
X111678571Y-109535714D01*
X110678571Y-110250000D02*
X112178571Y-110250000D01*
X110750000Y-110250000D02*
X110678571Y-110392857D01*
X110678571Y-110678571D01*
X110750000Y-110821428D01*
X110821428Y-110892857D01*
X110964285Y-110964285D01*
X111392857Y-110964285D01*
X111535714Y-110892857D01*
X111607142Y-110821428D01*
X111678571Y-110678571D01*
X111678571Y-110392857D01*
X111607142Y-110250000D01*
X110892857Y-111607142D02*
X110892857Y-112107142D01*
X111678571Y-112321428D02*
X111678571Y-111607142D01*
X110178571Y-111607142D01*
X110178571Y-112321428D01*
X111678571Y-112821428D02*
X110678571Y-113607142D01*
X110678571Y-112821428D02*
X111678571Y-113607142D01*
X110678571Y-113964285D02*
X110678571Y-114535714D01*
X110178571Y-114178571D02*
X111464285Y-114178571D01*
X111607142Y-114250000D01*
X111678571Y-114392857D01*
X111678571Y-114535714D01*
X110178571Y-115964285D02*
X111678571Y-116464285D01*
X110178571Y-116964285D01*
X111678571Y-118250000D02*
X111678571Y-117392857D01*
X111678571Y-117821428D02*
X110178571Y-117821428D01*
X110392857Y-117678571D01*
X110535714Y-117535714D01*
X110607142Y-117392857D01*
D11*
X113500000Y-104547619D02*
X113452380Y-104452380D01*
X113452380Y-104309523D01*
X113500000Y-104166666D01*
X113595238Y-104071428D01*
X113690476Y-104023809D01*
X113880952Y-103976190D01*
X114023809Y-103976190D01*
X114214285Y-104023809D01*
X114309523Y-104071428D01*
X114404761Y-104166666D01*
X114452380Y-104309523D01*
X114452380Y-104404761D01*
X114404761Y-104547619D01*
X114357142Y-104595238D01*
X114023809Y-104595238D01*
X114023809Y-104404761D01*
X114404761Y-105404761D02*
X114452380Y-105309523D01*
X114452380Y-105119047D01*
X114404761Y-105023809D01*
X114309523Y-104976190D01*
X113928571Y-104976190D01*
X113833333Y-105023809D01*
X113785714Y-105119047D01*
X113785714Y-105309523D01*
X113833333Y-105404761D01*
X113928571Y-105452380D01*
X114023809Y-105452380D01*
X114119047Y-104976190D01*
X114452380Y-106023809D02*
X114404761Y-105928571D01*
X114357142Y-105880952D01*
X114261904Y-105833333D01*
X113976190Y-105833333D01*
X113880952Y-105880952D01*
X113833333Y-105928571D01*
X113785714Y-106023809D01*
X113785714Y-106166666D01*
X113833333Y-106261904D01*
X113880952Y-106309523D01*
X113976190Y-106357142D01*
X114261904Y-106357142D01*
X114357142Y-106309523D01*
X114404761Y-106261904D01*
X114452380Y-106166666D01*
X114452380Y-106023809D01*
X114452380Y-106785714D02*
X113785714Y-106785714D01*
X113976190Y-106785714D02*
X113880952Y-106833333D01*
X113833333Y-106880952D01*
X113785714Y-106976190D01*
X113785714Y-107071428D01*
X113785714Y-107833333D02*
X114595238Y-107833333D01*
X114690476Y-107785714D01*
X114738095Y-107738095D01*
X114785714Y-107642857D01*
X114785714Y-107500000D01*
X114738095Y-107404761D01*
X114404761Y-107833333D02*
X114452380Y-107738095D01*
X114452380Y-107547619D01*
X114404761Y-107452380D01*
X114357142Y-107404761D01*
X114261904Y-107357142D01*
X113976190Y-107357142D01*
X113880952Y-107404761D01*
X113833333Y-107452380D01*
X113785714Y-107547619D01*
X113785714Y-107738095D01*
X113833333Y-107833333D01*
X114452380Y-109071428D02*
X113452380Y-109071428D01*
X114166666Y-109404761D01*
X113452380Y-109738095D01*
X114452380Y-109738095D01*
X114452380Y-110214285D02*
X113785714Y-110214285D01*
X113452380Y-110214285D02*
X113500000Y-110166666D01*
X113547619Y-110214285D01*
X113500000Y-110261904D01*
X113452380Y-110214285D01*
X113547619Y-110214285D01*
X114452380Y-110690476D02*
X113452380Y-110690476D01*
X114071428Y-110785714D02*
X114452380Y-111071428D01*
X113785714Y-111071428D02*
X114166666Y-110690476D01*
X113785714Y-111928571D02*
X114452380Y-111928571D01*
X113785714Y-111500000D02*
X114309523Y-111500000D01*
X114404761Y-111547619D01*
X114452380Y-111642857D01*
X114452380Y-111785714D01*
X114404761Y-111880952D01*
X114357142Y-111928571D01*
X114452380Y-112547619D02*
X114404761Y-112452380D01*
X114309523Y-112404761D01*
X113452380Y-112404761D01*
X114452380Y-113357142D02*
X113928571Y-113357142D01*
X113833333Y-113309523D01*
X113785714Y-113214285D01*
X113785714Y-113023809D01*
X113833333Y-112928571D01*
X114404761Y-113357142D02*
X114452380Y-113261904D01*
X114452380Y-113023809D01*
X114404761Y-112928571D01*
X114309523Y-112880952D01*
X114214285Y-112880952D01*
X114119047Y-112928571D01*
X114071428Y-113023809D01*
X114071428Y-113261904D01*
X114023809Y-113357142D01*
X113452380Y-114785714D02*
X113452380Y-114880952D01*
X113500000Y-114976190D01*
X113547619Y-115023809D01*
X113642857Y-115071428D01*
X113833333Y-115119047D01*
X114071428Y-115119047D01*
X114261904Y-115071428D01*
X114357142Y-115023809D01*
X114404761Y-114976190D01*
X114452380Y-114880952D01*
X114452380Y-114785714D01*
X114404761Y-114690476D01*
X114357142Y-114642857D01*
X114261904Y-114595238D01*
X114071428Y-114547619D01*
X113833333Y-114547619D01*
X113642857Y-114595238D01*
X113547619Y-114642857D01*
X113500000Y-114690476D01*
X113452380Y-114785714D01*
X114452380Y-116071428D02*
X114452380Y-115500000D01*
X114452380Y-115785714D02*
X113452380Y-115785714D01*
X113595238Y-115690476D01*
X113690476Y-115595238D01*
X113738095Y-115500000D01*
X113404761Y-117214285D02*
X114690476Y-116357142D01*
X113547619Y-117500000D02*
X113500000Y-117547619D01*
X113452380Y-117642857D01*
X113452380Y-117880952D01*
X113500000Y-117976190D01*
X113547619Y-118023809D01*
X113642857Y-118071428D01*
X113738095Y-118071428D01*
X113880952Y-118023809D01*
X114452380Y-117452380D01*
X114452380Y-118071428D01*
X113452380Y-118404761D02*
X113452380Y-119023809D01*
X113833333Y-118690476D01*
X113833333Y-118833333D01*
X113880952Y-118928571D01*
X113928571Y-118976190D01*
X114023809Y-119023809D01*
X114261904Y-119023809D01*
X114357142Y-118976190D01*
X114404761Y-118928571D01*
X114452380Y-118833333D01*
X114452380Y-118547619D01*
X114404761Y-118452380D01*
X114357142Y-118404761D01*
G36*
X136049818Y-117705714D02*
G01*
X136045453Y-117775808D01*
X136031077Y-117815273D01*
X136015108Y-117818560D01*
X135919801Y-117839642D01*
X135743987Y-117879053D01*
X135493751Y-117935415D01*
X135175178Y-118007352D01*
X134794353Y-118093486D01*
X134357362Y-118192438D01*
X133870290Y-118302832D01*
X133339223Y-118423290D01*
X132770245Y-118552435D01*
X132169443Y-118688888D01*
X131542900Y-118831273D01*
X131192443Y-118910885D01*
X130577360Y-119050342D01*
X129990406Y-119183084D01*
X129437774Y-119307725D01*
X128925653Y-119422884D01*
X128460238Y-119527177D01*
X128047719Y-119619220D01*
X127694289Y-119697630D01*
X127406140Y-119761024D01*
X127189463Y-119808018D01*
X127050451Y-119837228D01*
X126995296Y-119847273D01*
X126949456Y-119838623D01*
X126862640Y-119781619D01*
X126842195Y-119756079D01*
X126823799Y-119726126D01*
X126818562Y-119697564D01*
X126831630Y-119669018D01*
X126868148Y-119639113D01*
X126933262Y-119606474D01*
X127032116Y-119569727D01*
X127169856Y-119527496D01*
X127351628Y-119478407D01*
X127582576Y-119421084D01*
X127867846Y-119354153D01*
X128212583Y-119276238D01*
X128621933Y-119185965D01*
X129101040Y-119081959D01*
X129655051Y-118962845D01*
X130289110Y-118827248D01*
X131008363Y-118673793D01*
X131572381Y-118553495D01*
X132169326Y-118426150D01*
X132742241Y-118303904D01*
X133283761Y-118188333D01*
X133786516Y-118081008D01*
X134243141Y-117983504D01*
X134646268Y-117897392D01*
X134988530Y-117824247D01*
X135262560Y-117765641D01*
X135460990Y-117723148D01*
X135576454Y-117698340D01*
X136049818Y-117596155D01*
X136049818Y-117705714D01*
G37*
D12*
X136049818Y-117705714D02*
X136045453Y-117775808D01*
X136031077Y-117815273D01*
X136015108Y-117818560D01*
X135919801Y-117839642D01*
X135743987Y-117879053D01*
X135493751Y-117935415D01*
X135175178Y-118007352D01*
X134794353Y-118093486D01*
X134357362Y-118192438D01*
X133870290Y-118302832D01*
X133339223Y-118423290D01*
X132770245Y-118552435D01*
X132169443Y-118688888D01*
X131542900Y-118831273D01*
X131192443Y-118910885D01*
X130577360Y-119050342D01*
X129990406Y-119183084D01*
X129437774Y-119307725D01*
X128925653Y-119422884D01*
X128460238Y-119527177D01*
X128047719Y-119619220D01*
X127694289Y-119697630D01*
X127406140Y-119761024D01*
X127189463Y-119808018D01*
X127050451Y-119837228D01*
X126995296Y-119847273D01*
X126949456Y-119838623D01*
X126862640Y-119781619D01*
X126842195Y-119756079D01*
X126823799Y-119726126D01*
X126818562Y-119697564D01*
X126831630Y-119669018D01*
X126868148Y-119639113D01*
X126933262Y-119606474D01*
X127032116Y-119569727D01*
X127169856Y-119527496D01*
X127351628Y-119478407D01*
X127582576Y-119421084D01*
X127867846Y-119354153D01*
X128212583Y-119276238D01*
X128621933Y-119185965D01*
X129101040Y-119081959D01*
X129655051Y-118962845D01*
X130289110Y-118827248D01*
X131008363Y-118673793D01*
X131572381Y-118553495D01*
X132169326Y-118426150D01*
X132742241Y-118303904D01*
X133283761Y-118188333D01*
X133786516Y-118081008D01*
X134243141Y-117983504D01*
X134646268Y-117897392D01*
X134988530Y-117824247D01*
X135262560Y-117765641D01*
X135460990Y-117723148D01*
X135576454Y-117698340D01*
X136049818Y-117596155D01*
X136049818Y-117705714D01*
G36*
X131691749Y-118981907D02*
G01*
X131738892Y-119029717D01*
X131753918Y-119137529D01*
X131754909Y-119319294D01*
X131754998Y-119368075D01*
X131758499Y-119526438D01*
X131770257Y-119613799D01*
X131794568Y-119647453D01*
X131835727Y-119644697D01*
X131850454Y-119640585D01*
X131953601Y-119615320D01*
X132120035Y-119577137D01*
X132332708Y-119529704D01*
X132574571Y-119476692D01*
X132828575Y-119421769D01*
X133077672Y-119368604D01*
X133304815Y-119320866D01*
X133492953Y-119282225D01*
X133625039Y-119256350D01*
X133684025Y-119246909D01*
X133705060Y-119264754D01*
X133728653Y-119350894D01*
X133741286Y-119484312D01*
X133742998Y-119637991D01*
X133733828Y-119784919D01*
X133713815Y-119898081D01*
X133683000Y-119950463D01*
X133675673Y-119952683D01*
X133594412Y-119972548D01*
X133440814Y-120007588D01*
X133229289Y-120054594D01*
X132974245Y-120110356D01*
X132690091Y-120171663D01*
X131754909Y-120372154D01*
X131754909Y-120732288D01*
X131754266Y-120878152D01*
X131747986Y-121002048D01*
X131729329Y-121070045D01*
X131691551Y-121102777D01*
X131627909Y-121120875D01*
X131627051Y-121121067D01*
X131490094Y-121153299D01*
X131339273Y-121190770D01*
X131319708Y-121195725D01*
X131207244Y-121221734D01*
X131143000Y-121232470D01*
X131136871Y-121215483D01*
X131127703Y-121120968D01*
X131119858Y-120954758D01*
X131113746Y-120729640D01*
X131109778Y-120458402D01*
X131108364Y-120153830D01*
X131108364Y-119074933D01*
X131370066Y-119022376D01*
X131428796Y-119010495D01*
X131594411Y-118980149D01*
X131691749Y-118981907D01*
G37*
X131691749Y-118981907D02*
X131738892Y-119029717D01*
X131753918Y-119137529D01*
X131754909Y-119319294D01*
X131754998Y-119368075D01*
X131758499Y-119526438D01*
X131770257Y-119613799D01*
X131794568Y-119647453D01*
X131835727Y-119644697D01*
X131850454Y-119640585D01*
X131953601Y-119615320D01*
X132120035Y-119577137D01*
X132332708Y-119529704D01*
X132574571Y-119476692D01*
X132828575Y-119421769D01*
X133077672Y-119368604D01*
X133304815Y-119320866D01*
X133492953Y-119282225D01*
X133625039Y-119256350D01*
X133684025Y-119246909D01*
X133705060Y-119264754D01*
X133728653Y-119350894D01*
X133741286Y-119484312D01*
X133742998Y-119637991D01*
X133733828Y-119784919D01*
X133713815Y-119898081D01*
X133683000Y-119950463D01*
X133675673Y-119952683D01*
X133594412Y-119972548D01*
X133440814Y-120007588D01*
X133229289Y-120054594D01*
X132974245Y-120110356D01*
X132690091Y-120171663D01*
X131754909Y-120372154D01*
X131754909Y-120732288D01*
X131754266Y-120878152D01*
X131747986Y-121002048D01*
X131729329Y-121070045D01*
X131691551Y-121102777D01*
X131627909Y-121120875D01*
X131627051Y-121121067D01*
X131490094Y-121153299D01*
X131339273Y-121190770D01*
X131319708Y-121195725D01*
X131207244Y-121221734D01*
X131143000Y-121232470D01*
X131136871Y-121215483D01*
X131127703Y-121120968D01*
X131119858Y-120954758D01*
X131113746Y-120729640D01*
X131109778Y-120458402D01*
X131108364Y-120153830D01*
X131108364Y-119074933D01*
X131370066Y-119022376D01*
X131428796Y-119010495D01*
X131594411Y-118980149D01*
X131691749Y-118981907D01*
G36*
X133197037Y-123141367D02*
G01*
X133385977Y-123026913D01*
X133516919Y-122946432D01*
X133579091Y-122906411D01*
X133630385Y-122867629D01*
X133635166Y-122849489D01*
X133556000Y-122863072D01*
X133435827Y-122887932D01*
X133290454Y-122917907D01*
X133140364Y-122948793D01*
X133140364Y-121736542D01*
X132967182Y-121767791D01*
X132939702Y-121772915D01*
X132824060Y-121798316D01*
X132759364Y-121818791D01*
X132757415Y-121820833D01*
X132744650Y-121883530D01*
X132734264Y-122017960D01*
X132727282Y-122206071D01*
X132724727Y-122429805D01*
X132724727Y-123021067D01*
X132463025Y-123073625D01*
X132349451Y-123095713D01*
X132226099Y-123117680D01*
X132162843Y-123126182D01*
X132161180Y-123125646D01*
X132146821Y-123073443D01*
X132135122Y-122948263D01*
X132127247Y-122767590D01*
X132124364Y-122548909D01*
X132124326Y-122523954D01*
X132120672Y-122308542D01*
X132111909Y-122133029D01*
X132099262Y-122014899D01*
X132083954Y-121971637D01*
X132083575Y-121971638D01*
X132012458Y-121980203D01*
X131899227Y-122000500D01*
X131754909Y-122029364D01*
X131754909Y-123258179D01*
X131490549Y-123313060D01*
X131375343Y-123337920D01*
X131242576Y-123369252D01*
X131167276Y-123390548D01*
X131165254Y-123391193D01*
X131145433Y-123377385D01*
X131130528Y-123318352D01*
X131119954Y-123204672D01*
X131113125Y-123026920D01*
X131109456Y-122775673D01*
X131108364Y-122441508D01*
X131108380Y-122372167D01*
X131109227Y-122063629D01*
X131112048Y-121833409D01*
X131117797Y-121669732D01*
X131127430Y-121560820D01*
X131141902Y-121494898D01*
X131162168Y-121460190D01*
X131189182Y-121444921D01*
X131193064Y-121443759D01*
X131279494Y-121421915D01*
X131436534Y-121385452D01*
X131649567Y-121337518D01*
X131903979Y-121281263D01*
X132185152Y-121219834D01*
X132478470Y-121156380D01*
X132769316Y-121094049D01*
X133043076Y-121035992D01*
X133285131Y-120985355D01*
X133480866Y-120945287D01*
X133615665Y-120918938D01*
X133674912Y-120909455D01*
X133694203Y-120920015D01*
X133709312Y-120958104D01*
X133720468Y-121032982D01*
X133728043Y-121153910D01*
X133732408Y-121330146D01*
X133733934Y-121570951D01*
X133732991Y-121885583D01*
X133729951Y-122283304D01*
X133717636Y-123657153D01*
X133544579Y-123749576D01*
X133371522Y-123842000D01*
X133371397Y-124355643D01*
X133371273Y-124869286D01*
X133740727Y-124928364D01*
X133740727Y-125673521D01*
X133613727Y-125647017D01*
X133586065Y-125641782D01*
X133467028Y-125621437D01*
X133278687Y-125590603D01*
X133036021Y-125551693D01*
X132754010Y-125507117D01*
X132447636Y-125459288D01*
X132305833Y-125437262D01*
X132006142Y-125390557D01*
X131736168Y-125348278D01*
X131511302Y-125312846D01*
X131346934Y-125286684D01*
X131258454Y-125272212D01*
X131108364Y-125246360D01*
X131108364Y-124708228D01*
X131877809Y-124708228D01*
X131881775Y-124710029D01*
X131955149Y-124725512D01*
X132090843Y-124744039D01*
X132262909Y-124761985D01*
X132281925Y-124763733D01*
X132460024Y-124782407D01*
X132606086Y-124801539D01*
X132690091Y-124817247D01*
X132693656Y-124818268D01*
X132734559Y-124818796D01*
X132757911Y-124780204D01*
X132768449Y-124684764D01*
X132770909Y-124514749D01*
X132770891Y-124499327D01*
X132768508Y-124342073D01*
X132762889Y-124230667D01*
X132755158Y-124188364D01*
X132753368Y-124188481D01*
X132693352Y-124212601D01*
X132581216Y-124270907D01*
X132435958Y-124352142D01*
X132276578Y-124445048D01*
X132122074Y-124538368D01*
X131991445Y-124620842D01*
X131903690Y-124681215D01*
X131877809Y-124708228D01*
X131108364Y-124708228D01*
X131108364Y-124383222D01*
X132297545Y-123678461D01*
X132389936Y-123623668D01*
X132688245Y-123446233D01*
X132755158Y-123406243D01*
X132960869Y-123283303D01*
X133197037Y-123141367D01*
G37*
X133197037Y-123141367D02*
X133385977Y-123026913D01*
X133516919Y-122946432D01*
X133579091Y-122906411D01*
X133630385Y-122867629D01*
X133635166Y-122849489D01*
X133556000Y-122863072D01*
X133435827Y-122887932D01*
X133290454Y-122917907D01*
X133140364Y-122948793D01*
X133140364Y-121736542D01*
X132967182Y-121767791D01*
X132939702Y-121772915D01*
X132824060Y-121798316D01*
X132759364Y-121818791D01*
X132757415Y-121820833D01*
X132744650Y-121883530D01*
X132734264Y-122017960D01*
X132727282Y-122206071D01*
X132724727Y-122429805D01*
X132724727Y-123021067D01*
X132463025Y-123073625D01*
X132349451Y-123095713D01*
X132226099Y-123117680D01*
X132162843Y-123126182D01*
X132161180Y-123125646D01*
X132146821Y-123073443D01*
X132135122Y-122948263D01*
X132127247Y-122767590D01*
X132124364Y-122548909D01*
X132124326Y-122523954D01*
X132120672Y-122308542D01*
X132111909Y-122133029D01*
X132099262Y-122014899D01*
X132083954Y-121971637D01*
X132083575Y-121971638D01*
X132012458Y-121980203D01*
X131899227Y-122000500D01*
X131754909Y-122029364D01*
X131754909Y-123258179D01*
X131490549Y-123313060D01*
X131375343Y-123337920D01*
X131242576Y-123369252D01*
X131167276Y-123390548D01*
X131165254Y-123391193D01*
X131145433Y-123377385D01*
X131130528Y-123318352D01*
X131119954Y-123204672D01*
X131113125Y-123026920D01*
X131109456Y-122775673D01*
X131108364Y-122441508D01*
X131108380Y-122372167D01*
X131109227Y-122063629D01*
X131112048Y-121833409D01*
X131117797Y-121669732D01*
X131127430Y-121560820D01*
X131141902Y-121494898D01*
X131162168Y-121460190D01*
X131189182Y-121444921D01*
X131193064Y-121443759D01*
X131279494Y-121421915D01*
X131436534Y-121385452D01*
X131649567Y-121337518D01*
X131903979Y-121281263D01*
X132185152Y-121219834D01*
X132478470Y-121156380D01*
X132769316Y-121094049D01*
X133043076Y-121035992D01*
X133285131Y-120985355D01*
X133480866Y-120945287D01*
X133615665Y-120918938D01*
X133674912Y-120909455D01*
X133694203Y-120920015D01*
X133709312Y-120958104D01*
X133720468Y-121032982D01*
X133728043Y-121153910D01*
X133732408Y-121330146D01*
X133733934Y-121570951D01*
X133732991Y-121885583D01*
X133729951Y-122283304D01*
X133717636Y-123657153D01*
X133544579Y-123749576D01*
X133371522Y-123842000D01*
X133371397Y-124355643D01*
X133371273Y-124869286D01*
X133740727Y-124928364D01*
X133740727Y-125673521D01*
X133613727Y-125647017D01*
X133586065Y-125641782D01*
X133467028Y-125621437D01*
X133278687Y-125590603D01*
X133036021Y-125551693D01*
X132754010Y-125507117D01*
X132447636Y-125459288D01*
X132305833Y-125437262D01*
X132006142Y-125390557D01*
X131736168Y-125348278D01*
X131511302Y-125312846D01*
X131346934Y-125286684D01*
X131258454Y-125272212D01*
X131108364Y-125246360D01*
X131108364Y-124708228D01*
X131877809Y-124708228D01*
X131881775Y-124710029D01*
X131955149Y-124725512D01*
X132090843Y-124744039D01*
X132262909Y-124761985D01*
X132281925Y-124763733D01*
X132460024Y-124782407D01*
X132606086Y-124801539D01*
X132690091Y-124817247D01*
X132693656Y-124818268D01*
X132734559Y-124818796D01*
X132757911Y-124780204D01*
X132768449Y-124684764D01*
X132770909Y-124514749D01*
X132770891Y-124499327D01*
X132768508Y-124342073D01*
X132762889Y-124230667D01*
X132755158Y-124188364D01*
X132753368Y-124188481D01*
X132693352Y-124212601D01*
X132581216Y-124270907D01*
X132435958Y-124352142D01*
X132276578Y-124445048D01*
X132122074Y-124538368D01*
X131991445Y-124620842D01*
X131903690Y-124681215D01*
X131877809Y-124708228D01*
X131108364Y-124708228D01*
X131108364Y-124383222D01*
X132297545Y-123678461D01*
X132389936Y-123623668D01*
X132688245Y-123446233D01*
X132755158Y-123406243D01*
X132960869Y-123283303D01*
X133197037Y-123141367D01*
G36*
X133717309Y-125774049D02*
G01*
X133733859Y-125823167D01*
X133736885Y-125929245D01*
X133731224Y-126109943D01*
X133717636Y-126472379D01*
X133048000Y-126621594D01*
X132766051Y-126684346D01*
X132551256Y-126732423D01*
X132404770Y-126766272D01*
X132315510Y-126789066D01*
X132272395Y-126803978D01*
X132264341Y-126814180D01*
X132280267Y-126822846D01*
X132309091Y-126833149D01*
X132328688Y-126838684D01*
X132431255Y-126859559D01*
X132599300Y-126889256D01*
X132814753Y-126924656D01*
X133059545Y-126962641D01*
X133740727Y-127065419D01*
X133740727Y-127409341D01*
X132980636Y-127863550D01*
X132958559Y-127876749D01*
X132725714Y-128016760D01*
X132524503Y-128139169D01*
X132366876Y-128236597D01*
X132264785Y-128301662D01*
X132230182Y-128326984D01*
X132245336Y-128325784D01*
X132334151Y-128309379D01*
X132488724Y-128277411D01*
X132693404Y-128233158D01*
X132932545Y-128179897D01*
X133061002Y-128151116D01*
X133291635Y-128100530D01*
X133483589Y-128059843D01*
X133619748Y-128032643D01*
X133683000Y-128022520D01*
X133686442Y-128022697D01*
X133717666Y-128060726D01*
X133735228Y-128171570D01*
X133740727Y-128364706D01*
X133738418Y-128521457D01*
X133727112Y-128641275D01*
X133702391Y-128705190D01*
X133659909Y-128733006D01*
X133657209Y-128733825D01*
X133572213Y-128755500D01*
X133416296Y-128791863D01*
X133204103Y-128839754D01*
X132950277Y-128896015D01*
X132669462Y-128957487D01*
X132376300Y-129021012D01*
X132085436Y-129083430D01*
X131811513Y-129141583D01*
X131569175Y-129192311D01*
X131373066Y-129232457D01*
X131237828Y-129258861D01*
X131178106Y-129268364D01*
X131160015Y-129264763D01*
X131134130Y-129231633D01*
X131118354Y-129151374D01*
X131110496Y-129008930D01*
X131108364Y-128789246D01*
X131108364Y-128310128D01*
X131804602Y-127894360D01*
X132500841Y-127478592D01*
X131804602Y-127372403D01*
X131108364Y-127266214D01*
X131108364Y-126331738D01*
X132320636Y-126064708D01*
X132636471Y-125995080D01*
X132939101Y-125928244D01*
X133203699Y-125869687D01*
X133417221Y-125822299D01*
X133566622Y-125788971D01*
X133638860Y-125772593D01*
X133682399Y-125764228D01*
X133717309Y-125774049D01*
G37*
X133717309Y-125774049D02*
X133733859Y-125823167D01*
X133736885Y-125929245D01*
X133731224Y-126109943D01*
X133717636Y-126472379D01*
X133048000Y-126621594D01*
X132766051Y-126684346D01*
X132551256Y-126732423D01*
X132404770Y-126766272D01*
X132315510Y-126789066D01*
X132272395Y-126803978D01*
X132264341Y-126814180D01*
X132280267Y-126822846D01*
X132309091Y-126833149D01*
X132328688Y-126838684D01*
X132431255Y-126859559D01*
X132599300Y-126889256D01*
X132814753Y-126924656D01*
X133059545Y-126962641D01*
X133740727Y-127065419D01*
X133740727Y-127409341D01*
X132980636Y-127863550D01*
X132958559Y-127876749D01*
X132725714Y-128016760D01*
X132524503Y-128139169D01*
X132366876Y-128236597D01*
X132264785Y-128301662D01*
X132230182Y-128326984D01*
X132245336Y-128325784D01*
X132334151Y-128309379D01*
X132488724Y-128277411D01*
X132693404Y-128233158D01*
X132932545Y-128179897D01*
X133061002Y-128151116D01*
X133291635Y-128100530D01*
X133483589Y-128059843D01*
X133619748Y-128032643D01*
X133683000Y-128022520D01*
X133686442Y-128022697D01*
X133717666Y-128060726D01*
X133735228Y-128171570D01*
X133740727Y-128364706D01*
X133738418Y-128521457D01*
X133727112Y-128641275D01*
X133702391Y-128705190D01*
X133659909Y-128733006D01*
X133657209Y-128733825D01*
X133572213Y-128755500D01*
X133416296Y-128791863D01*
X133204103Y-128839754D01*
X132950277Y-128896015D01*
X132669462Y-128957487D01*
X132376300Y-129021012D01*
X132085436Y-129083430D01*
X131811513Y-129141583D01*
X131569175Y-129192311D01*
X131373066Y-129232457D01*
X131237828Y-129258861D01*
X131178106Y-129268364D01*
X131160015Y-129264763D01*
X131134130Y-129231633D01*
X131118354Y-129151374D01*
X131110496Y-129008930D01*
X131108364Y-128789246D01*
X131108364Y-128310128D01*
X131804602Y-127894360D01*
X132500841Y-127478592D01*
X131804602Y-127372403D01*
X131108364Y-127266214D01*
X131108364Y-126331738D01*
X132320636Y-126064708D01*
X132636471Y-125995080D01*
X132939101Y-125928244D01*
X133203699Y-125869687D01*
X133417221Y-125822299D01*
X133566622Y-125788971D01*
X133638860Y-125772593D01*
X133682399Y-125764228D01*
X133717309Y-125774049D01*
G36*
X131837275Y-106748189D02*
G01*
X131929604Y-106835492D01*
X132028771Y-106980948D01*
X132124088Y-107165470D01*
X132204865Y-107369971D01*
X132260413Y-107575364D01*
X132293381Y-107855927D01*
X132272408Y-108178272D01*
X132188719Y-108465129D01*
X132047672Y-108704714D01*
X131854624Y-108885242D01*
X131614935Y-108994930D01*
X131569144Y-109006182D01*
X131345485Y-109023266D01*
X131149373Y-108965596D01*
X130974821Y-108828785D01*
X130815844Y-108608450D01*
X130666456Y-108300207D01*
X130643652Y-108245593D01*
X130547856Y-108030059D01*
X130471965Y-107891778D01*
X130408637Y-107822024D01*
X130350528Y-107812069D01*
X130290294Y-107853187D01*
X130239460Y-107948734D01*
X130228800Y-108111366D01*
X130266841Y-108309457D01*
X130349381Y-108522719D01*
X130472213Y-108730869D01*
X130495033Y-108776947D01*
X130483732Y-108830836D01*
X130422512Y-108904876D01*
X130300182Y-109017731D01*
X130181514Y-109119338D01*
X130086484Y-109194368D01*
X130038988Y-109223680D01*
X130013283Y-109204642D01*
X129948423Y-109126705D01*
X129865213Y-109008824D01*
X129734467Y-108767666D01*
X129640201Y-108473438D01*
X129605657Y-108178003D01*
X129627102Y-107893823D01*
X129700802Y-107633364D01*
X129823026Y-107409088D01*
X129990039Y-107233459D01*
X130198109Y-107118942D01*
X130443502Y-107078000D01*
X130494192Y-107079219D01*
X130684948Y-107113466D01*
X130846476Y-107201821D01*
X130988222Y-107353749D01*
X131119633Y-107578714D01*
X131250154Y-107886182D01*
X131334239Y-108079412D01*
X131426889Y-108221838D01*
X131512722Y-108276788D01*
X131589487Y-108242965D01*
X131654933Y-108119077D01*
X131676023Y-108005583D01*
X131656720Y-107795584D01*
X131580807Y-107562761D01*
X131454549Y-107331736D01*
X131300788Y-107103247D01*
X131522712Y-106917442D01*
X131630526Y-106831328D01*
X131732211Y-106759305D01*
X131787904Y-106731637D01*
X131837275Y-106748189D01*
G37*
X131837275Y-106748189D02*
X131929604Y-106835492D01*
X132028771Y-106980948D01*
X132124088Y-107165470D01*
X132204865Y-107369971D01*
X132260413Y-107575364D01*
X132293381Y-107855927D01*
X132272408Y-108178272D01*
X132188719Y-108465129D01*
X132047672Y-108704714D01*
X131854624Y-108885242D01*
X131614935Y-108994930D01*
X131569144Y-109006182D01*
X131345485Y-109023266D01*
X131149373Y-108965596D01*
X130974821Y-108828785D01*
X130815844Y-108608450D01*
X130666456Y-108300207D01*
X130643652Y-108245593D01*
X130547856Y-108030059D01*
X130471965Y-107891778D01*
X130408637Y-107822024D01*
X130350528Y-107812069D01*
X130290294Y-107853187D01*
X130239460Y-107948734D01*
X130228800Y-108111366D01*
X130266841Y-108309457D01*
X130349381Y-108522719D01*
X130472213Y-108730869D01*
X130495033Y-108776947D01*
X130483732Y-108830836D01*
X130422512Y-108904876D01*
X130300182Y-109017731D01*
X130181514Y-109119338D01*
X130086484Y-109194368D01*
X130038988Y-109223680D01*
X130013283Y-109204642D01*
X129948423Y-109126705D01*
X129865213Y-109008824D01*
X129734467Y-108767666D01*
X129640201Y-108473438D01*
X129605657Y-108178003D01*
X129627102Y-107893823D01*
X129700802Y-107633364D01*
X129823026Y-107409088D01*
X129990039Y-107233459D01*
X130198109Y-107118942D01*
X130443502Y-107078000D01*
X130494192Y-107079219D01*
X130684948Y-107113466D01*
X130846476Y-107201821D01*
X130988222Y-107353749D01*
X131119633Y-107578714D01*
X131250154Y-107886182D01*
X131334239Y-108079412D01*
X131426889Y-108221838D01*
X131512722Y-108276788D01*
X131589487Y-108242965D01*
X131654933Y-108119077D01*
X131676023Y-108005583D01*
X131656720Y-107795584D01*
X131580807Y-107562761D01*
X131454549Y-107331736D01*
X131300788Y-107103247D01*
X131522712Y-106917442D01*
X131630526Y-106831328D01*
X131732211Y-106759305D01*
X131787904Y-106731637D01*
X131837275Y-106748189D01*
G36*
X131379299Y-113842204D02*
G01*
X131650232Y-113937973D01*
X131888555Y-114101047D01*
X132081177Y-114333392D01*
X132102312Y-114369566D01*
X132185554Y-114543131D01*
X132249053Y-114718808D01*
X132282070Y-114899214D01*
X132286981Y-115183612D01*
X132248458Y-115473463D01*
X132169804Y-115726759D01*
X132117434Y-115828894D01*
X132019144Y-115978957D01*
X131910416Y-116112596D01*
X131809415Y-116208226D01*
X131734304Y-116244261D01*
X131708039Y-116227088D01*
X131641111Y-116152706D01*
X131556937Y-116042833D01*
X131473970Y-115923205D01*
X131410658Y-115819560D01*
X131385454Y-115757637D01*
X131389593Y-115745301D01*
X131432390Y-115675029D01*
X131506615Y-115572079D01*
X131609803Y-115385619D01*
X131650398Y-115173079D01*
X131621934Y-114969016D01*
X131532628Y-114789340D01*
X131390693Y-114649959D01*
X131204345Y-114566783D01*
X130981798Y-114555720D01*
X130766691Y-114617935D01*
X130560013Y-114744256D01*
X130389500Y-114914896D01*
X130273637Y-115111179D01*
X130230909Y-115314428D01*
X130240795Y-115400966D01*
X130289897Y-115554487D01*
X130364364Y-115692958D01*
X130446363Y-115778009D01*
X130521549Y-115821674D01*
X130592451Y-115876563D01*
X130616306Y-115940684D01*
X130599417Y-116040283D01*
X130548087Y-116201609D01*
X130494404Y-116354351D01*
X130444868Y-116477985D01*
X130411954Y-116540592D01*
X130406886Y-116545370D01*
X130334197Y-116550470D01*
X130224985Y-116495434D01*
X130094713Y-116393810D01*
X129958843Y-116259148D01*
X129832838Y-116104998D01*
X129732161Y-115944909D01*
X129681585Y-115839791D01*
X129637998Y-115706897D01*
X129617388Y-115553768D01*
X129612615Y-115344546D01*
X129614747Y-115218701D01*
X129631430Y-115029159D01*
X129671951Y-114865344D01*
X129744954Y-114684123D01*
X129801973Y-114570942D01*
X129993659Y-114304151D01*
X130231281Y-114092874D01*
X130501746Y-113939075D01*
X130791965Y-113844721D01*
X131088846Y-113811775D01*
X131379299Y-113842204D01*
G37*
X131379299Y-113842204D02*
X131650232Y-113937973D01*
X131888555Y-114101047D01*
X132081177Y-114333392D01*
X132102312Y-114369566D01*
X132185554Y-114543131D01*
X132249053Y-114718808D01*
X132282070Y-114899214D01*
X132286981Y-115183612D01*
X132248458Y-115473463D01*
X132169804Y-115726759D01*
X132117434Y-115828894D01*
X132019144Y-115978957D01*
X131910416Y-116112596D01*
X131809415Y-116208226D01*
X131734304Y-116244261D01*
X131708039Y-116227088D01*
X131641111Y-116152706D01*
X131556937Y-116042833D01*
X131473970Y-115923205D01*
X131410658Y-115819560D01*
X131385454Y-115757637D01*
X131389593Y-115745301D01*
X131432390Y-115675029D01*
X131506615Y-115572079D01*
X131609803Y-115385619D01*
X131650398Y-115173079D01*
X131621934Y-114969016D01*
X131532628Y-114789340D01*
X131390693Y-114649959D01*
X131204345Y-114566783D01*
X130981798Y-114555720D01*
X130766691Y-114617935D01*
X130560013Y-114744256D01*
X130389500Y-114914896D01*
X130273637Y-115111179D01*
X130230909Y-115314428D01*
X130240795Y-115400966D01*
X130289897Y-115554487D01*
X130364364Y-115692958D01*
X130446363Y-115778009D01*
X130521549Y-115821674D01*
X130592451Y-115876563D01*
X130616306Y-115940684D01*
X130599417Y-116040283D01*
X130548087Y-116201609D01*
X130494404Y-116354351D01*
X130444868Y-116477985D01*
X130411954Y-116540592D01*
X130406886Y-116545370D01*
X130334197Y-116550470D01*
X130224985Y-116495434D01*
X130094713Y-116393810D01*
X129958843Y-116259148D01*
X129832838Y-116104998D01*
X129732161Y-115944909D01*
X129681585Y-115839791D01*
X129637998Y-115706897D01*
X129617388Y-115553768D01*
X129612615Y-115344546D01*
X129614747Y-115218701D01*
X129631430Y-115029159D01*
X129671951Y-114865344D01*
X129744954Y-114684123D01*
X129801973Y-114570942D01*
X129993659Y-114304151D01*
X130231281Y-114092874D01*
X130501746Y-113939075D01*
X130791965Y-113844721D01*
X131088846Y-113811775D01*
X131379299Y-113842204D01*
G36*
X130880805Y-109356234D02*
G01*
X131207343Y-109284946D01*
X131506846Y-109220753D01*
X131766693Y-109166267D01*
X131974264Y-109124098D01*
X132116936Y-109096856D01*
X132182091Y-109087151D01*
X132182836Y-109087150D01*
X132224475Y-109099260D01*
X132248764Y-109147803D01*
X132260107Y-109251391D01*
X132262909Y-109428637D01*
X132262909Y-109770365D01*
X131905000Y-109847471D01*
X131870348Y-109854961D01*
X131692727Y-109894148D01*
X131548549Y-109927186D01*
X131466273Y-109947582D01*
X131447876Y-109954683D01*
X131415709Y-109988731D01*
X131396699Y-110061504D01*
X131387608Y-110190860D01*
X131385197Y-110394658D01*
X131378970Y-110656064D01*
X131352772Y-110894654D01*
X131300254Y-111080765D01*
X131215188Y-111235256D01*
X131091349Y-111378986D01*
X131090427Y-111379907D01*
X130869374Y-111546691D01*
X130625188Y-111641080D01*
X130374978Y-111663934D01*
X130135851Y-111616115D01*
X129924918Y-111498485D01*
X129759287Y-111311905D01*
X129738171Y-111276821D01*
X129704561Y-111208677D01*
X129681249Y-111130147D01*
X129666367Y-111024836D01*
X129658050Y-110876350D01*
X129654428Y-110668295D01*
X129653867Y-110467228D01*
X130230909Y-110467228D01*
X130232720Y-110530692D01*
X130267273Y-110727737D01*
X130338300Y-110865226D01*
X130436049Y-110934966D01*
X130550768Y-110928764D01*
X130672706Y-110838426D01*
X130717732Y-110767557D01*
X130756403Y-110628067D01*
X130777801Y-110416384D01*
X130783589Y-110309565D01*
X130786302Y-110184655D01*
X130774785Y-110123079D01*
X130743462Y-110106466D01*
X130686755Y-110116442D01*
X130677604Y-110118612D01*
X130551133Y-110145779D01*
X130404091Y-110174169D01*
X130230909Y-110205552D01*
X130230909Y-110467228D01*
X129653867Y-110467228D01*
X129653636Y-110384276D01*
X129653636Y-109626552D01*
X130743462Y-109386487D01*
X130877454Y-109356972D01*
X130880805Y-109356234D01*
G37*
X130880805Y-109356234D02*
X131207343Y-109284946D01*
X131506846Y-109220753D01*
X131766693Y-109166267D01*
X131974264Y-109124098D01*
X132116936Y-109096856D01*
X132182091Y-109087151D01*
X132182836Y-109087150D01*
X132224475Y-109099260D01*
X132248764Y-109147803D01*
X132260107Y-109251391D01*
X132262909Y-109428637D01*
X132262909Y-109770365D01*
X131905000Y-109847471D01*
X131870348Y-109854961D01*
X131692727Y-109894148D01*
X131548549Y-109927186D01*
X131466273Y-109947582D01*
X131447876Y-109954683D01*
X131415709Y-109988731D01*
X131396699Y-110061504D01*
X131387608Y-110190860D01*
X131385197Y-110394658D01*
X131378970Y-110656064D01*
X131352772Y-110894654D01*
X131300254Y-111080765D01*
X131215188Y-111235256D01*
X131091349Y-111378986D01*
X131090427Y-111379907D01*
X130869374Y-111546691D01*
X130625188Y-111641080D01*
X130374978Y-111663934D01*
X130135851Y-111616115D01*
X129924918Y-111498485D01*
X129759287Y-111311905D01*
X129738171Y-111276821D01*
X129704561Y-111208677D01*
X129681249Y-111130147D01*
X129666367Y-111024836D01*
X129658050Y-110876350D01*
X129654428Y-110668295D01*
X129653867Y-110467228D01*
X130230909Y-110467228D01*
X130232720Y-110530692D01*
X130267273Y-110727737D01*
X130338300Y-110865226D01*
X130436049Y-110934966D01*
X130550768Y-110928764D01*
X130672706Y-110838426D01*
X130717732Y-110767557D01*
X130756403Y-110628067D01*
X130777801Y-110416384D01*
X130783589Y-110309565D01*
X130786302Y-110184655D01*
X130774785Y-110123079D01*
X130743462Y-110106466D01*
X130686755Y-110116442D01*
X130677604Y-110118612D01*
X130551133Y-110145779D01*
X130404091Y-110174169D01*
X130230909Y-110205552D01*
X130230909Y-110467228D01*
X129653867Y-110467228D01*
X129653636Y-110384276D01*
X129653636Y-109626552D01*
X130743462Y-109386487D01*
X130877454Y-109356972D01*
X130880805Y-109356234D01*
G36*
X131646578Y-111286266D02*
G01*
X131853661Y-111163844D01*
X132005382Y-111074402D01*
X132089727Y-111025051D01*
X132262909Y-110925059D01*
X132262909Y-111744293D01*
X132055091Y-111857818D01*
X131847273Y-111971344D01*
X131847273Y-112463822D01*
X131848424Y-112663055D01*
X131857280Y-112830029D01*
X131881764Y-112932988D01*
X131929792Y-112987391D01*
X132009279Y-113008697D01*
X132128141Y-113012364D01*
X132262909Y-113012364D01*
X132262909Y-113381818D01*
X132262565Y-113433768D01*
X132256481Y-113595919D01*
X132244366Y-113709739D01*
X132228273Y-113753221D01*
X132226102Y-113753158D01*
X132161413Y-113745027D01*
X132019071Y-113724696D01*
X131811021Y-113693947D01*
X131549210Y-113654560D01*
X131245584Y-113608316D01*
X130912091Y-113556996D01*
X129630545Y-113358822D01*
X129631845Y-112920047D01*
X129632156Y-112814978D01*
X130316837Y-112814978D01*
X130608691Y-112846855D01*
X130744611Y-112862384D01*
X130931075Y-112885518D01*
X131073727Y-112905269D01*
X131246909Y-112931805D01*
X131246909Y-112625721D01*
X131243778Y-112472323D01*
X131235475Y-112361810D01*
X131223812Y-112319637D01*
X131189446Y-112334491D01*
X131088647Y-112386559D01*
X130939302Y-112467247D01*
X130758776Y-112567307D01*
X130316837Y-112814978D01*
X129632156Y-112814978D01*
X129633145Y-112481273D01*
X130774845Y-111803158D01*
X130813314Y-111780311D01*
X131114389Y-111601610D01*
X131223812Y-111536734D01*
X131396149Y-111434558D01*
X131646578Y-111286266D01*
G37*
X131646578Y-111286266D02*
X131853661Y-111163844D01*
X132005382Y-111074402D01*
X132089727Y-111025051D01*
X132262909Y-110925059D01*
X132262909Y-111744293D01*
X132055091Y-111857818D01*
X131847273Y-111971344D01*
X131847273Y-112463822D01*
X131848424Y-112663055D01*
X131857280Y-112830029D01*
X131881764Y-112932988D01*
X131929792Y-112987391D01*
X132009279Y-113008697D01*
X132128141Y-113012364D01*
X132262909Y-113012364D01*
X132262909Y-113381818D01*
X132262565Y-113433768D01*
X132256481Y-113595919D01*
X132244366Y-113709739D01*
X132228273Y-113753221D01*
X132226102Y-113753158D01*
X132161413Y-113745027D01*
X132019071Y-113724696D01*
X131811021Y-113693947D01*
X131549210Y-113654560D01*
X131245584Y-113608316D01*
X130912091Y-113556996D01*
X129630545Y-113358822D01*
X129631845Y-112920047D01*
X129632156Y-112814978D01*
X130316837Y-112814978D01*
X130608691Y-112846855D01*
X130744611Y-112862384D01*
X130931075Y-112885518D01*
X131073727Y-112905269D01*
X131246909Y-112931805D01*
X131246909Y-112625721D01*
X131243778Y-112472323D01*
X131235475Y-112361810D01*
X131223812Y-112319637D01*
X131189446Y-112334491D01*
X131088647Y-112386559D01*
X130939302Y-112467247D01*
X130758776Y-112567307D01*
X130316837Y-112814978D01*
X129632156Y-112814978D01*
X129633145Y-112481273D01*
X130774845Y-111803158D01*
X130813314Y-111780311D01*
X131114389Y-111601610D01*
X131223812Y-111536734D01*
X131396149Y-111434558D01*
X131646578Y-111286266D01*
G36*
X132211761Y-116341394D02*
G01*
X132230818Y-116370099D01*
X132244108Y-116436032D01*
X132252266Y-116550213D01*
X132255927Y-116723660D01*
X132255727Y-116967394D01*
X132252300Y-117292436D01*
X132239818Y-118247417D01*
X132124364Y-118278150D01*
X132115604Y-118280446D01*
X131985024Y-118310876D01*
X131835727Y-118341261D01*
X131662545Y-118373640D01*
X131662545Y-117164542D01*
X131489364Y-117195791D01*
X131461884Y-117200915D01*
X131346242Y-117226316D01*
X131281545Y-117246791D01*
X131279597Y-117248833D01*
X131266831Y-117311530D01*
X131256446Y-117445960D01*
X131249464Y-117634071D01*
X131246909Y-117857805D01*
X131246909Y-118449067D01*
X130985207Y-118501625D01*
X130871633Y-118523713D01*
X130748281Y-118545680D01*
X130685025Y-118554182D01*
X130683058Y-118553424D01*
X130668806Y-118499530D01*
X130657205Y-118372919D01*
X130649402Y-118190988D01*
X130646545Y-117971137D01*
X130646545Y-117388091D01*
X130502227Y-117416955D01*
X130383111Y-117437136D01*
X130294409Y-117445818D01*
X130269969Y-117460222D01*
X130250965Y-117516907D01*
X130238971Y-117628475D01*
X130232712Y-117807401D01*
X130230909Y-118066161D01*
X130231293Y-118297739D01*
X130228510Y-118479017D01*
X130215814Y-118597767D01*
X130186447Y-118669610D01*
X130133649Y-118710166D01*
X130050662Y-118735057D01*
X129930727Y-118759901D01*
X129815704Y-118786244D01*
X129711364Y-118813487D01*
X129700593Y-118816081D01*
X129676263Y-118811983D01*
X129658303Y-118782768D01*
X129645757Y-118717228D01*
X129637665Y-118604157D01*
X129633071Y-118432347D01*
X129631017Y-118190590D01*
X129630545Y-117867679D01*
X129630561Y-117801036D01*
X129631399Y-117492207D01*
X129634209Y-117261771D01*
X129639950Y-117097940D01*
X129649578Y-116988927D01*
X129664051Y-116922944D01*
X129684327Y-116888204D01*
X129711364Y-116872921D01*
X129715214Y-116871768D01*
X129801636Y-116849921D01*
X129958676Y-116813455D01*
X130171714Y-116765520D01*
X130426136Y-116709263D01*
X130707323Y-116647833D01*
X131000659Y-116584379D01*
X131291527Y-116522048D01*
X131565311Y-116463991D01*
X131807393Y-116413354D01*
X132003157Y-116373287D01*
X132137985Y-116346937D01*
X132197261Y-116337455D01*
X132211761Y-116341394D01*
G37*
X132211761Y-116341394D02*
X132230818Y-116370099D01*
X132244108Y-116436032D01*
X132252266Y-116550213D01*
X132255927Y-116723660D01*
X132255727Y-116967394D01*
X132252300Y-117292436D01*
X132239818Y-118247417D01*
X132124364Y-118278150D01*
X132115604Y-118280446D01*
X131985024Y-118310876D01*
X131835727Y-118341261D01*
X131662545Y-118373640D01*
X131662545Y-117164542D01*
X131489364Y-117195791D01*
X131461884Y-117200915D01*
X131346242Y-117226316D01*
X131281545Y-117246791D01*
X131279597Y-117248833D01*
X131266831Y-117311530D01*
X131256446Y-117445960D01*
X131249464Y-117634071D01*
X131246909Y-117857805D01*
X131246909Y-118449067D01*
X130985207Y-118501625D01*
X130871633Y-118523713D01*
X130748281Y-118545680D01*
X130685025Y-118554182D01*
X130683058Y-118553424D01*
X130668806Y-118499530D01*
X130657205Y-118372919D01*
X130649402Y-118190988D01*
X130646545Y-117971137D01*
X130646545Y-117388091D01*
X130502227Y-117416955D01*
X130383111Y-117437136D01*
X130294409Y-117445818D01*
X130269969Y-117460222D01*
X130250965Y-117516907D01*
X130238971Y-117628475D01*
X130232712Y-117807401D01*
X130230909Y-118066161D01*
X130231293Y-118297739D01*
X130228510Y-118479017D01*
X130215814Y-118597767D01*
X130186447Y-118669610D01*
X130133649Y-118710166D01*
X130050662Y-118735057D01*
X129930727Y-118759901D01*
X129815704Y-118786244D01*
X129711364Y-118813487D01*
X129700593Y-118816081D01*
X129676263Y-118811983D01*
X129658303Y-118782768D01*
X129645757Y-118717228D01*
X129637665Y-118604157D01*
X129633071Y-118432347D01*
X129631017Y-118190590D01*
X129630545Y-117867679D01*
X129630561Y-117801036D01*
X129631399Y-117492207D01*
X129634209Y-117261771D01*
X129639950Y-117097940D01*
X129649578Y-116988927D01*
X129664051Y-116922944D01*
X129684327Y-116888204D01*
X129711364Y-116872921D01*
X129715214Y-116871768D01*
X129801636Y-116849921D01*
X129958676Y-116813455D01*
X130171714Y-116765520D01*
X130426136Y-116709263D01*
X130707323Y-116647833D01*
X131000659Y-116584379D01*
X131291527Y-116522048D01*
X131565311Y-116463991D01*
X131807393Y-116413354D01*
X132003157Y-116373287D01*
X132137985Y-116346937D01*
X132197261Y-116337455D01*
X132211761Y-116341394D01*
G36*
X127808349Y-113310609D02*
G01*
X127826415Y-113375347D01*
X127829454Y-113510022D01*
X127829454Y-113736725D01*
X128418273Y-113606919D01*
X128450271Y-113599889D01*
X128675259Y-113551814D01*
X128869773Y-113512486D01*
X129013946Y-113485799D01*
X129087909Y-113475648D01*
X129089232Y-113475630D01*
X129150473Y-113505019D01*
X129168727Y-113605018D01*
X129167698Y-113645493D01*
X129154981Y-113691836D01*
X129114844Y-113726966D01*
X129031523Y-113758330D01*
X128889254Y-113793377D01*
X128672273Y-113839552D01*
X128661956Y-113841706D01*
X128370622Y-113902250D01*
X128156785Y-113948520D01*
X128008285Y-113986686D01*
X127912963Y-114022921D01*
X127858661Y-114063395D01*
X127833220Y-114114278D01*
X127824480Y-114181743D01*
X127820283Y-114271959D01*
X127812691Y-114377301D01*
X127793851Y-114470028D01*
X127753532Y-114512028D01*
X127678001Y-114528017D01*
X127549638Y-114542762D01*
X127575454Y-113312546D01*
X127702454Y-113297933D01*
X127761837Y-113293396D01*
X127808349Y-113310609D01*
G37*
X127808349Y-113310609D02*
X127826415Y-113375347D01*
X127829454Y-113510022D01*
X127829454Y-113736725D01*
X128418273Y-113606919D01*
X128450271Y-113599889D01*
X128675259Y-113551814D01*
X128869773Y-113512486D01*
X129013946Y-113485799D01*
X129087909Y-113475648D01*
X129089232Y-113475630D01*
X129150473Y-113505019D01*
X129168727Y-113605018D01*
X129167698Y-113645493D01*
X129154981Y-113691836D01*
X129114844Y-113726966D01*
X129031523Y-113758330D01*
X128889254Y-113793377D01*
X128672273Y-113839552D01*
X128661956Y-113841706D01*
X128370622Y-113902250D01*
X128156785Y-113948520D01*
X128008285Y-113986686D01*
X127912963Y-114022921D01*
X127858661Y-114063395D01*
X127833220Y-114114278D01*
X127824480Y-114181743D01*
X127820283Y-114271959D01*
X127812691Y-114377301D01*
X127793851Y-114470028D01*
X127753532Y-114512028D01*
X127678001Y-114528017D01*
X127549638Y-114542762D01*
X127575454Y-113312546D01*
X127702454Y-113297933D01*
X127761837Y-113293396D01*
X127808349Y-113310609D01*
G36*
X128877618Y-114688346D02*
G01*
X128989244Y-114759907D01*
X129078399Y-114873697D01*
X129143935Y-115040604D01*
X129170070Y-115265165D01*
X129147098Y-115492264D01*
X129075180Y-115682143D01*
X129067613Y-115694006D01*
X128957760Y-115814507D01*
X128827810Y-115899428D01*
X128762951Y-115921646D01*
X128620177Y-115962536D01*
X128431814Y-116012074D01*
X128220323Y-116064815D01*
X128008168Y-116115314D01*
X127817811Y-116158126D01*
X127671713Y-116187806D01*
X127592339Y-116198909D01*
X127564250Y-116159807D01*
X127552364Y-116064155D01*
X127552632Y-116037059D01*
X127561067Y-115983252D01*
X127593791Y-115944210D01*
X127667297Y-115911349D01*
X127798081Y-115876087D01*
X128002636Y-115829839D01*
X128005013Y-115829313D01*
X128281933Y-115766505D01*
X128483636Y-115715703D01*
X128625445Y-115671265D01*
X128722682Y-115627548D01*
X128790670Y-115578908D01*
X128844732Y-115519702D01*
X128913545Y-115401579D01*
X128938933Y-115236011D01*
X128885039Y-115087565D01*
X128755146Y-114976154D01*
X128690167Y-114949476D01*
X128615094Y-114939350D01*
X128510187Y-114947384D01*
X128355552Y-114975106D01*
X128131293Y-115024044D01*
X127959054Y-115062427D01*
X127780376Y-115100902D01*
X127651508Y-115127070D01*
X127592550Y-115136727D01*
X127592072Y-115136718D01*
X127564011Y-115095484D01*
X127552364Y-114998182D01*
X127552364Y-114996727D01*
X127557382Y-114899855D01*
X127569248Y-114859637D01*
X127614460Y-114850842D01*
X127732350Y-114825399D01*
X127904294Y-114787323D01*
X128111884Y-114740649D01*
X128265918Y-114707493D01*
X128530156Y-114664094D01*
X128729323Y-114657060D01*
X128877618Y-114688346D01*
G37*
X128877618Y-114688346D02*
X128989244Y-114759907D01*
X129078399Y-114873697D01*
X129143935Y-115040604D01*
X129170070Y-115265165D01*
X129147098Y-115492264D01*
X129075180Y-115682143D01*
X129067613Y-115694006D01*
X128957760Y-115814507D01*
X128827810Y-115899428D01*
X128762951Y-115921646D01*
X128620177Y-115962536D01*
X128431814Y-116012074D01*
X128220323Y-116064815D01*
X128008168Y-116115314D01*
X127817811Y-116158126D01*
X127671713Y-116187806D01*
X127592339Y-116198909D01*
X127564250Y-116159807D01*
X127552364Y-116064155D01*
X127552632Y-116037059D01*
X127561067Y-115983252D01*
X127593791Y-115944210D01*
X127667297Y-115911349D01*
X127798081Y-115876087D01*
X128002636Y-115829839D01*
X128005013Y-115829313D01*
X128281933Y-115766505D01*
X128483636Y-115715703D01*
X128625445Y-115671265D01*
X128722682Y-115627548D01*
X128790670Y-115578908D01*
X128844732Y-115519702D01*
X128913545Y-115401579D01*
X128938933Y-115236011D01*
X128885039Y-115087565D01*
X128755146Y-114976154D01*
X128690167Y-114949476D01*
X128615094Y-114939350D01*
X128510187Y-114947384D01*
X128355552Y-114975106D01*
X128131293Y-115024044D01*
X127959054Y-115062427D01*
X127780376Y-115100902D01*
X127651508Y-115127070D01*
X127592550Y-115136727D01*
X127592072Y-115136718D01*
X127564011Y-115095484D01*
X127552364Y-114998182D01*
X127552364Y-114996727D01*
X127557382Y-114899855D01*
X127569248Y-114859637D01*
X127614460Y-114850842D01*
X127732350Y-114825399D01*
X127904294Y-114787323D01*
X128111884Y-114740649D01*
X128265918Y-114707493D01*
X128530156Y-114664094D01*
X128729323Y-114657060D01*
X128877618Y-114688346D01*
G36*
X127817909Y-117184312D02*
G01*
X127931157Y-117194716D01*
X128137342Y-117210822D01*
X128379608Y-117227596D01*
X128626091Y-117242737D01*
X129168727Y-117273647D01*
X129168727Y-117419135D01*
X129166426Y-117469769D01*
X129149518Y-117523146D01*
X129104213Y-117573686D01*
X129016793Y-117632089D01*
X128873537Y-117709051D01*
X128660727Y-117815273D01*
X128648948Y-117821094D01*
X128455812Y-117919349D01*
X128298081Y-118004679D01*
X128191728Y-118068112D01*
X128152727Y-118100671D01*
X128181330Y-118113024D01*
X128285330Y-118127752D01*
X128447566Y-118140193D01*
X128649182Y-118148529D01*
X129145636Y-118161637D01*
X129174332Y-118458499D01*
X128386951Y-118852704D01*
X128371580Y-118860398D01*
X128126372Y-118982502D01*
X127911061Y-119088595D01*
X127738793Y-119172288D01*
X127622713Y-119227189D01*
X127575967Y-119246909D01*
X127573916Y-119246334D01*
X127558628Y-119197589D01*
X127552364Y-119094345D01*
X127552512Y-119073398D01*
X127558718Y-119015875D01*
X127583594Y-118966786D01*
X127640038Y-118916401D01*
X127740942Y-118854989D01*
X127899203Y-118772818D01*
X128127716Y-118660157D01*
X128703068Y-118378534D01*
X128127716Y-118345348D01*
X128124800Y-118345180D01*
X127887108Y-118330816D01*
X127726420Y-118317676D01*
X127627669Y-118302025D01*
X127575788Y-118280124D01*
X127555708Y-118248235D01*
X127552364Y-118202620D01*
X127553609Y-118183939D01*
X127573618Y-118134390D01*
X127627699Y-118080345D01*
X127728224Y-118013089D01*
X127887564Y-117923907D01*
X128118091Y-117804083D01*
X128683818Y-117515091D01*
X128118091Y-117502124D01*
X127552363Y-117489157D01*
X127552364Y-117322977D01*
X127552364Y-117156797D01*
X127817909Y-117184312D01*
G37*
X127817909Y-117184312D02*
X127931157Y-117194716D01*
X128137342Y-117210822D01*
X128379608Y-117227596D01*
X128626091Y-117242737D01*
X129168727Y-117273647D01*
X129168727Y-117419135D01*
X129166426Y-117469769D01*
X129149518Y-117523146D01*
X129104213Y-117573686D01*
X129016793Y-117632089D01*
X128873537Y-117709051D01*
X128660727Y-117815273D01*
X128648948Y-117821094D01*
X128455812Y-117919349D01*
X128298081Y-118004679D01*
X128191728Y-118068112D01*
X128152727Y-118100671D01*
X128181330Y-118113024D01*
X128285330Y-118127752D01*
X128447566Y-118140193D01*
X128649182Y-118148529D01*
X129145636Y-118161637D01*
X129174332Y-118458499D01*
X128386951Y-118852704D01*
X128371580Y-118860398D01*
X128126372Y-118982502D01*
X127911061Y-119088595D01*
X127738793Y-119172288D01*
X127622713Y-119227189D01*
X127575967Y-119246909D01*
X127573916Y-119246334D01*
X127558628Y-119197589D01*
X127552364Y-119094345D01*
X127552512Y-119073398D01*
X127558718Y-119015875D01*
X127583594Y-118966786D01*
X127640038Y-118916401D01*
X127740942Y-118854989D01*
X127899203Y-118772818D01*
X128127716Y-118660157D01*
X128703068Y-118378534D01*
X128127716Y-118345348D01*
X128124800Y-118345180D01*
X127887108Y-118330816D01*
X127726420Y-118317676D01*
X127627669Y-118302025D01*
X127575788Y-118280124D01*
X127555708Y-118248235D01*
X127552364Y-118202620D01*
X127553609Y-118183939D01*
X127573618Y-118134390D01*
X127627699Y-118080345D01*
X127728224Y-118013089D01*
X127887564Y-117923907D01*
X128118091Y-117804083D01*
X128683818Y-117515091D01*
X128118091Y-117502124D01*
X127552363Y-117489157D01*
X127552364Y-117322977D01*
X127552364Y-117156797D01*
X127817909Y-117184312D01*
G36*
X129137916Y-119635074D02*
G01*
X129155662Y-119680023D01*
X129164816Y-119773644D01*
X129168223Y-119930502D01*
X129168727Y-120165159D01*
X129168727Y-120724727D01*
X128891636Y-120724727D01*
X128891636Y-120355273D01*
X128891637Y-120329425D01*
X128889148Y-120148356D01*
X128873327Y-120042107D01*
X128831618Y-119994920D01*
X128751467Y-119991031D01*
X128620318Y-120014682D01*
X128476000Y-120043546D01*
X128476000Y-120453409D01*
X128475997Y-120480472D01*
X128474692Y-120666008D01*
X128467536Y-120779159D01*
X128449488Y-120837821D01*
X128415505Y-120859893D01*
X128360545Y-120863273D01*
X128310076Y-120860743D01*
X128273014Y-120840660D01*
X128253665Y-120784317D01*
X128246275Y-120673012D01*
X128245091Y-120488046D01*
X128245091Y-120112818D01*
X128100773Y-120141682D01*
X127981657Y-120161863D01*
X127892954Y-120170546D01*
X127865191Y-120185796D01*
X127843902Y-120250559D01*
X127832708Y-120379324D01*
X127829454Y-120586182D01*
X127828580Y-120678895D01*
X127821900Y-120844684D01*
X127810073Y-120959417D01*
X127794818Y-121002449D01*
X127752131Y-121008623D01*
X127656273Y-121030926D01*
X127614386Y-121039821D01*
X127584237Y-121030602D01*
X127565901Y-120987774D01*
X127556448Y-120896649D01*
X127552946Y-120742537D01*
X127552464Y-120510750D01*
X127552565Y-119962727D01*
X128256737Y-119811629D01*
X128387195Y-119783548D01*
X128627438Y-119731369D01*
X128832775Y-119686173D01*
X128984727Y-119652042D01*
X129064818Y-119633061D01*
X129065274Y-119632940D01*
X129108735Y-119624234D01*
X129137916Y-119635074D01*
G37*
X129137916Y-119635074D02*
X129155662Y-119680023D01*
X129164816Y-119773644D01*
X129168223Y-119930502D01*
X129168727Y-120165159D01*
X129168727Y-120724727D01*
X128891636Y-120724727D01*
X128891636Y-120355273D01*
X128891637Y-120329425D01*
X128889148Y-120148356D01*
X128873327Y-120042107D01*
X128831618Y-119994920D01*
X128751467Y-119991031D01*
X128620318Y-120014682D01*
X128476000Y-120043546D01*
X128476000Y-120453409D01*
X128475997Y-120480472D01*
X128474692Y-120666008D01*
X128467536Y-120779159D01*
X128449488Y-120837821D01*
X128415505Y-120859893D01*
X128360545Y-120863273D01*
X128310076Y-120860743D01*
X128273014Y-120840660D01*
X128253665Y-120784317D01*
X128246275Y-120673012D01*
X128245091Y-120488046D01*
X128245091Y-120112818D01*
X128100773Y-120141682D01*
X127981657Y-120161863D01*
X127892954Y-120170546D01*
X127865191Y-120185796D01*
X127843902Y-120250559D01*
X127832708Y-120379324D01*
X127829454Y-120586182D01*
X127828580Y-120678895D01*
X127821900Y-120844684D01*
X127810073Y-120959417D01*
X127794818Y-121002449D01*
X127752131Y-121008623D01*
X127656273Y-121030926D01*
X127614386Y-121039821D01*
X127584237Y-121030602D01*
X127565901Y-120987774D01*
X127556448Y-120896649D01*
X127552946Y-120742537D01*
X127552464Y-120510750D01*
X127552565Y-119962727D01*
X128256737Y-119811629D01*
X128387195Y-119783548D01*
X128627438Y-119731369D01*
X128832775Y-119686173D01*
X128984727Y-119652042D01*
X129064818Y-119633061D01*
X129065274Y-119632940D01*
X129108735Y-119624234D01*
X129137916Y-119635074D01*
G36*
X129163280Y-121093837D02*
G01*
X129160230Y-121194540D01*
X129145636Y-121344370D01*
X128603000Y-121460577D01*
X128597861Y-121461679D01*
X128388956Y-121508672D01*
X128218071Y-121551227D01*
X128102707Y-121584703D01*
X128060364Y-121604460D01*
X128062364Y-121607749D01*
X128118185Y-121643749D01*
X128239149Y-121708310D01*
X128409765Y-121793420D01*
X128614545Y-121891070D01*
X128815824Y-121986025D01*
X128978352Y-122067099D01*
X129081600Y-122127894D01*
X129138875Y-122177811D01*
X129163482Y-122226253D01*
X129168727Y-122282619D01*
X129168727Y-122415233D01*
X128394520Y-122585980D01*
X128189824Y-122630861D01*
X127957712Y-122681039D01*
X127769477Y-122720915D01*
X127640543Y-122747231D01*
X127586338Y-122756727D01*
X127562471Y-122717648D01*
X127552364Y-122621973D01*
X127552632Y-122594950D01*
X127561075Y-122541108D01*
X127593809Y-122501996D01*
X127667323Y-122469010D01*
X127798102Y-122433546D01*
X128002636Y-122387001D01*
X128117802Y-122361291D01*
X128318491Y-122316132D01*
X128483882Y-122278476D01*
X128586533Y-122254549D01*
X128630747Y-122239984D01*
X128642604Y-122218850D01*
X128608416Y-122185690D01*
X128518623Y-122134065D01*
X128363667Y-122057533D01*
X128133989Y-121949656D01*
X128052845Y-121911869D01*
X127844749Y-121813451D01*
X127703998Y-121741641D01*
X127617952Y-121687375D01*
X127573970Y-121641586D01*
X127559412Y-121595209D01*
X127561637Y-121539180D01*
X127575454Y-121401363D01*
X128268182Y-121248506D01*
X128388391Y-121221953D01*
X128627967Y-121168865D01*
X128833567Y-121123087D01*
X128986448Y-121088798D01*
X129067867Y-121070179D01*
X129133348Y-121061195D01*
X129163280Y-121093837D01*
G37*
X129163280Y-121093837D02*
X129160230Y-121194540D01*
X129145636Y-121344370D01*
X128603000Y-121460577D01*
X128597861Y-121461679D01*
X128388956Y-121508672D01*
X128218071Y-121551227D01*
X128102707Y-121584703D01*
X128060364Y-121604460D01*
X128062364Y-121607749D01*
X128118185Y-121643749D01*
X128239149Y-121708310D01*
X128409765Y-121793420D01*
X128614545Y-121891070D01*
X128815824Y-121986025D01*
X128978352Y-122067099D01*
X129081600Y-122127894D01*
X129138875Y-122177811D01*
X129163482Y-122226253D01*
X129168727Y-122282619D01*
X129168727Y-122415233D01*
X128394520Y-122585980D01*
X128189824Y-122630861D01*
X127957712Y-122681039D01*
X127769477Y-122720915D01*
X127640543Y-122747231D01*
X127586338Y-122756727D01*
X127562471Y-122717648D01*
X127552364Y-122621973D01*
X127552632Y-122594950D01*
X127561075Y-122541108D01*
X127593809Y-122501996D01*
X127667323Y-122469010D01*
X127798102Y-122433546D01*
X128002636Y-122387001D01*
X128117802Y-122361291D01*
X128318491Y-122316132D01*
X128483882Y-122278476D01*
X128586533Y-122254549D01*
X128630747Y-122239984D01*
X128642604Y-122218850D01*
X128608416Y-122185690D01*
X128518623Y-122134065D01*
X128363667Y-122057533D01*
X128133989Y-121949656D01*
X128052845Y-121911869D01*
X127844749Y-121813451D01*
X127703998Y-121741641D01*
X127617952Y-121687375D01*
X127573970Y-121641586D01*
X127559412Y-121595209D01*
X127561637Y-121539180D01*
X127575454Y-121401363D01*
X128268182Y-121248506D01*
X128388391Y-121221953D01*
X128627967Y-121168865D01*
X128833567Y-121123087D01*
X128986448Y-121088798D01*
X129067867Y-121070179D01*
X129133348Y-121061195D01*
X129163280Y-121093837D01*
G36*
X126728310Y-119252637D02*
G01*
X126767273Y-119292397D01*
X126754715Y-119331676D01*
X126704392Y-119432645D01*
X126628727Y-119563050D01*
X126570074Y-119660514D01*
X126512468Y-119762354D01*
X126490182Y-119810841D01*
X126515284Y-119836598D01*
X126600356Y-119898487D01*
X126724805Y-119979317D01*
X126828014Y-120050739D01*
X126914632Y-120129233D01*
X126940659Y-120181478D01*
X126898873Y-120230835D01*
X126769058Y-120285552D01*
X126563230Y-120324570D01*
X126290278Y-120346368D01*
X125959091Y-120349427D01*
X125791147Y-120348881D01*
X125485511Y-120357346D01*
X125179734Y-120375401D01*
X124920000Y-120400765D01*
X124785698Y-120415984D01*
X124529433Y-120433703D01*
X124309696Y-120434107D01*
X124140189Y-120418102D01*
X124034617Y-120386593D01*
X124006683Y-120340483D01*
X124024927Y-120315008D01*
X124116176Y-120248843D01*
X124266171Y-120165833D01*
X124456314Y-120074657D01*
X124668005Y-119983993D01*
X124882646Y-119902519D01*
X125081636Y-119838913D01*
X125104900Y-119832250D01*
X125311927Y-119762041D01*
X125508175Y-119679063D01*
X125653987Y-119599878D01*
X125705061Y-119567463D01*
X125883161Y-119472983D01*
X126081285Y-119388941D01*
X126282147Y-119320112D01*
X126468462Y-119271269D01*
X126622944Y-119247186D01*
X126728310Y-119252637D01*
G37*
X126728310Y-119252637D02*
X126767273Y-119292397D01*
X126754715Y-119331676D01*
X126704392Y-119432645D01*
X126628727Y-119563050D01*
X126570074Y-119660514D01*
X126512468Y-119762354D01*
X126490182Y-119810841D01*
X126515284Y-119836598D01*
X126600356Y-119898487D01*
X126724805Y-119979317D01*
X126828014Y-120050739D01*
X126914632Y-120129233D01*
X126940659Y-120181478D01*
X126898873Y-120230835D01*
X126769058Y-120285552D01*
X126563230Y-120324570D01*
X126290278Y-120346368D01*
X125959091Y-120349427D01*
X125791147Y-120348881D01*
X125485511Y-120357346D01*
X125179734Y-120375401D01*
X124920000Y-120400765D01*
X124785698Y-120415984D01*
X124529433Y-120433703D01*
X124309696Y-120434107D01*
X124140189Y-120418102D01*
X124034617Y-120386593D01*
X124006683Y-120340483D01*
X124024927Y-120315008D01*
X124116176Y-120248843D01*
X124266171Y-120165833D01*
X124456314Y-120074657D01*
X124668005Y-119983993D01*
X124882646Y-119902519D01*
X125081636Y-119838913D01*
X125104900Y-119832250D01*
X125311927Y-119762041D01*
X125508175Y-119679063D01*
X125653987Y-119599878D01*
X125705061Y-119567463D01*
X125883161Y-119472983D01*
X126081285Y-119388941D01*
X126282147Y-119320112D01*
X126468462Y-119271269D01*
X126622944Y-119247186D01*
X126728310Y-119252637D01*
D13*
X122732233Y-110232233D02*
G75*
G03*
X122732233Y-110232233I-1500000J0D01*
G01*
%LPC*%
D14*
X134891106Y-106499999D03*
D15*
X121232233Y-113767767D03*
X124767767Y-113767767D03*
X124767767Y-110232233D03*
X121232233Y-110232233D03*
D16*
X125000000Y-98000000D03*
D17*
X125000000Y-100540000D03*
X122460000Y-98000000D03*
X122460000Y-100540000D03*
X119920000Y-98000000D03*
X119920000Y-100540000D03*
X117380000Y-98000000D03*
X117380000Y-100540000D03*
X114840000Y-98000000D03*
X114840000Y-100540000D03*
D18*
X111500000Y-128500000D03*
D17*
X114820000Y-125487500D03*
X114820000Y-122947500D03*
X117360000Y-125487500D03*
X117360000Y-122947500D03*
X119900000Y-125487500D03*
X119900000Y-122947500D03*
X122440000Y-125487500D03*
X122440000Y-122947500D03*
X124980000Y-125487500D03*
D16*
X124980000Y-122947500D03*
D18*
X134500000Y-95500000D03*
M02*
