G04 #@! TF.GenerationSoftware,KiCad,Pcbnew,6.0.10-86aedd382b~118~ubuntu20.04.1*
G04 #@! TF.CreationDate,2023-01-08T02:49:30+01:00*
G04 #@! TF.ProjectId,TempExt,54656d70-4578-4742-9e6b-696361645f70,rev?*
G04 #@! TF.SameCoordinates,Original*
G04 #@! TF.FileFunction,Copper,L2,Bot*
G04 #@! TF.FilePolarity,Positive*
%FSLAX46Y46*%
G04 Gerber Fmt 4.6, Leading zero omitted, Abs format (unit mm)*
G04 Created by KiCad (PCBNEW 6.0.10-86aedd382b~118~ubuntu20.04.1) date 2023-01-08 02:49:30*
%MOMM*%
%LPD*%
G01*
G04 APERTURE LIST*
G04 Aperture macros list*
%AMRoundRect*
0 Rectangle with rounded corners*
0 $1 Rounding radius*
0 $2 $3 $4 $5 $6 $7 $8 $9 X,Y pos of 4 corners*
0 Add a 4 corners polygon primitive as box body*
4,1,4,$2,$3,$4,$5,$6,$7,$8,$9,$2,$3,0*
0 Add four circle primitives for the rounded corners*
1,1,$1+$1,$2,$3*
1,1,$1+$1,$4,$5*
1,1,$1+$1,$6,$7*
1,1,$1+$1,$8,$9*
0 Add four rect primitives between the rounded corners*
20,1,$1+$1,$2,$3,$4,$5,0*
20,1,$1+$1,$4,$5,$6,$7,0*
20,1,$1+$1,$6,$7,$8,$9,0*
20,1,$1+$1,$8,$9,$2,$3,0*%
G04 Aperture macros list end*
G04 #@! TA.AperFunction,ComponentPad*
%ADD10C,1.000000*%
G04 #@! TD*
G04 #@! TA.AperFunction,ComponentPad*
%ADD11C,2.500000*%
G04 #@! TD*
G04 #@! TA.AperFunction,ComponentPad*
%ADD12RoundRect,0.250000X-0.600000X0.600000X-0.600000X-0.600000X0.600000X-0.600000X0.600000X0.600000X0*%
G04 #@! TD*
G04 #@! TA.AperFunction,ComponentPad*
%ADD13C,1.700000*%
G04 #@! TD*
G04 #@! TA.AperFunction,ViaPad*
%ADD14C,0.800000*%
G04 #@! TD*
G04 APERTURE END LIST*
D10*
X134891106Y-106499999D03*
D11*
X121232233Y-113767767D03*
X124767767Y-113767767D03*
X124767767Y-110232233D03*
X121232233Y-110232233D03*
D12*
X125000000Y-98000000D03*
D13*
X125000000Y-100540000D03*
X122460000Y-98000000D03*
X122460000Y-100540000D03*
X119920000Y-98000000D03*
X119920000Y-100540000D03*
X117380000Y-98000000D03*
X117380000Y-100540000D03*
X114840000Y-98000000D03*
X114840000Y-100540000D03*
X114820000Y-125487500D03*
X114820000Y-122947500D03*
X117360000Y-125487500D03*
X117360000Y-122947500D03*
X119900000Y-125487500D03*
X119900000Y-122947500D03*
X122440000Y-125487500D03*
X122440000Y-122947500D03*
X124980000Y-125487500D03*
D12*
X124980000Y-122947500D03*
D14*
X114000000Y-103000000D03*
X110000000Y-103000000D03*
X110000000Y-105000000D03*
X112000000Y-103000000D03*
X112000000Y-105000000D03*
X112000000Y-107000000D03*
X110000000Y-107000000D03*
X110000000Y-109000000D03*
X110000000Y-111000000D03*
X110000000Y-113000000D03*
X110000000Y-115000000D03*
X110000000Y-117000000D03*
X133000000Y-104000000D03*
X129000000Y-100000000D03*
X120000000Y-112000000D03*
X134000000Y-118000000D03*
X136000000Y-118000000D03*
X136000000Y-120000000D03*
X136000000Y-122000000D03*
X136000000Y-124000000D03*
X136000000Y-126000000D03*
X136000000Y-128000000D03*
X136000000Y-130000000D03*
X134000000Y-130000000D03*
X132000000Y-130000000D03*
X130000000Y-130000000D03*
X128000000Y-130000000D03*
X126000000Y-130000000D03*
X124000000Y-130000000D03*
X122000000Y-130000000D03*
X120000000Y-130000000D03*
X118000000Y-130000000D03*
X116000000Y-130000000D03*
X114000000Y-130000000D03*
X114000000Y-128000000D03*
X116000000Y-128000000D03*
X118000000Y-128000000D03*
X110000000Y-125000000D03*
X112000000Y-125000000D03*
X110000000Y-121000000D03*
X110000000Y-123000000D03*
X112000000Y-123000000D03*
X112000000Y-117000000D03*
X112000000Y-115000000D03*
X112000000Y-113000000D03*
X112000000Y-111000000D03*
X112000000Y-109000000D03*
X119750000Y-121250000D03*
X118500000Y-120000000D03*
X117250000Y-118750000D03*
X116000000Y-117500000D03*
X124750000Y-102500000D03*
X122500000Y-104750000D03*
X120500000Y-106750000D03*
X118500000Y-108750000D03*
X118000000Y-114750000D03*
X123750000Y-120500000D03*
X120250000Y-117000000D03*
X130000000Y-127000000D03*
X131000000Y-124000000D03*
X130000000Y-122000000D03*
X123000000Y-117000000D03*
X125000000Y-119000000D03*
X127000000Y-119000000D03*
X127000000Y-117000000D03*
X125000000Y-117000000D03*
X125000000Y-106000000D03*
X129000000Y-108000000D03*
X127000000Y-108000000D03*
X111000000Y-100000000D03*
X113000000Y-98000000D03*
X111000000Y-96000000D03*
X113000000Y-94000000D03*
X113000000Y-96000000D03*
X115000000Y-96000000D03*
X117000000Y-94000000D03*
X117000000Y-96000000D03*
X119000000Y-96000000D03*
X121000000Y-96000000D03*
X121000000Y-94000000D03*
X125000000Y-94000000D03*
X129000000Y-94000000D03*
X129000000Y-96000000D03*
X131000000Y-96000000D03*
X133000000Y-100000000D03*
X133000000Y-98000000D03*
X135000000Y-100000000D03*
X129000000Y-104000000D03*
X127000000Y-104000000D03*
X129000000Y-106000000D03*
X127000000Y-106000000D03*
X131000000Y-106000000D03*
X127000000Y-98000000D03*
X131000000Y-102000000D03*
X135000000Y-102000000D03*
X135000000Y-98000000D03*
X131000000Y-98000000D03*
X111000000Y-98000000D03*
X111000000Y-94000000D03*
X115000000Y-94000000D03*
X119000000Y-94000000D03*
X123000000Y-94000000D03*
X127000000Y-94000000D03*
X131000000Y-94000000D03*
X127900000Y-115890000D03*
X134110000Y-115870000D03*
G04 #@! TA.AperFunction,Conductor*
G36*
X135973139Y-93202466D02*
G01*
X135978704Y-93202476D01*
X135992535Y-93205656D01*
X136006376Y-93202524D01*
X136007618Y-93202526D01*
X136019685Y-93203127D01*
X136090258Y-93210045D01*
X136137264Y-93214654D01*
X136161384Y-93219430D01*
X136266414Y-93251138D01*
X136288428Y-93257784D01*
X136311158Y-93267151D01*
X136355928Y-93290954D01*
X136428336Y-93329452D01*
X136448818Y-93343059D01*
X136452719Y-93346240D01*
X136551667Y-93426935D01*
X136569114Y-93444261D01*
X136653704Y-93546504D01*
X136667456Y-93566889D01*
X136730581Y-93683623D01*
X136740111Y-93706290D01*
X136779362Y-93833061D01*
X136784308Y-93857149D01*
X136796744Y-93975392D01*
X136797403Y-93987360D01*
X136794347Y-94001091D01*
X136797576Y-94014909D01*
X136797610Y-94021271D01*
X136799500Y-94037668D01*
X136799500Y-129955814D01*
X136797534Y-129973139D01*
X136797524Y-129978704D01*
X136794344Y-129992535D01*
X136797476Y-130006376D01*
X136797474Y-130007618D01*
X136796873Y-130019694D01*
X136785346Y-130137264D01*
X136780570Y-130161384D01*
X136742217Y-130288427D01*
X136732849Y-130311158D01*
X136703908Y-130365592D01*
X136670548Y-130428336D01*
X136656941Y-130448818D01*
X136573065Y-130551667D01*
X136555738Y-130569115D01*
X136453496Y-130653704D01*
X136433111Y-130667456D01*
X136316377Y-130730581D01*
X136293710Y-130740111D01*
X136166939Y-130779362D01*
X136142851Y-130784308D01*
X136094850Y-130789356D01*
X136024602Y-130796744D01*
X136012640Y-130797403D01*
X135998909Y-130794347D01*
X135985091Y-130797576D01*
X135978729Y-130797610D01*
X135962332Y-130799500D01*
X110034144Y-130799500D01*
X110012774Y-130797268D01*
X110010579Y-130797303D01*
X109996696Y-130794370D01*
X109982916Y-130797747D01*
X109982410Y-130797755D01*
X109969993Y-130797342D01*
X109895254Y-130791156D01*
X109852815Y-130787643D01*
X109827979Y-130783046D01*
X109827876Y-130783016D01*
X109701816Y-130746303D01*
X109678396Y-130736846D01*
X109562087Y-130675672D01*
X109541030Y-130661737D01*
X109439261Y-130578596D01*
X109421402Y-130560737D01*
X109338263Y-130458970D01*
X109324326Y-130437910D01*
X109319291Y-130428336D01*
X109263154Y-130321603D01*
X109253696Y-130298182D01*
X109216953Y-130172016D01*
X109212357Y-130147180D01*
X109202618Y-130029537D01*
X109202241Y-130017591D01*
X109205617Y-130004021D01*
X109202731Y-129990124D01*
X109202763Y-129988505D01*
X109200492Y-129966425D01*
X109200458Y-129790068D01*
X109200203Y-128500000D01*
X110190517Y-128500000D01*
X110210411Y-128727389D01*
X110269488Y-128947870D01*
X110271810Y-128952850D01*
X110271811Y-128952852D01*
X110363628Y-129149754D01*
X110363629Y-129149755D01*
X110365954Y-129154741D01*
X110496878Y-129341719D01*
X110658281Y-129503122D01*
X110845259Y-129634046D01*
X110850241Y-129636369D01*
X110850246Y-129636372D01*
X111047148Y-129728189D01*
X111052130Y-129730512D01*
X111057438Y-129731934D01*
X111057440Y-129731935D01*
X111267296Y-129788165D01*
X111272611Y-129789589D01*
X111371972Y-129798282D01*
X111440320Y-129804262D01*
X111440327Y-129804262D01*
X111443044Y-129804500D01*
X111556956Y-129804500D01*
X111559673Y-129804262D01*
X111559680Y-129804262D01*
X111628028Y-129798282D01*
X111727389Y-129789589D01*
X111732704Y-129788165D01*
X111942560Y-129731935D01*
X111942562Y-129731934D01*
X111947870Y-129730512D01*
X111952852Y-129728189D01*
X112149754Y-129636372D01*
X112149759Y-129636369D01*
X112154741Y-129634046D01*
X112341719Y-129503122D01*
X112503122Y-129341719D01*
X112634046Y-129154742D01*
X112636369Y-129149760D01*
X112636372Y-129149755D01*
X112728189Y-128952852D01*
X112728190Y-128952851D01*
X112730512Y-128947870D01*
X112789589Y-128727389D01*
X112809483Y-128500000D01*
X112789589Y-128272611D01*
X112730512Y-128052130D01*
X112728189Y-128047148D01*
X112636372Y-127850246D01*
X112636369Y-127850241D01*
X112634046Y-127845259D01*
X112503122Y-127658281D01*
X112341719Y-127496878D01*
X112154741Y-127365954D01*
X112149759Y-127363631D01*
X112149754Y-127363628D01*
X111952852Y-127271811D01*
X111952850Y-127271810D01*
X111947870Y-127269488D01*
X111942562Y-127268066D01*
X111942560Y-127268065D01*
X111732704Y-127211835D01*
X111732703Y-127211835D01*
X111727389Y-127210411D01*
X111628028Y-127201718D01*
X111559680Y-127195738D01*
X111559673Y-127195738D01*
X111556956Y-127195500D01*
X111443044Y-127195500D01*
X111440327Y-127195738D01*
X111440320Y-127195738D01*
X111371972Y-127201718D01*
X111272611Y-127210411D01*
X111267297Y-127211835D01*
X111267296Y-127211835D01*
X111057440Y-127268065D01*
X111057438Y-127268066D01*
X111052130Y-127269488D01*
X111047150Y-127271810D01*
X111047148Y-127271811D01*
X110850246Y-127363628D01*
X110850241Y-127363631D01*
X110845259Y-127365954D01*
X110658281Y-127496878D01*
X110496878Y-127658281D01*
X110365954Y-127845258D01*
X110363631Y-127850240D01*
X110363628Y-127850245D01*
X110363628Y-127850246D01*
X110269488Y-128052130D01*
X110210411Y-128272611D01*
X110190517Y-128500000D01*
X109200203Y-128500000D01*
X109199831Y-126612353D01*
X114059977Y-126612353D01*
X114065258Y-126619407D01*
X114226756Y-126713779D01*
X114236042Y-126718229D01*
X114435001Y-126794203D01*
X114444899Y-126797079D01*
X114653595Y-126839538D01*
X114663823Y-126840757D01*
X114876650Y-126848562D01*
X114886936Y-126848095D01*
X115098185Y-126821034D01*
X115108262Y-126818892D01*
X115312255Y-126757691D01*
X115321842Y-126753933D01*
X115513098Y-126660238D01*
X115521944Y-126654965D01*
X115569247Y-126621223D01*
X115577648Y-126610523D01*
X115570660Y-126597370D01*
X114832812Y-125859522D01*
X114818868Y-125851908D01*
X114817035Y-125852039D01*
X114810420Y-125856290D01*
X114066737Y-126599973D01*
X114059977Y-126612353D01*
X109199831Y-126612353D01*
X109199603Y-125459363D01*
X113458050Y-125459363D01*
X113470309Y-125671977D01*
X113471745Y-125682197D01*
X113518565Y-125889946D01*
X113521645Y-125899775D01*
X113601770Y-126097103D01*
X113606413Y-126106294D01*
X113686460Y-126236920D01*
X113696916Y-126246380D01*
X113705694Y-126242596D01*
X114447978Y-125500312D01*
X114454356Y-125488632D01*
X115184408Y-125488632D01*
X115184539Y-125490465D01*
X115188790Y-125497080D01*
X115930474Y-126238764D01*
X115942484Y-126245323D01*
X115954223Y-126236355D01*
X115985004Y-126193519D01*
X115990315Y-126184680D01*
X116084670Y-125993767D01*
X116088469Y-125984172D01*
X116129593Y-125848819D01*
X116168534Y-125789455D01*
X116233388Y-125760568D01*
X116303564Y-125771330D01*
X116356782Y-125818323D01*
X116371270Y-125850717D01*
X116378544Y-125876086D01*
X116381359Y-125881563D01*
X116381360Y-125881566D01*
X116469897Y-126053841D01*
X116472712Y-126059318D01*
X116600677Y-126220770D01*
X116757564Y-126354291D01*
X116937398Y-126454797D01*
X117032238Y-126485613D01*
X117127471Y-126516556D01*
X117127475Y-126516557D01*
X117133329Y-126518459D01*
X117337894Y-126542851D01*
X117344029Y-126542379D01*
X117344031Y-126542379D01*
X117400039Y-126538069D01*
X117543300Y-126527046D01*
X117549230Y-126525390D01*
X117549232Y-126525390D01*
X117735797Y-126473300D01*
X117735796Y-126473300D01*
X117741725Y-126471645D01*
X117747214Y-126468872D01*
X117747220Y-126468870D01*
X117920116Y-126381533D01*
X117925610Y-126378758D01*
X118087951Y-126251924D01*
X118092737Y-126246380D01*
X118218540Y-126100634D01*
X118218540Y-126100633D01*
X118222564Y-126095972D01*
X118243387Y-126059318D01*
X118261056Y-126028214D01*
X118324323Y-125916844D01*
X118389351Y-125721363D01*
X118415171Y-125516974D01*
X118415583Y-125487500D01*
X118414138Y-125472762D01*
X118844520Y-125472762D01*
X118861759Y-125678053D01*
X118863458Y-125683978D01*
X118912868Y-125856290D01*
X118918544Y-125876086D01*
X118921359Y-125881563D01*
X118921360Y-125881566D01*
X119009897Y-126053841D01*
X119012712Y-126059318D01*
X119140677Y-126220770D01*
X119297564Y-126354291D01*
X119477398Y-126454797D01*
X119572238Y-126485613D01*
X119667471Y-126516556D01*
X119667475Y-126516557D01*
X119673329Y-126518459D01*
X119877894Y-126542851D01*
X119884029Y-126542379D01*
X119884031Y-126542379D01*
X119940039Y-126538069D01*
X120083300Y-126527046D01*
X120089230Y-126525390D01*
X120089232Y-126525390D01*
X120275797Y-126473300D01*
X120275796Y-126473300D01*
X120281725Y-126471645D01*
X120287214Y-126468872D01*
X120287220Y-126468870D01*
X120460116Y-126381533D01*
X120465610Y-126378758D01*
X120627951Y-126251924D01*
X120632737Y-126246380D01*
X120758540Y-126100634D01*
X120758540Y-126100633D01*
X120762564Y-126095972D01*
X120783387Y-126059318D01*
X120801056Y-126028214D01*
X120864323Y-125916844D01*
X120929351Y-125721363D01*
X120955171Y-125516974D01*
X120955583Y-125487500D01*
X120954138Y-125472762D01*
X121384520Y-125472762D01*
X121401759Y-125678053D01*
X121403458Y-125683978D01*
X121452868Y-125856290D01*
X121458544Y-125876086D01*
X121461359Y-125881563D01*
X121461360Y-125881566D01*
X121549897Y-126053841D01*
X121552712Y-126059318D01*
X121680677Y-126220770D01*
X121837564Y-126354291D01*
X122017398Y-126454797D01*
X122112238Y-126485613D01*
X122207471Y-126516556D01*
X122207475Y-126516557D01*
X122213329Y-126518459D01*
X122417894Y-126542851D01*
X122424029Y-126542379D01*
X122424031Y-126542379D01*
X122480039Y-126538069D01*
X122623300Y-126527046D01*
X122629230Y-126525390D01*
X122629232Y-126525390D01*
X122815797Y-126473300D01*
X122815796Y-126473300D01*
X122821725Y-126471645D01*
X122827214Y-126468872D01*
X122827220Y-126468870D01*
X123000116Y-126381533D01*
X123005610Y-126378758D01*
X123167951Y-126251924D01*
X123172737Y-126246380D01*
X123298540Y-126100634D01*
X123298540Y-126100633D01*
X123302564Y-126095972D01*
X123323387Y-126059318D01*
X123341056Y-126028214D01*
X123404323Y-125916844D01*
X123469351Y-125721363D01*
X123495171Y-125516974D01*
X123495583Y-125487500D01*
X123494138Y-125472762D01*
X123924520Y-125472762D01*
X123941759Y-125678053D01*
X123943458Y-125683978D01*
X123992868Y-125856290D01*
X123998544Y-125876086D01*
X124001359Y-125881563D01*
X124001360Y-125881566D01*
X124089897Y-126053841D01*
X124092712Y-126059318D01*
X124220677Y-126220770D01*
X124377564Y-126354291D01*
X124557398Y-126454797D01*
X124652238Y-126485613D01*
X124747471Y-126516556D01*
X124747475Y-126516557D01*
X124753329Y-126518459D01*
X124957894Y-126542851D01*
X124964029Y-126542379D01*
X124964031Y-126542379D01*
X125020039Y-126538069D01*
X125163300Y-126527046D01*
X125169230Y-126525390D01*
X125169232Y-126525390D01*
X125355797Y-126473300D01*
X125355796Y-126473300D01*
X125361725Y-126471645D01*
X125367214Y-126468872D01*
X125367220Y-126468870D01*
X125540116Y-126381533D01*
X125545610Y-126378758D01*
X125707951Y-126251924D01*
X125712737Y-126246380D01*
X125838540Y-126100634D01*
X125838540Y-126100633D01*
X125842564Y-126095972D01*
X125863387Y-126059318D01*
X125881056Y-126028214D01*
X125944323Y-125916844D01*
X126009351Y-125721363D01*
X126035171Y-125516974D01*
X126035583Y-125487500D01*
X126015480Y-125282470D01*
X125955935Y-125085249D01*
X125859218Y-124903349D01*
X125783216Y-124810162D01*
X125732906Y-124748475D01*
X125732903Y-124748472D01*
X125729011Y-124743700D01*
X125724262Y-124739771D01*
X125575025Y-124616311D01*
X125575021Y-124616309D01*
X125570275Y-124612382D01*
X125389055Y-124514397D01*
X125192254Y-124453477D01*
X125186129Y-124452833D01*
X125186128Y-124452833D01*
X124993498Y-124432587D01*
X124993496Y-124432587D01*
X124987369Y-124431943D01*
X124900529Y-124439846D01*
X124788342Y-124450055D01*
X124788339Y-124450056D01*
X124782203Y-124450614D01*
X124584572Y-124508780D01*
X124402002Y-124604226D01*
X124397201Y-124608086D01*
X124397198Y-124608088D01*
X124386971Y-124616311D01*
X124241447Y-124733315D01*
X124109024Y-124891130D01*
X124106056Y-124896528D01*
X124106053Y-124896533D01*
X124099315Y-124908790D01*
X124009776Y-125071662D01*
X123947484Y-125268032D01*
X123946798Y-125274149D01*
X123946797Y-125274153D01*
X123927177Y-125449074D01*
X123924520Y-125472762D01*
X123494138Y-125472762D01*
X123475480Y-125282470D01*
X123415935Y-125085249D01*
X123319218Y-124903349D01*
X123243216Y-124810162D01*
X123192906Y-124748475D01*
X123192903Y-124748472D01*
X123189011Y-124743700D01*
X123184262Y-124739771D01*
X123035025Y-124616311D01*
X123035021Y-124616309D01*
X123030275Y-124612382D01*
X122849055Y-124514397D01*
X122652254Y-124453477D01*
X122646129Y-124452833D01*
X122646128Y-124452833D01*
X122453498Y-124432587D01*
X122453496Y-124432587D01*
X122447369Y-124431943D01*
X122360529Y-124439846D01*
X122248342Y-124450055D01*
X122248339Y-124450056D01*
X122242203Y-124450614D01*
X122044572Y-124508780D01*
X121862002Y-124604226D01*
X121857201Y-124608086D01*
X121857198Y-124608088D01*
X121846971Y-124616311D01*
X121701447Y-124733315D01*
X121569024Y-124891130D01*
X121566056Y-124896528D01*
X121566053Y-124896533D01*
X121559315Y-124908790D01*
X121469776Y-125071662D01*
X121407484Y-125268032D01*
X121406798Y-125274149D01*
X121406797Y-125274153D01*
X121387177Y-125449074D01*
X121384520Y-125472762D01*
X120954138Y-125472762D01*
X120935480Y-125282470D01*
X120875935Y-125085249D01*
X120779218Y-124903349D01*
X120703216Y-124810162D01*
X120652906Y-124748475D01*
X120652903Y-124748472D01*
X120649011Y-124743700D01*
X120644262Y-124739771D01*
X120495025Y-124616311D01*
X120495021Y-124616309D01*
X120490275Y-124612382D01*
X120309055Y-124514397D01*
X120112254Y-124453477D01*
X120106129Y-124452833D01*
X120106128Y-124452833D01*
X119913498Y-124432587D01*
X119913496Y-124432587D01*
X119907369Y-124431943D01*
X119820529Y-124439846D01*
X119708342Y-124450055D01*
X119708339Y-124450056D01*
X119702203Y-124450614D01*
X119504572Y-124508780D01*
X119322002Y-124604226D01*
X119317201Y-124608086D01*
X119317198Y-124608088D01*
X119306971Y-124616311D01*
X119161447Y-124733315D01*
X119029024Y-124891130D01*
X119026056Y-124896528D01*
X119026053Y-124896533D01*
X119019315Y-124908790D01*
X118929776Y-125071662D01*
X118867484Y-125268032D01*
X118866798Y-125274149D01*
X118866797Y-125274153D01*
X118847177Y-125449074D01*
X118844520Y-125472762D01*
X118414138Y-125472762D01*
X118395480Y-125282470D01*
X118335935Y-125085249D01*
X118239218Y-124903349D01*
X118163216Y-124810162D01*
X118112906Y-124748475D01*
X118112903Y-124748472D01*
X118109011Y-124743700D01*
X118104262Y-124739771D01*
X117955025Y-124616311D01*
X117955021Y-124616309D01*
X117950275Y-124612382D01*
X117769055Y-124514397D01*
X117572254Y-124453477D01*
X117566129Y-124452833D01*
X117566128Y-124452833D01*
X117373498Y-124432587D01*
X117373496Y-124432587D01*
X117367369Y-124431943D01*
X117280529Y-124439846D01*
X117168342Y-124450055D01*
X117168339Y-124450056D01*
X117162203Y-124450614D01*
X116964572Y-124508780D01*
X116782002Y-124604226D01*
X116777201Y-124608086D01*
X116777198Y-124608088D01*
X116766971Y-124616311D01*
X116621447Y-124733315D01*
X116489024Y-124891130D01*
X116486056Y-124896528D01*
X116486053Y-124896533D01*
X116479315Y-124908790D01*
X116389776Y-125071662D01*
X116387914Y-125077532D01*
X116371068Y-125130638D01*
X116331405Y-125189522D01*
X116266202Y-125217614D01*
X116196163Y-125205997D01*
X116143523Y-125158357D01*
X116128762Y-125123235D01*
X116111214Y-125053375D01*
X116107894Y-125043624D01*
X116022972Y-124848314D01*
X116018105Y-124839239D01*
X115953063Y-124738697D01*
X115942377Y-124729495D01*
X115932812Y-124733898D01*
X115192022Y-125474688D01*
X115184408Y-125488632D01*
X114454356Y-125488632D01*
X114455592Y-125486368D01*
X114455461Y-125484535D01*
X114451210Y-125477920D01*
X113709849Y-124736559D01*
X113698313Y-124730259D01*
X113686031Y-124739882D01*
X113638089Y-124810162D01*
X113633004Y-124819113D01*
X113543338Y-125012283D01*
X113539775Y-125021970D01*
X113482864Y-125227181D01*
X113480933Y-125237300D01*
X113458302Y-125449074D01*
X113458050Y-125459363D01*
X109199603Y-125459363D01*
X109199104Y-122932762D01*
X113764520Y-122932762D01*
X113781759Y-123138053D01*
X113838544Y-123336086D01*
X113841359Y-123341563D01*
X113841360Y-123341566D01*
X113862247Y-123382207D01*
X113932712Y-123519318D01*
X114060677Y-123680770D01*
X114217564Y-123814291D01*
X114397398Y-123914797D01*
X114462437Y-123935929D01*
X114521042Y-123976002D01*
X114548680Y-124041398D01*
X114536574Y-124111355D01*
X114488568Y-124163662D01*
X114462646Y-124175527D01*
X114296868Y-124229712D01*
X114287359Y-124233709D01*
X114098466Y-124332040D01*
X114089734Y-124337539D01*
X114069677Y-124352599D01*
X114061223Y-124363927D01*
X114067968Y-124376258D01*
X114807188Y-125115478D01*
X114821132Y-125123092D01*
X114822965Y-125122961D01*
X114829580Y-125118710D01*
X115573389Y-124374901D01*
X115580410Y-124362044D01*
X115573611Y-124352713D01*
X115569554Y-124350018D01*
X115383117Y-124247099D01*
X115373705Y-124242869D01*
X115182031Y-124174993D01*
X115124495Y-124133399D01*
X115098579Y-124067301D01*
X115112513Y-123997685D01*
X115161872Y-123946654D01*
X115190206Y-123934862D01*
X115195790Y-123933303D01*
X115195799Y-123933300D01*
X115201725Y-123931645D01*
X115207214Y-123928872D01*
X115207220Y-123928870D01*
X115380116Y-123841533D01*
X115385610Y-123838758D01*
X115547951Y-123711924D01*
X115609934Y-123640116D01*
X115678540Y-123560634D01*
X115678540Y-123560633D01*
X115682564Y-123555972D01*
X115703387Y-123519318D01*
X115781276Y-123382207D01*
X115784323Y-123376844D01*
X115849351Y-123181363D01*
X115875171Y-122976974D01*
X115875583Y-122947500D01*
X115874138Y-122932762D01*
X116304520Y-122932762D01*
X116321759Y-123138053D01*
X116378544Y-123336086D01*
X116381359Y-123341563D01*
X116381360Y-123341566D01*
X116402247Y-123382207D01*
X116472712Y-123519318D01*
X116600677Y-123680770D01*
X116757564Y-123814291D01*
X116937398Y-123914797D01*
X117028940Y-123944541D01*
X117127471Y-123976556D01*
X117127475Y-123976557D01*
X117133329Y-123978459D01*
X117337894Y-124002851D01*
X117344029Y-124002379D01*
X117344031Y-124002379D01*
X117404565Y-123997721D01*
X117543300Y-123987046D01*
X117549230Y-123985390D01*
X117549232Y-123985390D01*
X117675505Y-123950134D01*
X117741725Y-123931645D01*
X117747214Y-123928872D01*
X117747220Y-123928870D01*
X117920116Y-123841533D01*
X117925610Y-123838758D01*
X118087951Y-123711924D01*
X118149934Y-123640116D01*
X118218540Y-123560634D01*
X118218540Y-123560633D01*
X118222564Y-123555972D01*
X118243387Y-123519318D01*
X118321276Y-123382207D01*
X118324323Y-123376844D01*
X118389351Y-123181363D01*
X118415171Y-122976974D01*
X118415583Y-122947500D01*
X118414138Y-122932762D01*
X118844520Y-122932762D01*
X118861759Y-123138053D01*
X118918544Y-123336086D01*
X118921359Y-123341563D01*
X118921360Y-123341566D01*
X118942247Y-123382207D01*
X119012712Y-123519318D01*
X119140677Y-123680770D01*
X119297564Y-123814291D01*
X119477398Y-123914797D01*
X119568940Y-123944541D01*
X119667471Y-123976556D01*
X119667475Y-123976557D01*
X119673329Y-123978459D01*
X119877894Y-124002851D01*
X119884029Y-124002379D01*
X119884031Y-124002379D01*
X119944565Y-123997721D01*
X120083300Y-123987046D01*
X120089230Y-123985390D01*
X120089232Y-123985390D01*
X120215505Y-123950134D01*
X120281725Y-123931645D01*
X120287214Y-123928872D01*
X120287220Y-123928870D01*
X120460116Y-123841533D01*
X120465610Y-123838758D01*
X120627951Y-123711924D01*
X120689934Y-123640116D01*
X120758540Y-123560634D01*
X120758540Y-123560633D01*
X120762564Y-123555972D01*
X120783387Y-123519318D01*
X120861276Y-123382207D01*
X120864323Y-123376844D01*
X120929351Y-123181363D01*
X120955171Y-122976974D01*
X120955583Y-122947500D01*
X120954138Y-122932762D01*
X121384520Y-122932762D01*
X121401759Y-123138053D01*
X121458544Y-123336086D01*
X121461359Y-123341563D01*
X121461360Y-123341566D01*
X121482247Y-123382207D01*
X121552712Y-123519318D01*
X121680677Y-123680770D01*
X121837564Y-123814291D01*
X122017398Y-123914797D01*
X122108940Y-123944541D01*
X122207471Y-123976556D01*
X122207475Y-123976557D01*
X122213329Y-123978459D01*
X122417894Y-124002851D01*
X122424029Y-124002379D01*
X122424031Y-124002379D01*
X122484565Y-123997721D01*
X122623300Y-123987046D01*
X122629230Y-123985390D01*
X122629232Y-123985390D01*
X122755505Y-123950134D01*
X122821725Y-123931645D01*
X122827214Y-123928872D01*
X122827220Y-123928870D01*
X123000116Y-123841533D01*
X123005610Y-123838758D01*
X123167951Y-123711924D01*
X123229934Y-123640116D01*
X123263409Y-123601334D01*
X123929500Y-123601334D01*
X123932481Y-123632869D01*
X123977366Y-123760684D01*
X123982958Y-123768254D01*
X123982959Y-123768257D01*
X124016961Y-123814291D01*
X124057850Y-123869650D01*
X124065421Y-123875242D01*
X124159243Y-123944541D01*
X124159246Y-123944542D01*
X124166816Y-123950134D01*
X124294631Y-123995019D01*
X124302277Y-123995742D01*
X124302278Y-123995742D01*
X124308248Y-123996306D01*
X124326166Y-123998000D01*
X125633834Y-123998000D01*
X125651752Y-123996306D01*
X125657722Y-123995742D01*
X125657723Y-123995742D01*
X125665369Y-123995019D01*
X125793184Y-123950134D01*
X125800754Y-123944542D01*
X125800757Y-123944541D01*
X125894579Y-123875242D01*
X125902150Y-123869650D01*
X125943039Y-123814291D01*
X125977041Y-123768257D01*
X125977042Y-123768254D01*
X125982634Y-123760684D01*
X126027519Y-123632869D01*
X126030500Y-123601334D01*
X126030500Y-122293666D01*
X126027519Y-122262131D01*
X125982634Y-122134316D01*
X125977042Y-122126746D01*
X125977041Y-122126743D01*
X125907742Y-122032921D01*
X125902150Y-122025350D01*
X125885206Y-122012835D01*
X125800757Y-121950459D01*
X125800754Y-121950458D01*
X125793184Y-121944866D01*
X125665369Y-121899981D01*
X125657723Y-121899258D01*
X125657722Y-121899258D01*
X125651752Y-121898694D01*
X125633834Y-121897000D01*
X124326166Y-121897000D01*
X124308248Y-121898694D01*
X124302278Y-121899258D01*
X124302277Y-121899258D01*
X124294631Y-121899981D01*
X124166816Y-121944866D01*
X124159246Y-121950458D01*
X124159243Y-121950459D01*
X124074794Y-122012835D01*
X124057850Y-122025350D01*
X124052258Y-122032921D01*
X123982959Y-122126743D01*
X123982958Y-122126746D01*
X123977366Y-122134316D01*
X123932481Y-122262131D01*
X123929500Y-122293666D01*
X123929500Y-123601334D01*
X123263409Y-123601334D01*
X123298540Y-123560634D01*
X123298540Y-123560633D01*
X123302564Y-123555972D01*
X123323387Y-123519318D01*
X123401276Y-123382207D01*
X123404323Y-123376844D01*
X123469351Y-123181363D01*
X123495171Y-122976974D01*
X123495583Y-122947500D01*
X123475480Y-122742470D01*
X123415935Y-122545249D01*
X123319218Y-122363349D01*
X123230756Y-122254884D01*
X123192906Y-122208475D01*
X123192903Y-122208472D01*
X123189011Y-122203700D01*
X123115878Y-122143199D01*
X123035025Y-122076311D01*
X123035021Y-122076309D01*
X123030275Y-122072382D01*
X122849055Y-121974397D01*
X122652254Y-121913477D01*
X122646129Y-121912833D01*
X122646128Y-121912833D01*
X122453498Y-121892587D01*
X122453496Y-121892587D01*
X122447369Y-121891943D01*
X122366988Y-121899258D01*
X122248342Y-121910055D01*
X122248339Y-121910056D01*
X122242203Y-121910614D01*
X122044572Y-121968780D01*
X121862002Y-122064226D01*
X121857201Y-122068086D01*
X121857198Y-122068088D01*
X121846971Y-122076311D01*
X121701447Y-122193315D01*
X121569024Y-122351130D01*
X121566056Y-122356528D01*
X121566053Y-122356533D01*
X121559315Y-122368790D01*
X121469776Y-122531662D01*
X121407484Y-122728032D01*
X121406798Y-122734149D01*
X121406797Y-122734153D01*
X121385207Y-122926637D01*
X121384520Y-122932762D01*
X120954138Y-122932762D01*
X120935480Y-122742470D01*
X120875935Y-122545249D01*
X120779218Y-122363349D01*
X120690756Y-122254884D01*
X120652906Y-122208475D01*
X120652903Y-122208472D01*
X120649011Y-122203700D01*
X120575878Y-122143199D01*
X120495025Y-122076311D01*
X120495021Y-122076309D01*
X120490275Y-122072382D01*
X120309055Y-121974397D01*
X120112254Y-121913477D01*
X120106129Y-121912833D01*
X120106128Y-121912833D01*
X119913498Y-121892587D01*
X119913496Y-121892587D01*
X119907369Y-121891943D01*
X119826988Y-121899258D01*
X119708342Y-121910055D01*
X119708339Y-121910056D01*
X119702203Y-121910614D01*
X119504572Y-121968780D01*
X119322002Y-122064226D01*
X119317201Y-122068086D01*
X119317198Y-122068088D01*
X119306971Y-122076311D01*
X119161447Y-122193315D01*
X119029024Y-122351130D01*
X119026056Y-122356528D01*
X119026053Y-122356533D01*
X119019315Y-122368790D01*
X118929776Y-122531662D01*
X118867484Y-122728032D01*
X118866798Y-122734149D01*
X118866797Y-122734153D01*
X118845207Y-122926637D01*
X118844520Y-122932762D01*
X118414138Y-122932762D01*
X118395480Y-122742470D01*
X118335935Y-122545249D01*
X118239218Y-122363349D01*
X118150756Y-122254884D01*
X118112906Y-122208475D01*
X118112903Y-122208472D01*
X118109011Y-122203700D01*
X118035878Y-122143199D01*
X117955025Y-122076311D01*
X117955021Y-122076309D01*
X117950275Y-122072382D01*
X117769055Y-121974397D01*
X117572254Y-121913477D01*
X117566129Y-121912833D01*
X117566128Y-121912833D01*
X117373498Y-121892587D01*
X117373496Y-121892587D01*
X117367369Y-121891943D01*
X117286988Y-121899258D01*
X117168342Y-121910055D01*
X117168339Y-121910056D01*
X117162203Y-121910614D01*
X116964572Y-121968780D01*
X116782002Y-122064226D01*
X116777201Y-122068086D01*
X116777198Y-122068088D01*
X116766971Y-122076311D01*
X116621447Y-122193315D01*
X116489024Y-122351130D01*
X116486056Y-122356528D01*
X116486053Y-122356533D01*
X116479315Y-122368790D01*
X116389776Y-122531662D01*
X116327484Y-122728032D01*
X116326798Y-122734149D01*
X116326797Y-122734153D01*
X116305207Y-122926637D01*
X116304520Y-122932762D01*
X115874138Y-122932762D01*
X115855480Y-122742470D01*
X115795935Y-122545249D01*
X115699218Y-122363349D01*
X115610756Y-122254884D01*
X115572906Y-122208475D01*
X115572903Y-122208472D01*
X115569011Y-122203700D01*
X115495878Y-122143199D01*
X115415025Y-122076311D01*
X115415021Y-122076309D01*
X115410275Y-122072382D01*
X115229055Y-121974397D01*
X115032254Y-121913477D01*
X115026129Y-121912833D01*
X115026128Y-121912833D01*
X114833498Y-121892587D01*
X114833496Y-121892587D01*
X114827369Y-121891943D01*
X114746988Y-121899258D01*
X114628342Y-121910055D01*
X114628339Y-121910056D01*
X114622203Y-121910614D01*
X114424572Y-121968780D01*
X114242002Y-122064226D01*
X114237201Y-122068086D01*
X114237198Y-122068088D01*
X114226971Y-122076311D01*
X114081447Y-122193315D01*
X113949024Y-122351130D01*
X113946056Y-122356528D01*
X113946053Y-122356533D01*
X113939315Y-122368790D01*
X113849776Y-122531662D01*
X113787484Y-122728032D01*
X113786798Y-122734149D01*
X113786797Y-122734153D01*
X113765207Y-122926637D01*
X113764520Y-122932762D01*
X109199104Y-122932762D01*
X109197288Y-113732207D01*
X119777196Y-113732207D01*
X119777493Y-113737359D01*
X119777493Y-113737363D01*
X119790629Y-113965170D01*
X119790630Y-113965176D01*
X119790927Y-113970329D01*
X119843364Y-114203012D01*
X119845308Y-114207799D01*
X119845309Y-114207803D01*
X119884193Y-114303562D01*
X119933100Y-114424006D01*
X120057726Y-114627376D01*
X120213893Y-114807661D01*
X120397409Y-114960019D01*
X120603345Y-115080358D01*
X120826170Y-115165447D01*
X120831238Y-115166478D01*
X120831241Y-115166479D01*
X120946500Y-115189929D01*
X121059899Y-115213000D01*
X121065072Y-115213190D01*
X121065075Y-115213190D01*
X121293094Y-115221551D01*
X121293098Y-115221551D01*
X121298258Y-115221740D01*
X121303379Y-115221084D01*
X121529722Y-115192088D01*
X121529723Y-115192088D01*
X121534842Y-115191432D01*
X121763301Y-115122892D01*
X121977497Y-115017958D01*
X122058725Y-114960019D01*
X122167475Y-114882448D01*
X122171678Y-114879450D01*
X122340630Y-114711087D01*
X122479815Y-114517390D01*
X122528339Y-114419211D01*
X122583202Y-114308204D01*
X122583203Y-114308202D01*
X122585496Y-114303562D01*
X122654833Y-114075344D01*
X122655508Y-114070218D01*
X122685529Y-113842188D01*
X122685530Y-113842181D01*
X122685966Y-113838866D01*
X122687704Y-113767767D01*
X122684781Y-113732207D01*
X123312730Y-113732207D01*
X123313027Y-113737359D01*
X123313027Y-113737363D01*
X123326163Y-113965170D01*
X123326164Y-113965176D01*
X123326461Y-113970329D01*
X123378898Y-114203012D01*
X123380842Y-114207799D01*
X123380843Y-114207803D01*
X123419727Y-114303562D01*
X123468634Y-114424006D01*
X123593260Y-114627376D01*
X123749427Y-114807661D01*
X123932943Y-114960019D01*
X124138879Y-115080358D01*
X124361704Y-115165447D01*
X124366772Y-115166478D01*
X124366775Y-115166479D01*
X124482034Y-115189929D01*
X124595433Y-115213000D01*
X124600606Y-115213190D01*
X124600609Y-115213190D01*
X124828628Y-115221551D01*
X124828632Y-115221551D01*
X124833792Y-115221740D01*
X124838913Y-115221084D01*
X125065256Y-115192088D01*
X125065257Y-115192088D01*
X125070376Y-115191432D01*
X125298835Y-115122892D01*
X125513031Y-115017958D01*
X125594259Y-114960019D01*
X125703009Y-114882448D01*
X125707212Y-114879450D01*
X125876164Y-114711087D01*
X126015349Y-114517390D01*
X126063873Y-114419211D01*
X126118736Y-114308204D01*
X126118737Y-114308202D01*
X126121030Y-114303562D01*
X126190367Y-114075344D01*
X126191042Y-114070218D01*
X126221063Y-113842188D01*
X126221064Y-113842181D01*
X126221500Y-113838866D01*
X126223238Y-113767767D01*
X126215522Y-113673910D01*
X126204118Y-113535202D01*
X126204117Y-113535196D01*
X126203694Y-113530051D01*
X126145588Y-113298719D01*
X126133182Y-113270187D01*
X126052539Y-113084720D01*
X126052537Y-113084717D01*
X126050479Y-113079983D01*
X125920922Y-112879718D01*
X125892127Y-112848072D01*
X125763874Y-112707125D01*
X125763872Y-112707124D01*
X125760396Y-112703303D01*
X125756345Y-112700104D01*
X125756341Y-112700100D01*
X125577267Y-112558676D01*
X125577263Y-112558674D01*
X125573212Y-112555474D01*
X125533892Y-112533768D01*
X125517449Y-112524691D01*
X125364398Y-112440203D01*
X125359529Y-112438479D01*
X125359525Y-112438477D01*
X125144430Y-112362308D01*
X125144428Y-112362307D01*
X125139561Y-112360584D01*
X125022150Y-112339670D01*
X124909827Y-112319661D01*
X124909823Y-112319661D01*
X124904739Y-112318755D01*
X124820907Y-112317731D01*
X124671407Y-112315904D01*
X124671405Y-112315904D01*
X124666238Y-112315841D01*
X124430465Y-112351920D01*
X124203749Y-112426022D01*
X124199161Y-112428410D01*
X124199157Y-112428412D01*
X123996770Y-112533768D01*
X123992181Y-112536157D01*
X123988048Y-112539260D01*
X123988045Y-112539262D01*
X123805577Y-112676264D01*
X123801442Y-112679369D01*
X123636654Y-112851809D01*
X123502242Y-113048849D01*
X123401818Y-113265195D01*
X123338076Y-113495039D01*
X123312730Y-113732207D01*
X122684781Y-113732207D01*
X122679988Y-113673910D01*
X122668584Y-113535202D01*
X122668583Y-113535196D01*
X122668160Y-113530051D01*
X122610054Y-113298719D01*
X122597648Y-113270187D01*
X122517005Y-113084720D01*
X122517003Y-113084717D01*
X122514945Y-113079983D01*
X122385388Y-112879718D01*
X122356593Y-112848072D01*
X122228340Y-112707125D01*
X122228338Y-112707124D01*
X122224862Y-112703303D01*
X122220811Y-112700104D01*
X122220807Y-112700100D01*
X122041733Y-112558676D01*
X122041729Y-112558674D01*
X122037678Y-112555474D01*
X121998358Y-112533768D01*
X121981915Y-112524691D01*
X121828864Y-112440203D01*
X121823995Y-112438479D01*
X121823991Y-112438477D01*
X121608896Y-112362308D01*
X121608894Y-112362307D01*
X121604027Y-112360584D01*
X121486616Y-112339670D01*
X121374293Y-112319661D01*
X121374289Y-112319661D01*
X121369205Y-112318755D01*
X121285373Y-112317731D01*
X121135873Y-112315904D01*
X121135871Y-112315904D01*
X121130704Y-112315841D01*
X120894931Y-112351920D01*
X120668215Y-112426022D01*
X120663627Y-112428410D01*
X120663623Y-112428412D01*
X120461236Y-112533768D01*
X120456647Y-112536157D01*
X120452514Y-112539260D01*
X120452511Y-112539262D01*
X120270043Y-112676264D01*
X120265908Y-112679369D01*
X120101120Y-112851809D01*
X119966708Y-113048849D01*
X119866284Y-113265195D01*
X119802542Y-113495039D01*
X119777196Y-113732207D01*
X109197288Y-113732207D01*
X109196590Y-110196673D01*
X119777196Y-110196673D01*
X119777493Y-110201825D01*
X119777493Y-110201829D01*
X119790629Y-110429636D01*
X119790630Y-110429642D01*
X119790927Y-110434795D01*
X119843364Y-110667478D01*
X119845308Y-110672265D01*
X119845309Y-110672269D01*
X119884193Y-110768028D01*
X119933100Y-110888472D01*
X120057726Y-111091842D01*
X120213893Y-111272127D01*
X120397409Y-111424485D01*
X120603345Y-111544824D01*
X120826170Y-111629913D01*
X120831238Y-111630944D01*
X120831241Y-111630945D01*
X120946500Y-111654395D01*
X121059899Y-111677466D01*
X121065072Y-111677656D01*
X121065075Y-111677656D01*
X121293094Y-111686017D01*
X121293098Y-111686017D01*
X121298258Y-111686206D01*
X121303379Y-111685550D01*
X121529722Y-111656554D01*
X121529723Y-111656554D01*
X121534842Y-111655898D01*
X121763301Y-111587358D01*
X121977497Y-111482424D01*
X122058725Y-111424485D01*
X122167475Y-111346914D01*
X122171678Y-111343916D01*
X122340630Y-111175553D01*
X122479815Y-110981856D01*
X122528339Y-110883677D01*
X122583202Y-110772670D01*
X122583203Y-110772668D01*
X122585496Y-110768028D01*
X122654833Y-110539810D01*
X122655508Y-110534684D01*
X122685529Y-110306654D01*
X122685530Y-110306647D01*
X122685966Y-110303332D01*
X122687704Y-110232233D01*
X122684781Y-110196673D01*
X123312730Y-110196673D01*
X123313027Y-110201825D01*
X123313027Y-110201829D01*
X123326163Y-110429636D01*
X123326164Y-110429642D01*
X123326461Y-110434795D01*
X123378898Y-110667478D01*
X123380842Y-110672265D01*
X123380843Y-110672269D01*
X123419727Y-110768028D01*
X123468634Y-110888472D01*
X123593260Y-111091842D01*
X123749427Y-111272127D01*
X123932943Y-111424485D01*
X124138879Y-111544824D01*
X124361704Y-111629913D01*
X124366772Y-111630944D01*
X124366775Y-111630945D01*
X124482034Y-111654395D01*
X124595433Y-111677466D01*
X124600606Y-111677656D01*
X124600609Y-111677656D01*
X124828628Y-111686017D01*
X124828632Y-111686017D01*
X124833792Y-111686206D01*
X124838913Y-111685550D01*
X125065256Y-111656554D01*
X125065257Y-111656554D01*
X125070376Y-111655898D01*
X125298835Y-111587358D01*
X125513031Y-111482424D01*
X125594259Y-111424485D01*
X125703009Y-111346914D01*
X125707212Y-111343916D01*
X125876164Y-111175553D01*
X126015349Y-110981856D01*
X126063873Y-110883677D01*
X126118736Y-110772670D01*
X126118737Y-110772668D01*
X126121030Y-110768028D01*
X126190367Y-110539810D01*
X126191042Y-110534684D01*
X126221063Y-110306654D01*
X126221064Y-110306647D01*
X126221500Y-110303332D01*
X126223238Y-110232233D01*
X126215522Y-110138376D01*
X126204118Y-109999668D01*
X126204117Y-109999662D01*
X126203694Y-109994517D01*
X126145588Y-109763185D01*
X126133182Y-109734653D01*
X126052539Y-109549186D01*
X126052537Y-109549183D01*
X126050479Y-109544449D01*
X125920922Y-109344184D01*
X125892127Y-109312538D01*
X125763874Y-109171591D01*
X125763872Y-109171590D01*
X125760396Y-109167769D01*
X125756345Y-109164570D01*
X125756341Y-109164566D01*
X125577267Y-109023142D01*
X125577263Y-109023140D01*
X125573212Y-109019940D01*
X125533892Y-108998234D01*
X125517449Y-108989157D01*
X125364398Y-108904669D01*
X125359529Y-108902945D01*
X125359525Y-108902943D01*
X125144430Y-108826774D01*
X125144428Y-108826773D01*
X125139561Y-108825050D01*
X125022150Y-108804135D01*
X124909827Y-108784127D01*
X124909823Y-108784127D01*
X124904739Y-108783221D01*
X124820907Y-108782197D01*
X124671407Y-108780370D01*
X124671405Y-108780370D01*
X124666238Y-108780307D01*
X124430465Y-108816386D01*
X124203749Y-108890488D01*
X124199161Y-108892876D01*
X124199157Y-108892878D01*
X123996770Y-108998234D01*
X123992181Y-109000623D01*
X123988048Y-109003726D01*
X123988045Y-109003728D01*
X123805577Y-109140730D01*
X123801442Y-109143835D01*
X123636654Y-109316275D01*
X123502242Y-109513315D01*
X123401818Y-109729661D01*
X123338076Y-109959505D01*
X123312730Y-110196673D01*
X122684781Y-110196673D01*
X122679988Y-110138376D01*
X122668584Y-109999668D01*
X122668583Y-109999662D01*
X122668160Y-109994517D01*
X122610054Y-109763185D01*
X122597648Y-109734653D01*
X122517005Y-109549186D01*
X122517003Y-109549183D01*
X122514945Y-109544449D01*
X122385388Y-109344184D01*
X122356593Y-109312538D01*
X122228340Y-109171591D01*
X122228338Y-109171590D01*
X122224862Y-109167769D01*
X122220811Y-109164570D01*
X122220807Y-109164566D01*
X122041733Y-109023142D01*
X122041729Y-109023140D01*
X122037678Y-109019940D01*
X121998358Y-108998234D01*
X121981915Y-108989157D01*
X121828864Y-108904669D01*
X121823995Y-108902945D01*
X121823991Y-108902943D01*
X121608896Y-108826774D01*
X121608894Y-108826773D01*
X121604027Y-108825050D01*
X121486616Y-108804135D01*
X121374293Y-108784127D01*
X121374289Y-108784127D01*
X121369205Y-108783221D01*
X121285373Y-108782197D01*
X121135873Y-108780370D01*
X121135871Y-108780370D01*
X121130704Y-108780307D01*
X120894931Y-108816386D01*
X120668215Y-108890488D01*
X120663627Y-108892876D01*
X120663623Y-108892878D01*
X120461236Y-108998234D01*
X120456647Y-109000623D01*
X120452514Y-109003726D01*
X120452511Y-109003728D01*
X120270043Y-109140730D01*
X120265908Y-109143835D01*
X120101120Y-109316275D01*
X119966708Y-109513315D01*
X119866284Y-109729661D01*
X119802542Y-109959505D01*
X119777196Y-110196673D01*
X109196590Y-110196673D01*
X109195859Y-106492610D01*
X134185500Y-106492610D01*
X134204105Y-106661134D01*
X134262372Y-106820355D01*
X134266608Y-106826658D01*
X134266608Y-106826659D01*
X134279680Y-106846112D01*
X134356936Y-106961082D01*
X134362548Y-106966189D01*
X134362551Y-106966192D01*
X134476718Y-107070076D01*
X134476722Y-107070079D01*
X134482339Y-107075190D01*
X134489012Y-107078813D01*
X134489016Y-107078816D01*
X134624664Y-107152466D01*
X134624666Y-107152467D01*
X134631341Y-107156091D01*
X134638690Y-107158019D01*
X134787989Y-107197187D01*
X134787991Y-107197187D01*
X134795339Y-107199115D01*
X134881715Y-107200472D01*
X134957267Y-107201659D01*
X134957270Y-107201659D01*
X134964866Y-107201778D01*
X134972271Y-107200082D01*
X134972272Y-107200082D01*
X135032692Y-107186244D01*
X135130135Y-107163927D01*
X135281604Y-107087746D01*
X135410529Y-106977633D01*
X135509467Y-106839946D01*
X135517343Y-106820355D01*
X135569872Y-106689686D01*
X135569873Y-106689684D01*
X135572707Y-106682633D01*
X135596596Y-106514777D01*
X135596751Y-106499999D01*
X135594946Y-106485079D01*
X135577294Y-106339219D01*
X135576382Y-106331679D01*
X135516451Y-106173076D01*
X135420418Y-106033348D01*
X135408620Y-106022836D01*
X135299498Y-105925611D01*
X135299494Y-105925609D01*
X135293827Y-105920559D01*
X135143987Y-105841223D01*
X134979547Y-105799918D01*
X134971949Y-105799878D01*
X134971947Y-105799878D01*
X134894774Y-105799474D01*
X134810001Y-105799030D01*
X134802614Y-105800804D01*
X134802610Y-105800804D01*
X134659268Y-105835219D01*
X134645138Y-105838611D01*
X134638394Y-105842092D01*
X134638391Y-105842093D01*
X134633195Y-105844775D01*
X134494475Y-105916374D01*
X134366710Y-106027830D01*
X134269219Y-106166546D01*
X134207630Y-106324512D01*
X134185500Y-106492610D01*
X109195859Y-106492610D01*
X109194906Y-101664853D01*
X114079977Y-101664853D01*
X114085258Y-101671907D01*
X114246756Y-101766279D01*
X114256042Y-101770729D01*
X114455001Y-101846703D01*
X114464899Y-101849579D01*
X114673595Y-101892038D01*
X114683823Y-101893257D01*
X114896650Y-101901062D01*
X114906936Y-101900595D01*
X115118185Y-101873534D01*
X115128262Y-101871392D01*
X115332255Y-101810191D01*
X115341842Y-101806433D01*
X115533098Y-101712738D01*
X115541944Y-101707465D01*
X115589247Y-101673723D01*
X115597648Y-101663023D01*
X115590660Y-101649870D01*
X114852812Y-100912022D01*
X114838868Y-100904408D01*
X114837035Y-100904539D01*
X114830420Y-100908790D01*
X114086737Y-101652473D01*
X114079977Y-101664853D01*
X109194906Y-101664853D01*
X109194678Y-100511863D01*
X113478050Y-100511863D01*
X113490309Y-100724477D01*
X113491745Y-100734697D01*
X113538565Y-100942446D01*
X113541645Y-100952275D01*
X113621770Y-101149603D01*
X113626413Y-101158794D01*
X113706460Y-101289420D01*
X113716916Y-101298880D01*
X113725694Y-101295096D01*
X114467978Y-100552812D01*
X114474356Y-100541132D01*
X115204408Y-100541132D01*
X115204539Y-100542965D01*
X115208790Y-100549580D01*
X115950474Y-101291264D01*
X115962484Y-101297823D01*
X115974223Y-101288855D01*
X116005004Y-101246019D01*
X116010315Y-101237180D01*
X116104670Y-101046267D01*
X116108469Y-101036672D01*
X116149593Y-100901319D01*
X116188534Y-100841955D01*
X116253388Y-100813068D01*
X116323564Y-100823830D01*
X116376782Y-100870823D01*
X116391270Y-100903217D01*
X116398544Y-100928586D01*
X116401359Y-100934063D01*
X116401360Y-100934066D01*
X116489897Y-101106341D01*
X116492712Y-101111818D01*
X116620677Y-101273270D01*
X116777564Y-101406791D01*
X116957398Y-101507297D01*
X117052238Y-101538113D01*
X117147471Y-101569056D01*
X117147475Y-101569057D01*
X117153329Y-101570959D01*
X117357894Y-101595351D01*
X117364029Y-101594879D01*
X117364031Y-101594879D01*
X117420039Y-101590569D01*
X117563300Y-101579546D01*
X117569230Y-101577890D01*
X117569232Y-101577890D01*
X117755797Y-101525800D01*
X117755796Y-101525800D01*
X117761725Y-101524145D01*
X117767214Y-101521372D01*
X117767220Y-101521370D01*
X117940116Y-101434033D01*
X117945610Y-101431258D01*
X118107951Y-101304424D01*
X118112737Y-101298880D01*
X118238540Y-101153134D01*
X118238540Y-101153133D01*
X118242564Y-101148472D01*
X118263387Y-101111818D01*
X118281056Y-101080714D01*
X118344323Y-100969344D01*
X118409351Y-100773863D01*
X118435171Y-100569474D01*
X118435583Y-100540000D01*
X118434138Y-100525262D01*
X118864520Y-100525262D01*
X118881759Y-100730553D01*
X118883458Y-100736478D01*
X118932868Y-100908790D01*
X118938544Y-100928586D01*
X118941359Y-100934063D01*
X118941360Y-100934066D01*
X119029897Y-101106341D01*
X119032712Y-101111818D01*
X119160677Y-101273270D01*
X119317564Y-101406791D01*
X119497398Y-101507297D01*
X119592238Y-101538113D01*
X119687471Y-101569056D01*
X119687475Y-101569057D01*
X119693329Y-101570959D01*
X119897894Y-101595351D01*
X119904029Y-101594879D01*
X119904031Y-101594879D01*
X119960039Y-101590569D01*
X120103300Y-101579546D01*
X120109230Y-101577890D01*
X120109232Y-101577890D01*
X120295797Y-101525800D01*
X120295796Y-101525800D01*
X120301725Y-101524145D01*
X120307214Y-101521372D01*
X120307220Y-101521370D01*
X120480116Y-101434033D01*
X120485610Y-101431258D01*
X120647951Y-101304424D01*
X120652737Y-101298880D01*
X120778540Y-101153134D01*
X120778540Y-101153133D01*
X120782564Y-101148472D01*
X120803387Y-101111818D01*
X120821056Y-101080714D01*
X120884323Y-100969344D01*
X120949351Y-100773863D01*
X120975171Y-100569474D01*
X120975583Y-100540000D01*
X120974138Y-100525262D01*
X121404520Y-100525262D01*
X121421759Y-100730553D01*
X121423458Y-100736478D01*
X121472868Y-100908790D01*
X121478544Y-100928586D01*
X121481359Y-100934063D01*
X121481360Y-100934066D01*
X121569897Y-101106341D01*
X121572712Y-101111818D01*
X121700677Y-101273270D01*
X121857564Y-101406791D01*
X122037398Y-101507297D01*
X122132238Y-101538113D01*
X122227471Y-101569056D01*
X122227475Y-101569057D01*
X122233329Y-101570959D01*
X122437894Y-101595351D01*
X122444029Y-101594879D01*
X122444031Y-101594879D01*
X122500039Y-101590569D01*
X122643300Y-101579546D01*
X122649230Y-101577890D01*
X122649232Y-101577890D01*
X122835797Y-101525800D01*
X122835796Y-101525800D01*
X122841725Y-101524145D01*
X122847214Y-101521372D01*
X122847220Y-101521370D01*
X123020116Y-101434033D01*
X123025610Y-101431258D01*
X123187951Y-101304424D01*
X123192737Y-101298880D01*
X123318540Y-101153134D01*
X123318540Y-101153133D01*
X123322564Y-101148472D01*
X123343387Y-101111818D01*
X123361056Y-101080714D01*
X123424323Y-100969344D01*
X123489351Y-100773863D01*
X123515171Y-100569474D01*
X123515583Y-100540000D01*
X123514138Y-100525262D01*
X123944520Y-100525262D01*
X123961759Y-100730553D01*
X123963458Y-100736478D01*
X124012868Y-100908790D01*
X124018544Y-100928586D01*
X124021359Y-100934063D01*
X124021360Y-100934066D01*
X124109897Y-101106341D01*
X124112712Y-101111818D01*
X124240677Y-101273270D01*
X124397564Y-101406791D01*
X124577398Y-101507297D01*
X124672238Y-101538113D01*
X124767471Y-101569056D01*
X124767475Y-101569057D01*
X124773329Y-101570959D01*
X124977894Y-101595351D01*
X124984029Y-101594879D01*
X124984031Y-101594879D01*
X125040039Y-101590569D01*
X125183300Y-101579546D01*
X125189230Y-101577890D01*
X125189232Y-101577890D01*
X125375797Y-101525800D01*
X125375796Y-101525800D01*
X125381725Y-101524145D01*
X125387214Y-101521372D01*
X125387220Y-101521370D01*
X125560116Y-101434033D01*
X125565610Y-101431258D01*
X125727951Y-101304424D01*
X125732737Y-101298880D01*
X125858540Y-101153134D01*
X125858540Y-101153133D01*
X125862564Y-101148472D01*
X125883387Y-101111818D01*
X125901056Y-101080714D01*
X125964323Y-100969344D01*
X126029351Y-100773863D01*
X126055171Y-100569474D01*
X126055583Y-100540000D01*
X126035480Y-100334970D01*
X125975935Y-100137749D01*
X125879218Y-99955849D01*
X125803216Y-99862662D01*
X125752906Y-99800975D01*
X125752903Y-99800972D01*
X125749011Y-99796200D01*
X125744262Y-99792271D01*
X125595025Y-99668811D01*
X125595021Y-99668809D01*
X125590275Y-99664882D01*
X125409055Y-99566897D01*
X125212254Y-99505977D01*
X125206129Y-99505333D01*
X125206128Y-99505333D01*
X125013498Y-99485087D01*
X125013496Y-99485087D01*
X125007369Y-99484443D01*
X124920529Y-99492346D01*
X124808342Y-99502555D01*
X124808339Y-99502556D01*
X124802203Y-99503114D01*
X124604572Y-99561280D01*
X124422002Y-99656726D01*
X124417201Y-99660586D01*
X124417198Y-99660588D01*
X124406971Y-99668811D01*
X124261447Y-99785815D01*
X124129024Y-99943630D01*
X124126056Y-99949028D01*
X124126053Y-99949033D01*
X124119315Y-99961290D01*
X124029776Y-100124162D01*
X123967484Y-100320532D01*
X123966798Y-100326649D01*
X123966797Y-100326653D01*
X123947177Y-100501574D01*
X123944520Y-100525262D01*
X123514138Y-100525262D01*
X123495480Y-100334970D01*
X123435935Y-100137749D01*
X123339218Y-99955849D01*
X123263216Y-99862662D01*
X123212906Y-99800975D01*
X123212903Y-99800972D01*
X123209011Y-99796200D01*
X123204262Y-99792271D01*
X123055025Y-99668811D01*
X123055021Y-99668809D01*
X123050275Y-99664882D01*
X122869055Y-99566897D01*
X122672254Y-99505977D01*
X122666129Y-99505333D01*
X122666128Y-99505333D01*
X122473498Y-99485087D01*
X122473496Y-99485087D01*
X122467369Y-99484443D01*
X122380529Y-99492346D01*
X122268342Y-99502555D01*
X122268339Y-99502556D01*
X122262203Y-99503114D01*
X122064572Y-99561280D01*
X121882002Y-99656726D01*
X121877201Y-99660586D01*
X121877198Y-99660588D01*
X121866971Y-99668811D01*
X121721447Y-99785815D01*
X121589024Y-99943630D01*
X121586056Y-99949028D01*
X121586053Y-99949033D01*
X121579315Y-99961290D01*
X121489776Y-100124162D01*
X121427484Y-100320532D01*
X121426798Y-100326649D01*
X121426797Y-100326653D01*
X121407177Y-100501574D01*
X121404520Y-100525262D01*
X120974138Y-100525262D01*
X120955480Y-100334970D01*
X120895935Y-100137749D01*
X120799218Y-99955849D01*
X120723216Y-99862662D01*
X120672906Y-99800975D01*
X120672903Y-99800972D01*
X120669011Y-99796200D01*
X120664262Y-99792271D01*
X120515025Y-99668811D01*
X120515021Y-99668809D01*
X120510275Y-99664882D01*
X120329055Y-99566897D01*
X120132254Y-99505977D01*
X120126129Y-99505333D01*
X120126128Y-99505333D01*
X119933498Y-99485087D01*
X119933496Y-99485087D01*
X119927369Y-99484443D01*
X119840529Y-99492346D01*
X119728342Y-99502555D01*
X119728339Y-99502556D01*
X119722203Y-99503114D01*
X119524572Y-99561280D01*
X119342002Y-99656726D01*
X119337201Y-99660586D01*
X119337198Y-99660588D01*
X119326971Y-99668811D01*
X119181447Y-99785815D01*
X119049024Y-99943630D01*
X119046056Y-99949028D01*
X119046053Y-99949033D01*
X119039315Y-99961290D01*
X118949776Y-100124162D01*
X118887484Y-100320532D01*
X118886798Y-100326649D01*
X118886797Y-100326653D01*
X118867177Y-100501574D01*
X118864520Y-100525262D01*
X118434138Y-100525262D01*
X118415480Y-100334970D01*
X118355935Y-100137749D01*
X118259218Y-99955849D01*
X118183216Y-99862662D01*
X118132906Y-99800975D01*
X118132903Y-99800972D01*
X118129011Y-99796200D01*
X118124262Y-99792271D01*
X117975025Y-99668811D01*
X117975021Y-99668809D01*
X117970275Y-99664882D01*
X117789055Y-99566897D01*
X117592254Y-99505977D01*
X117586129Y-99505333D01*
X117586128Y-99505333D01*
X117393498Y-99485087D01*
X117393496Y-99485087D01*
X117387369Y-99484443D01*
X117300529Y-99492346D01*
X117188342Y-99502555D01*
X117188339Y-99502556D01*
X117182203Y-99503114D01*
X116984572Y-99561280D01*
X116802002Y-99656726D01*
X116797201Y-99660586D01*
X116797198Y-99660588D01*
X116786971Y-99668811D01*
X116641447Y-99785815D01*
X116509024Y-99943630D01*
X116506056Y-99949028D01*
X116506053Y-99949033D01*
X116499315Y-99961290D01*
X116409776Y-100124162D01*
X116407914Y-100130032D01*
X116391068Y-100183138D01*
X116351405Y-100242022D01*
X116286202Y-100270114D01*
X116216163Y-100258497D01*
X116163523Y-100210857D01*
X116148762Y-100175735D01*
X116131214Y-100105875D01*
X116127894Y-100096124D01*
X116042972Y-99900814D01*
X116038105Y-99891739D01*
X115973063Y-99791197D01*
X115962377Y-99781995D01*
X115952812Y-99786398D01*
X115212022Y-100527188D01*
X115204408Y-100541132D01*
X114474356Y-100541132D01*
X114475592Y-100538868D01*
X114475461Y-100537035D01*
X114471210Y-100530420D01*
X113729849Y-99789059D01*
X113718313Y-99782759D01*
X113706031Y-99792382D01*
X113658089Y-99862662D01*
X113653004Y-99871613D01*
X113563338Y-100064783D01*
X113559775Y-100074470D01*
X113502864Y-100279681D01*
X113500933Y-100289800D01*
X113478302Y-100501574D01*
X113478050Y-100511863D01*
X109194678Y-100511863D01*
X109194301Y-98603114D01*
X109194179Y-97985262D01*
X113784520Y-97985262D01*
X113801759Y-98190553D01*
X113858544Y-98388586D01*
X113861359Y-98394063D01*
X113861360Y-98394066D01*
X113882247Y-98434707D01*
X113952712Y-98571818D01*
X114080677Y-98733270D01*
X114237564Y-98866791D01*
X114417398Y-98967297D01*
X114482437Y-98988429D01*
X114541042Y-99028502D01*
X114568680Y-99093898D01*
X114556574Y-99163855D01*
X114508568Y-99216162D01*
X114482646Y-99228027D01*
X114316868Y-99282212D01*
X114307359Y-99286209D01*
X114118466Y-99384540D01*
X114109734Y-99390039D01*
X114089677Y-99405099D01*
X114081223Y-99416427D01*
X114087968Y-99428758D01*
X114827188Y-100167978D01*
X114841132Y-100175592D01*
X114842965Y-100175461D01*
X114849580Y-100171210D01*
X115593389Y-99427401D01*
X115600410Y-99414544D01*
X115593611Y-99405213D01*
X115589554Y-99402518D01*
X115403117Y-99299599D01*
X115393705Y-99295369D01*
X115202031Y-99227493D01*
X115144495Y-99185899D01*
X115118579Y-99119801D01*
X115132513Y-99050185D01*
X115181872Y-98999154D01*
X115210206Y-98987362D01*
X115215790Y-98985803D01*
X115215799Y-98985800D01*
X115221725Y-98984145D01*
X115227214Y-98981372D01*
X115227220Y-98981370D01*
X115400116Y-98894033D01*
X115405610Y-98891258D01*
X115567951Y-98764424D01*
X115629934Y-98692616D01*
X115698540Y-98613134D01*
X115698540Y-98613133D01*
X115702564Y-98608472D01*
X115723387Y-98571818D01*
X115801276Y-98434707D01*
X115804323Y-98429344D01*
X115869351Y-98233863D01*
X115895171Y-98029474D01*
X115895583Y-98000000D01*
X115894138Y-97985262D01*
X116324520Y-97985262D01*
X116341759Y-98190553D01*
X116398544Y-98388586D01*
X116401359Y-98394063D01*
X116401360Y-98394066D01*
X116422247Y-98434707D01*
X116492712Y-98571818D01*
X116620677Y-98733270D01*
X116777564Y-98866791D01*
X116957398Y-98967297D01*
X117048940Y-98997041D01*
X117147471Y-99029056D01*
X117147475Y-99029057D01*
X117153329Y-99030959D01*
X117357894Y-99055351D01*
X117364029Y-99054879D01*
X117364031Y-99054879D01*
X117424565Y-99050221D01*
X117563300Y-99039546D01*
X117569230Y-99037890D01*
X117569232Y-99037890D01*
X117695505Y-99002634D01*
X117761725Y-98984145D01*
X117767214Y-98981372D01*
X117767220Y-98981370D01*
X117940116Y-98894033D01*
X117945610Y-98891258D01*
X118107951Y-98764424D01*
X118169934Y-98692616D01*
X118238540Y-98613134D01*
X118238540Y-98613133D01*
X118242564Y-98608472D01*
X118263387Y-98571818D01*
X118341276Y-98434707D01*
X118344323Y-98429344D01*
X118409351Y-98233863D01*
X118435171Y-98029474D01*
X118435583Y-98000000D01*
X118434138Y-97985262D01*
X118864520Y-97985262D01*
X118881759Y-98190553D01*
X118938544Y-98388586D01*
X118941359Y-98394063D01*
X118941360Y-98394066D01*
X118962247Y-98434707D01*
X119032712Y-98571818D01*
X119160677Y-98733270D01*
X119317564Y-98866791D01*
X119497398Y-98967297D01*
X119588940Y-98997041D01*
X119687471Y-99029056D01*
X119687475Y-99029057D01*
X119693329Y-99030959D01*
X119897894Y-99055351D01*
X119904029Y-99054879D01*
X119904031Y-99054879D01*
X119964565Y-99050221D01*
X120103300Y-99039546D01*
X120109230Y-99037890D01*
X120109232Y-99037890D01*
X120235505Y-99002634D01*
X120301725Y-98984145D01*
X120307214Y-98981372D01*
X120307220Y-98981370D01*
X120480116Y-98894033D01*
X120485610Y-98891258D01*
X120647951Y-98764424D01*
X120709934Y-98692616D01*
X120778540Y-98613134D01*
X120778540Y-98613133D01*
X120782564Y-98608472D01*
X120803387Y-98571818D01*
X120881276Y-98434707D01*
X120884323Y-98429344D01*
X120949351Y-98233863D01*
X120975171Y-98029474D01*
X120975583Y-98000000D01*
X120974138Y-97985262D01*
X121404520Y-97985262D01*
X121421759Y-98190553D01*
X121478544Y-98388586D01*
X121481359Y-98394063D01*
X121481360Y-98394066D01*
X121502247Y-98434707D01*
X121572712Y-98571818D01*
X121700677Y-98733270D01*
X121857564Y-98866791D01*
X122037398Y-98967297D01*
X122128940Y-98997041D01*
X122227471Y-99029056D01*
X122227475Y-99029057D01*
X122233329Y-99030959D01*
X122437894Y-99055351D01*
X122444029Y-99054879D01*
X122444031Y-99054879D01*
X122504565Y-99050221D01*
X122643300Y-99039546D01*
X122649230Y-99037890D01*
X122649232Y-99037890D01*
X122775505Y-99002634D01*
X122841725Y-98984145D01*
X122847214Y-98981372D01*
X122847220Y-98981370D01*
X123020116Y-98894033D01*
X123025610Y-98891258D01*
X123187951Y-98764424D01*
X123249934Y-98692616D01*
X123283409Y-98653834D01*
X123949500Y-98653834D01*
X123952481Y-98685369D01*
X123997366Y-98813184D01*
X124002958Y-98820754D01*
X124002959Y-98820757D01*
X124036961Y-98866791D01*
X124077850Y-98922150D01*
X124085421Y-98927742D01*
X124179243Y-98997041D01*
X124179246Y-98997042D01*
X124186816Y-99002634D01*
X124314631Y-99047519D01*
X124322277Y-99048242D01*
X124322278Y-99048242D01*
X124328248Y-99048806D01*
X124346166Y-99050500D01*
X125653834Y-99050500D01*
X125671752Y-99048806D01*
X125677722Y-99048242D01*
X125677723Y-99048242D01*
X125685369Y-99047519D01*
X125813184Y-99002634D01*
X125820754Y-98997042D01*
X125820757Y-98997041D01*
X125914579Y-98927742D01*
X125922150Y-98922150D01*
X125963039Y-98866791D01*
X125997041Y-98820757D01*
X125997042Y-98820754D01*
X126002634Y-98813184D01*
X126047519Y-98685369D01*
X126050500Y-98653834D01*
X126050500Y-97346166D01*
X126047519Y-97314631D01*
X126002634Y-97186816D01*
X125997042Y-97179246D01*
X125997041Y-97179243D01*
X125927742Y-97085421D01*
X125922150Y-97077850D01*
X125905206Y-97065335D01*
X125820757Y-97002959D01*
X125820754Y-97002958D01*
X125813184Y-96997366D01*
X125685369Y-96952481D01*
X125677723Y-96951758D01*
X125677722Y-96951758D01*
X125671752Y-96951194D01*
X125653834Y-96949500D01*
X124346166Y-96949500D01*
X124328248Y-96951194D01*
X124322278Y-96951758D01*
X124322277Y-96951758D01*
X124314631Y-96952481D01*
X124186816Y-96997366D01*
X124179246Y-97002958D01*
X124179243Y-97002959D01*
X124094794Y-97065335D01*
X124077850Y-97077850D01*
X124072258Y-97085421D01*
X124002959Y-97179243D01*
X124002958Y-97179246D01*
X123997366Y-97186816D01*
X123952481Y-97314631D01*
X123949500Y-97346166D01*
X123949500Y-98653834D01*
X123283409Y-98653834D01*
X123318540Y-98613134D01*
X123318540Y-98613133D01*
X123322564Y-98608472D01*
X123343387Y-98571818D01*
X123421276Y-98434707D01*
X123424323Y-98429344D01*
X123489351Y-98233863D01*
X123515171Y-98029474D01*
X123515583Y-98000000D01*
X123495480Y-97794970D01*
X123435935Y-97597749D01*
X123339218Y-97415849D01*
X123250756Y-97307384D01*
X123212906Y-97260975D01*
X123212903Y-97260972D01*
X123209011Y-97256200D01*
X123135878Y-97195699D01*
X123055025Y-97128811D01*
X123055021Y-97128809D01*
X123050275Y-97124882D01*
X122869055Y-97026897D01*
X122672254Y-96965977D01*
X122666129Y-96965333D01*
X122666128Y-96965333D01*
X122473498Y-96945087D01*
X122473496Y-96945087D01*
X122467369Y-96944443D01*
X122386988Y-96951758D01*
X122268342Y-96962555D01*
X122268339Y-96962556D01*
X122262203Y-96963114D01*
X122064572Y-97021280D01*
X121882002Y-97116726D01*
X121877201Y-97120586D01*
X121877198Y-97120588D01*
X121866971Y-97128811D01*
X121721447Y-97245815D01*
X121589024Y-97403630D01*
X121586056Y-97409028D01*
X121586053Y-97409033D01*
X121579315Y-97421290D01*
X121489776Y-97584162D01*
X121427484Y-97780532D01*
X121426798Y-97786649D01*
X121426797Y-97786653D01*
X121405207Y-97979137D01*
X121404520Y-97985262D01*
X120974138Y-97985262D01*
X120955480Y-97794970D01*
X120895935Y-97597749D01*
X120799218Y-97415849D01*
X120710756Y-97307384D01*
X120672906Y-97260975D01*
X120672903Y-97260972D01*
X120669011Y-97256200D01*
X120595878Y-97195699D01*
X120515025Y-97128811D01*
X120515021Y-97128809D01*
X120510275Y-97124882D01*
X120329055Y-97026897D01*
X120132254Y-96965977D01*
X120126129Y-96965333D01*
X120126128Y-96965333D01*
X119933498Y-96945087D01*
X119933496Y-96945087D01*
X119927369Y-96944443D01*
X119846988Y-96951758D01*
X119728342Y-96962555D01*
X119728339Y-96962556D01*
X119722203Y-96963114D01*
X119524572Y-97021280D01*
X119342002Y-97116726D01*
X119337201Y-97120586D01*
X119337198Y-97120588D01*
X119326971Y-97128811D01*
X119181447Y-97245815D01*
X119049024Y-97403630D01*
X119046056Y-97409028D01*
X119046053Y-97409033D01*
X119039315Y-97421290D01*
X118949776Y-97584162D01*
X118887484Y-97780532D01*
X118886798Y-97786649D01*
X118886797Y-97786653D01*
X118865207Y-97979137D01*
X118864520Y-97985262D01*
X118434138Y-97985262D01*
X118415480Y-97794970D01*
X118355935Y-97597749D01*
X118259218Y-97415849D01*
X118170756Y-97307384D01*
X118132906Y-97260975D01*
X118132903Y-97260972D01*
X118129011Y-97256200D01*
X118055878Y-97195699D01*
X117975025Y-97128811D01*
X117975021Y-97128809D01*
X117970275Y-97124882D01*
X117789055Y-97026897D01*
X117592254Y-96965977D01*
X117586129Y-96965333D01*
X117586128Y-96965333D01*
X117393498Y-96945087D01*
X117393496Y-96945087D01*
X117387369Y-96944443D01*
X117306988Y-96951758D01*
X117188342Y-96962555D01*
X117188339Y-96962556D01*
X117182203Y-96963114D01*
X116984572Y-97021280D01*
X116802002Y-97116726D01*
X116797201Y-97120586D01*
X116797198Y-97120588D01*
X116786971Y-97128811D01*
X116641447Y-97245815D01*
X116509024Y-97403630D01*
X116506056Y-97409028D01*
X116506053Y-97409033D01*
X116499315Y-97421290D01*
X116409776Y-97584162D01*
X116347484Y-97780532D01*
X116346798Y-97786649D01*
X116346797Y-97786653D01*
X116325207Y-97979137D01*
X116324520Y-97985262D01*
X115894138Y-97985262D01*
X115875480Y-97794970D01*
X115815935Y-97597749D01*
X115719218Y-97415849D01*
X115630756Y-97307384D01*
X115592906Y-97260975D01*
X115592903Y-97260972D01*
X115589011Y-97256200D01*
X115515878Y-97195699D01*
X115435025Y-97128811D01*
X115435021Y-97128809D01*
X115430275Y-97124882D01*
X115249055Y-97026897D01*
X115052254Y-96965977D01*
X115046129Y-96965333D01*
X115046128Y-96965333D01*
X114853498Y-96945087D01*
X114853496Y-96945087D01*
X114847369Y-96944443D01*
X114766988Y-96951758D01*
X114648342Y-96962555D01*
X114648339Y-96962556D01*
X114642203Y-96963114D01*
X114444572Y-97021280D01*
X114262002Y-97116726D01*
X114257201Y-97120586D01*
X114257198Y-97120588D01*
X114246971Y-97128811D01*
X114101447Y-97245815D01*
X113969024Y-97403630D01*
X113966056Y-97409028D01*
X113966053Y-97409033D01*
X113959315Y-97421290D01*
X113869776Y-97584162D01*
X113807484Y-97780532D01*
X113806798Y-97786649D01*
X113806797Y-97786653D01*
X113785207Y-97979137D01*
X113784520Y-97985262D01*
X109194179Y-97985262D01*
X109193688Y-95500000D01*
X133190517Y-95500000D01*
X133210411Y-95727389D01*
X133269488Y-95947870D01*
X133271810Y-95952850D01*
X133271811Y-95952852D01*
X133363628Y-96149754D01*
X133363629Y-96149755D01*
X133365954Y-96154741D01*
X133496878Y-96341719D01*
X133658281Y-96503122D01*
X133845259Y-96634046D01*
X133850241Y-96636369D01*
X133850246Y-96636372D01*
X134047148Y-96728189D01*
X134052130Y-96730512D01*
X134057438Y-96731934D01*
X134057440Y-96731935D01*
X134267296Y-96788165D01*
X134272611Y-96789589D01*
X134371972Y-96798282D01*
X134440320Y-96804262D01*
X134440327Y-96804262D01*
X134443044Y-96804500D01*
X134556956Y-96804500D01*
X134559673Y-96804262D01*
X134559680Y-96804262D01*
X134628028Y-96798282D01*
X134727389Y-96789589D01*
X134732704Y-96788165D01*
X134942560Y-96731935D01*
X134942562Y-96731934D01*
X134947870Y-96730512D01*
X134952852Y-96728189D01*
X135149754Y-96636372D01*
X135149759Y-96636369D01*
X135154741Y-96634046D01*
X135341719Y-96503122D01*
X135503122Y-96341719D01*
X135634046Y-96154742D01*
X135636369Y-96149760D01*
X135636372Y-96149755D01*
X135728189Y-95952852D01*
X135728190Y-95952851D01*
X135730512Y-95947870D01*
X135789589Y-95727389D01*
X135809483Y-95500000D01*
X135789589Y-95272611D01*
X135730512Y-95052130D01*
X135728189Y-95047148D01*
X135636372Y-94850246D01*
X135636369Y-94850241D01*
X135634046Y-94845259D01*
X135503122Y-94658281D01*
X135341719Y-94496878D01*
X135154741Y-94365954D01*
X135149759Y-94363631D01*
X135149754Y-94363628D01*
X134952852Y-94271811D01*
X134952850Y-94271810D01*
X134947870Y-94269488D01*
X134942562Y-94268066D01*
X134942560Y-94268065D01*
X134732704Y-94211835D01*
X134732703Y-94211835D01*
X134727389Y-94210411D01*
X134628028Y-94201718D01*
X134559680Y-94195738D01*
X134559673Y-94195738D01*
X134556956Y-94195500D01*
X134443044Y-94195500D01*
X134440327Y-94195738D01*
X134440320Y-94195738D01*
X134371972Y-94201718D01*
X134272611Y-94210411D01*
X134267297Y-94211835D01*
X134267296Y-94211835D01*
X134057440Y-94268065D01*
X134057438Y-94268066D01*
X134052130Y-94269488D01*
X134047150Y-94271810D01*
X134047148Y-94271811D01*
X133850246Y-94363628D01*
X133850241Y-94363631D01*
X133845259Y-94365954D01*
X133658281Y-94496878D01*
X133496878Y-94658281D01*
X133365954Y-94845258D01*
X133363631Y-94850240D01*
X133363628Y-94850245D01*
X133363628Y-94850246D01*
X133269488Y-95052130D01*
X133210411Y-95272611D01*
X133190517Y-95500000D01*
X109193688Y-95500000D01*
X109193401Y-94045351D01*
X109195199Y-94029979D01*
X109195263Y-94022730D01*
X109198541Y-94008924D01*
X109195508Y-93995065D01*
X109195520Y-93993693D01*
X109196201Y-93981677D01*
X109208580Y-93863517D01*
X109213483Y-93839536D01*
X109252804Y-93711950D01*
X109262251Y-93689369D01*
X109325498Y-93571794D01*
X109339133Y-93551465D01*
X109423925Y-93448332D01*
X109441230Y-93431027D01*
X109544361Y-93346235D01*
X109564684Y-93332604D01*
X109682265Y-93269353D01*
X109704844Y-93259906D01*
X109711732Y-93257783D01*
X109832437Y-93220582D01*
X109856410Y-93215681D01*
X109952130Y-93205653D01*
X109975021Y-93203255D01*
X109987293Y-93202581D01*
X110001101Y-93205653D01*
X110014914Y-93202424D01*
X110021292Y-93202390D01*
X110037677Y-93200500D01*
X135955814Y-93200500D01*
X135973139Y-93202466D01*
G37*
G04 #@! TD.AperFunction*
M02*
