G04 #@! TF.GenerationSoftware,KiCad,Pcbnew,6.0.10-86aedd382b~118~ubuntu20.04.1*
G04 #@! TF.CreationDate,2023-01-08T02:49:30+01:00*
G04 #@! TF.ProjectId,TempExt,54656d70-4578-4742-9e6b-696361645f70,rev?*
G04 #@! TF.SameCoordinates,Original*
G04 #@! TF.FileFunction,Legend,Top*
G04 #@! TF.FilePolarity,Positive*
%FSLAX46Y46*%
G04 Gerber Fmt 4.6, Leading zero omitted, Abs format (unit mm)*
G04 Created by KiCad (PCBNEW 6.0.10-86aedd382b~118~ubuntu20.04.1) date 2023-01-08 02:49:30*
%MOMM*%
%LPD*%
G01*
G04 APERTURE LIST*
G04 Aperture macros list*
%AMRoundRect*
0 Rectangle with rounded corners*
0 $1 Rounding radius*
0 $2 $3 $4 $5 $6 $7 $8 $9 X,Y pos of 4 corners*
0 Add a 4 corners polygon primitive as box body*
4,1,4,$2,$3,$4,$5,$6,$7,$8,$9,$2,$3,0*
0 Add four circle primitives for the rounded corners*
1,1,$1+$1,$2,$3*
1,1,$1+$1,$4,$5*
1,1,$1+$1,$6,$7*
1,1,$1+$1,$8,$9*
0 Add four rect primitives between the rounded corners*
20,1,$1+$1,$2,$3,$4,$5,0*
20,1,$1+$1,$4,$5,$6,$7,0*
20,1,$1+$1,$6,$7,$8,$9,0*
20,1,$1+$1,$8,$9,$2,$3,0*%
%AMFreePoly0*
4,1,20,0.000000,0.744959,0.073905,0.744508,0.209726,0.703889,0.328688,0.626782,0.421226,0.519385,0.479903,0.390333,0.500000,0.250000,0.500000,-0.250000,0.499851,-0.262216,0.476331,-0.402017,0.414519,-0.529596,0.319384,-0.634700,0.198574,-0.708877,0.061801,-0.746166,0.000000,-0.745033,0.000000,-0.750000,-0.500000,-0.750000,-0.500000,0.750000,0.000000,0.750000,0.000000,0.744959,
0.000000,0.744959,$1*%
%AMFreePoly1*
4,1,22,0.500000,-0.750000,0.000000,-0.750000,0.000000,-0.745033,-0.079941,-0.743568,-0.215256,-0.701293,-0.333266,-0.622738,-0.424486,-0.514219,-0.481581,-0.384460,-0.499164,-0.250000,-0.500000,-0.250000,-0.500000,0.250000,-0.499164,0.250000,-0.499963,0.256109,-0.478152,0.396186,-0.417904,0.524511,-0.324060,0.630769,-0.204165,0.706417,-0.067858,0.745374,0.000000,0.744959,0.000000,0.750000,
0.500000,0.750000,0.500000,-0.750000,0.500000,-0.750000,$1*%
G04 Aperture macros list end*
%ADD10C,0.200000*%
%ADD11C,0.150000*%
%ADD12C,0.120000*%
%ADD13C,1.000000*%
%ADD14C,2.500000*%
%ADD15RoundRect,0.250000X-0.262500X-0.450000X0.262500X-0.450000X0.262500X0.450000X-0.262500X0.450000X0*%
%ADD16RoundRect,0.250000X-0.600000X0.600000X-0.600000X-0.600000X0.600000X-0.600000X0.600000X0.600000X0*%
%ADD17C,1.700000*%
%ADD18FreePoly0,180.000000*%
%ADD19FreePoly1,180.000000*%
%ADD20C,2.100000*%
%ADD21RoundRect,0.237500X0.237500X-0.300000X0.237500X0.300000X-0.237500X0.300000X-0.237500X-0.300000X0*%
%ADD22RoundRect,0.237500X0.250000X0.237500X-0.250000X0.237500X-0.250000X-0.237500X0.250000X-0.237500X0*%
%ADD23RoundRect,0.237500X-0.237500X0.300000X-0.237500X-0.300000X0.237500X-0.300000X0.237500X0.300000X0*%
%ADD24R,3.250000X3.250000*%
%ADD25RoundRect,0.075000X-0.337500X0.075000X-0.337500X-0.075000X0.337500X-0.075000X0.337500X0.075000X0*%
%ADD26RoundRect,0.075000X-0.075000X0.337500X-0.075000X-0.337500X0.075000X-0.337500X0.075000X0.337500X0*%
G04 APERTURE END LIST*
D10*
X110107142Y-105178571D02*
X110964285Y-105178571D01*
X110535714Y-106678571D02*
X110535714Y-105178571D01*
X112035714Y-106607142D02*
X111892857Y-106678571D01*
X111607142Y-106678571D01*
X111464285Y-106607142D01*
X111392857Y-106464285D01*
X111392857Y-105892857D01*
X111464285Y-105750000D01*
X111607142Y-105678571D01*
X111892857Y-105678571D01*
X112035714Y-105750000D01*
X112107142Y-105892857D01*
X112107142Y-106035714D01*
X111392857Y-106178571D01*
X112750000Y-106678571D02*
X112750000Y-105678571D01*
X112750000Y-105821428D02*
X112821428Y-105750000D01*
X112964285Y-105678571D01*
X113178571Y-105678571D01*
X113321428Y-105750000D01*
X113392857Y-105892857D01*
X113392857Y-106678571D01*
X113392857Y-105892857D02*
X113464285Y-105750000D01*
X113607142Y-105678571D01*
X113821428Y-105678571D01*
X113964285Y-105750000D01*
X114035714Y-105892857D01*
X114035714Y-106678571D01*
X114750000Y-105678571D02*
X114750000Y-107178571D01*
X114750000Y-105750000D02*
X114892857Y-105678571D01*
X115178571Y-105678571D01*
X115321428Y-105750000D01*
X115392857Y-105821428D01*
X115464285Y-105964285D01*
X115464285Y-106392857D01*
X115392857Y-106535714D01*
X115321428Y-106607142D01*
X115178571Y-106678571D01*
X114892857Y-106678571D01*
X114750000Y-106607142D01*
X116107142Y-105892857D02*
X116607142Y-105892857D01*
X116821428Y-106678571D02*
X116107142Y-106678571D01*
X116107142Y-105178571D01*
X116821428Y-105178571D01*
X117321428Y-106678571D02*
X118107142Y-105678571D01*
X117321428Y-105678571D02*
X118107142Y-106678571D01*
X118464285Y-105678571D02*
X119035714Y-105678571D01*
X118678571Y-105178571D02*
X118678571Y-106464285D01*
X118750000Y-106607142D01*
X118892857Y-106678571D01*
X119035714Y-106678571D01*
X120464285Y-105178571D02*
X120964285Y-106678571D01*
X121464285Y-105178571D01*
X122750000Y-106678571D02*
X121892857Y-106678571D01*
X122321428Y-106678571D02*
X122321428Y-105178571D01*
X122178571Y-105392857D01*
X122035714Y-105535714D01*
X121892857Y-105607142D01*
D11*
X135190476Y-127810714D02*
X135190476Y-128477380D01*
X134952380Y-127429761D02*
X134714285Y-128144047D01*
X135333333Y-128144047D01*
X134666666Y-124877380D02*
X135285714Y-124877380D01*
X134952380Y-125258333D01*
X135095238Y-125258333D01*
X135190476Y-125305952D01*
X135238095Y-125353571D01*
X135285714Y-125448809D01*
X135285714Y-125686904D01*
X135238095Y-125782142D01*
X135190476Y-125829761D01*
X135095238Y-125877380D01*
X134809523Y-125877380D01*
X134714285Y-125829761D01*
X134666666Y-125782142D01*
X134714285Y-122372619D02*
X134761904Y-122325000D01*
X134857142Y-122277380D01*
X135095238Y-122277380D01*
X135190476Y-122325000D01*
X135238095Y-122372619D01*
X135285714Y-122467857D01*
X135285714Y-122563095D01*
X135238095Y-122705952D01*
X134666666Y-123277380D01*
X135285714Y-123277380D01*
X135285714Y-120677380D02*
X134714285Y-120677380D01*
X135000000Y-120677380D02*
X135000000Y-119677380D01*
X134904761Y-119820238D01*
X134809523Y-119915476D01*
X134714285Y-119963095D01*
D12*
X135591106Y-106499999D02*
G75*
G03*
X135591106Y-106499999I-700000J0D01*
G01*
X129572936Y-116765000D02*
X130027064Y-116765000D01*
X129572936Y-118235000D02*
X130027064Y-118235000D01*
X109630000Y-94710000D02*
X130210000Y-94710000D01*
X121970000Y-94710000D02*
X121970000Y-96020000D01*
X128910000Y-102520000D02*
X110930000Y-102520000D01*
X125500000Y-93320000D02*
X124500000Y-93320000D01*
X110930000Y-102520000D02*
X110930000Y-96020000D01*
X117870000Y-96020000D02*
X117870000Y-96020000D01*
X128910000Y-96020000D02*
X128910000Y-102520000D01*
X117870000Y-96020000D02*
X117870000Y-94710000D01*
X125000000Y-94320000D02*
X125500000Y-93320000D01*
X109630000Y-103830000D02*
X109630000Y-94710000D01*
X121970000Y-96020000D02*
X128910000Y-96020000D01*
X110930000Y-96020000D02*
X117870000Y-96020000D01*
X124500000Y-93320000D02*
X125000000Y-94320000D01*
X130210000Y-103830000D02*
X109630000Y-103830000D01*
X130210000Y-94710000D02*
X130210000Y-103830000D01*
X131950000Y-127025000D02*
G75*
G03*
X131250000Y-127725000I0J-700000D01*
G01*
X134050000Y-127725000D02*
G75*
G03*
X133350000Y-127025000I-699999J1D01*
G01*
X133350000Y-129025000D02*
G75*
G03*
X134050000Y-128325000I1J699999D01*
G01*
X131250000Y-128325000D02*
G75*
G03*
X131950000Y-129025000I700000J0D01*
G01*
X134050000Y-127725000D02*
X134050000Y-128325000D01*
X131250000Y-128325000D02*
X131250000Y-127725000D01*
X131950000Y-127025000D02*
X133350000Y-127025000D01*
X133350000Y-129025000D02*
X131950000Y-129025000D01*
X131957233Y-124425000D02*
G75*
G03*
X131257233Y-125125000I0J-700000D01*
G01*
X134057233Y-125125000D02*
G75*
G03*
X133357233Y-124425000I-699999J1D01*
G01*
X133357233Y-126425000D02*
G75*
G03*
X134057233Y-125725000I1J699999D01*
G01*
X131257233Y-125725000D02*
G75*
G03*
X131957233Y-126425000I700000J0D01*
G01*
X134057233Y-125125000D02*
X134057233Y-125725000D01*
X131257233Y-125725000D02*
X131257233Y-125125000D01*
X131957233Y-124425000D02*
X133357233Y-124425000D01*
X133357233Y-126425000D02*
X131957233Y-126425000D01*
X131957233Y-121825000D02*
G75*
G03*
X131257233Y-122525000I0J-700000D01*
G01*
X134057233Y-122525000D02*
G75*
G03*
X133357233Y-121825000I-699999J1D01*
G01*
X133357233Y-123825000D02*
G75*
G03*
X134057233Y-123125000I1J699999D01*
G01*
X131257233Y-123125000D02*
G75*
G03*
X131957233Y-123825000I700000J0D01*
G01*
X134057233Y-122525000D02*
X134057233Y-123125000D01*
X131257233Y-123125000D02*
X131257233Y-122525000D01*
X131957233Y-121825000D02*
X133357233Y-121825000D01*
X133357233Y-123825000D02*
X131957233Y-123825000D01*
X133357233Y-121225000D02*
X131957233Y-121225000D01*
X131957233Y-119225000D02*
X133357233Y-119225000D01*
X131257233Y-120525000D02*
X131257233Y-119925000D01*
X134057233Y-119925000D02*
X134057233Y-120525000D01*
X131257233Y-120525000D02*
G75*
G03*
X131957233Y-121225000I700000J0D01*
G01*
X133357233Y-121225000D02*
G75*
G03*
X134057233Y-120525000I1J699999D01*
G01*
X134057233Y-119925000D02*
G75*
G03*
X133357233Y-119225000I-699999J1D01*
G01*
X131957233Y-119225000D02*
G75*
G03*
X131257233Y-119925000I0J-700000D01*
G01*
X135310000Y-109746267D02*
X135310000Y-109453733D01*
X134290000Y-109746267D02*
X134290000Y-109453733D01*
X131939724Y-107752500D02*
X131430276Y-107752500D01*
X131939724Y-108797500D02*
X131430276Y-108797500D01*
X126490000Y-111928733D02*
X126490000Y-112221267D01*
X127510000Y-111928733D02*
X127510000Y-112221267D01*
X133510000Y-110890000D02*
X133510000Y-109990000D01*
X128290000Y-110890000D02*
X128290000Y-109990000D01*
X128290000Y-114310000D02*
X128290000Y-115210000D01*
X133510000Y-114310000D02*
X133510000Y-115210000D01*
X128290000Y-115210000D02*
X129190000Y-115210000D01*
X128290000Y-109990000D02*
X129190000Y-109990000D01*
X133510000Y-115210000D02*
X132610000Y-115210000D01*
X135310000Y-112853733D02*
X135310000Y-113146267D01*
X134290000Y-112853733D02*
X134290000Y-113146267D01*
X110910000Y-120967500D02*
X117850000Y-120967500D01*
X117850000Y-120967500D02*
X117850000Y-120967500D01*
X128890000Y-120967500D02*
X128890000Y-127467500D01*
X130190000Y-128777500D02*
X109610000Y-128777500D01*
X128890000Y-127467500D02*
X110910000Y-127467500D01*
X109610000Y-128777500D02*
X109610000Y-119657500D01*
X121950000Y-119657500D02*
X121950000Y-120967500D01*
X124980000Y-119267500D02*
X125480000Y-118267500D01*
X124480000Y-118267500D02*
X124980000Y-119267500D01*
X109610000Y-119657500D02*
X130190000Y-119657500D01*
X121950000Y-120967500D02*
X128890000Y-120967500D01*
X110910000Y-127467500D02*
X110910000Y-120967500D01*
X130190000Y-119657500D02*
X130190000Y-128777500D01*
X117850000Y-120967500D02*
X117850000Y-119657500D01*
X125480000Y-118267500D02*
X124480000Y-118267500D01*
%LPC*%
D13*
X134891106Y-106499999D03*
D14*
X121232233Y-113767767D03*
X124767767Y-113767767D03*
X124767767Y-110232233D03*
X121232233Y-110232233D03*
D15*
X128887500Y-117500000D03*
X130712500Y-117500000D03*
D16*
X125000000Y-98000000D03*
D17*
X125000000Y-100540000D03*
X122460000Y-98000000D03*
X122460000Y-100540000D03*
X119920000Y-98000000D03*
X119920000Y-100540000D03*
X117380000Y-98000000D03*
X117380000Y-100540000D03*
X114840000Y-98000000D03*
X114840000Y-100540000D03*
D18*
X132000000Y-128025000D03*
D19*
X133300000Y-128025000D03*
D18*
X132007233Y-125425000D03*
D19*
X133307233Y-125425000D03*
D18*
X132007233Y-122825000D03*
D19*
X133307233Y-122825000D03*
X133307233Y-120225000D03*
D18*
X132007233Y-120225000D03*
D20*
X111500000Y-128500000D03*
D21*
X134800000Y-108737500D03*
X134800000Y-110462500D03*
D22*
X130772500Y-108275000D03*
X132597500Y-108275000D03*
D23*
X127000000Y-112937500D03*
X127000000Y-111212500D03*
D24*
X130900000Y-112600000D03*
D25*
X133337500Y-111300000D03*
X133337500Y-111950000D03*
X133337500Y-112600000D03*
X133337500Y-113250000D03*
X133337500Y-113900000D03*
D26*
X132200000Y-115037500D03*
X131550000Y-115037500D03*
X130900000Y-115037500D03*
X130250000Y-115037500D03*
X129600000Y-115037500D03*
D25*
X128462500Y-113900000D03*
X128462500Y-113250000D03*
X128462500Y-112600000D03*
X128462500Y-111950000D03*
X128462500Y-111300000D03*
D26*
X129600000Y-110162500D03*
X130250000Y-110162500D03*
X130900000Y-110162500D03*
X131550000Y-110162500D03*
X132200000Y-110162500D03*
D23*
X134800000Y-113862500D03*
X134800000Y-112137500D03*
D17*
X114820000Y-125487500D03*
X114820000Y-122947500D03*
X117360000Y-125487500D03*
X117360000Y-122947500D03*
X119900000Y-125487500D03*
X119900000Y-122947500D03*
X122440000Y-125487500D03*
X122440000Y-122947500D03*
X124980000Y-125487500D03*
D16*
X124980000Y-122947500D03*
D20*
X134500000Y-95500000D03*
M02*
