G04 #@! TF.GenerationSoftware,KiCad,Pcbnew,6.0.10-86aedd382b~118~ubuntu20.04.1*
G04 #@! TF.CreationDate,2023-01-08T02:49:30+01:00*
G04 #@! TF.ProjectId,TempExt,54656d70-4578-4742-9e6b-696361645f70,rev?*
G04 #@! TF.SameCoordinates,Original*
G04 #@! TF.FileFunction,Soldermask,Top*
G04 #@! TF.FilePolarity,Negative*
%FSLAX46Y46*%
G04 Gerber Fmt 4.6, Leading zero omitted, Abs format (unit mm)*
G04 Created by KiCad (PCBNEW 6.0.10-86aedd382b~118~ubuntu20.04.1) date 2023-01-08 02:49:30*
%MOMM*%
%LPD*%
G01*
G04 APERTURE LIST*
G04 Aperture macros list*
%AMRoundRect*
0 Rectangle with rounded corners*
0 $1 Rounding radius*
0 $2 $3 $4 $5 $6 $7 $8 $9 X,Y pos of 4 corners*
0 Add a 4 corners polygon primitive as box body*
4,1,4,$2,$3,$4,$5,$6,$7,$8,$9,$2,$3,0*
0 Add four circle primitives for the rounded corners*
1,1,$1+$1,$2,$3*
1,1,$1+$1,$4,$5*
1,1,$1+$1,$6,$7*
1,1,$1+$1,$8,$9*
0 Add four rect primitives between the rounded corners*
20,1,$1+$1,$2,$3,$4,$5,0*
20,1,$1+$1,$4,$5,$6,$7,0*
20,1,$1+$1,$6,$7,$8,$9,0*
20,1,$1+$1,$8,$9,$2,$3,0*%
%AMFreePoly0*
4,1,20,0.000000,0.744959,0.073905,0.744508,0.209726,0.703889,0.328688,0.626782,0.421226,0.519385,0.479903,0.390333,0.500000,0.250000,0.500000,-0.250000,0.499851,-0.262216,0.476331,-0.402017,0.414519,-0.529596,0.319384,-0.634700,0.198574,-0.708877,0.061801,-0.746166,0.000000,-0.745033,0.000000,-0.750000,-0.500000,-0.750000,-0.500000,0.750000,0.000000,0.750000,0.000000,0.744959,
0.000000,0.744959,$1*%
%AMFreePoly1*
4,1,22,0.500000,-0.750000,0.000000,-0.750000,0.000000,-0.745033,-0.079941,-0.743568,-0.215256,-0.701293,-0.333266,-0.622738,-0.424486,-0.514219,-0.481581,-0.384460,-0.499164,-0.250000,-0.500000,-0.250000,-0.500000,0.250000,-0.499164,0.250000,-0.499963,0.256109,-0.478152,0.396186,-0.417904,0.524511,-0.324060,0.630769,-0.204165,0.706417,-0.067858,0.745374,0.000000,0.744959,0.000000,0.750000,
0.500000,0.750000,0.500000,-0.750000,0.500000,-0.750000,$1*%
G04 Aperture macros list end*
%ADD10C,1.000000*%
%ADD11C,2.500000*%
%ADD12RoundRect,0.250000X-0.262500X-0.450000X0.262500X-0.450000X0.262500X0.450000X-0.262500X0.450000X0*%
%ADD13RoundRect,0.250000X-0.600000X0.600000X-0.600000X-0.600000X0.600000X-0.600000X0.600000X0.600000X0*%
%ADD14C,1.700000*%
%ADD15FreePoly0,180.000000*%
%ADD16FreePoly1,180.000000*%
%ADD17C,2.100000*%
%ADD18RoundRect,0.237500X0.237500X-0.300000X0.237500X0.300000X-0.237500X0.300000X-0.237500X-0.300000X0*%
%ADD19RoundRect,0.237500X0.250000X0.237500X-0.250000X0.237500X-0.250000X-0.237500X0.250000X-0.237500X0*%
%ADD20RoundRect,0.237500X-0.237500X0.300000X-0.237500X-0.300000X0.237500X-0.300000X0.237500X0.300000X0*%
%ADD21R,3.250000X3.250000*%
%ADD22RoundRect,0.075000X-0.337500X0.075000X-0.337500X-0.075000X0.337500X-0.075000X0.337500X0.075000X0*%
%ADD23RoundRect,0.075000X-0.075000X0.337500X-0.075000X-0.337500X0.075000X-0.337500X0.075000X0.337500X0*%
G04 APERTURE END LIST*
D10*
X134891106Y-106499999D03*
D11*
X121232233Y-113767767D03*
X124767767Y-113767767D03*
X124767767Y-110232233D03*
X121232233Y-110232233D03*
D12*
X128887500Y-117500000D03*
X130712500Y-117500000D03*
D13*
X125000000Y-98000000D03*
D14*
X125000000Y-100540000D03*
X122460000Y-98000000D03*
X122460000Y-100540000D03*
X119920000Y-98000000D03*
X119920000Y-100540000D03*
X117380000Y-98000000D03*
X117380000Y-100540000D03*
X114840000Y-98000000D03*
X114840000Y-100540000D03*
D15*
X132000000Y-128025000D03*
D16*
X133300000Y-128025000D03*
D15*
X132007233Y-125425000D03*
D16*
X133307233Y-125425000D03*
D15*
X132007233Y-122825000D03*
D16*
X133307233Y-122825000D03*
X133307233Y-120225000D03*
D15*
X132007233Y-120225000D03*
D17*
X111500000Y-128500000D03*
D18*
X134800000Y-108737500D03*
X134800000Y-110462500D03*
D19*
X130772500Y-108275000D03*
X132597500Y-108275000D03*
D20*
X127000000Y-112937500D03*
X127000000Y-111212500D03*
D21*
X130900000Y-112600000D03*
D22*
X133337500Y-111300000D03*
X133337500Y-111950000D03*
X133337500Y-112600000D03*
X133337500Y-113250000D03*
X133337500Y-113900000D03*
D23*
X132200000Y-115037500D03*
X131550000Y-115037500D03*
X130900000Y-115037500D03*
X130250000Y-115037500D03*
X129600000Y-115037500D03*
D22*
X128462500Y-113900000D03*
X128462500Y-113250000D03*
X128462500Y-112600000D03*
X128462500Y-111950000D03*
X128462500Y-111300000D03*
D23*
X129600000Y-110162500D03*
X130250000Y-110162500D03*
X130900000Y-110162500D03*
X131550000Y-110162500D03*
X132200000Y-110162500D03*
D20*
X134800000Y-113862500D03*
X134800000Y-112137500D03*
D14*
X114820000Y-125487500D03*
X114820000Y-122947500D03*
X117360000Y-125487500D03*
X117360000Y-122947500D03*
X119900000Y-125487500D03*
X119900000Y-122947500D03*
X122440000Y-125487500D03*
X122440000Y-122947500D03*
X124980000Y-125487500D03*
D13*
X124980000Y-122947500D03*
D17*
X134500000Y-95500000D03*
M02*
